<?xml version="1.0" encoding="utf-8" standalone="no"?>
<!DOCTYPE svg PUBLIC "-//W3C//DTD SVG 1.1//EN"
  "http://www.w3.org/Graphics/SVG/1.1/DTD/svg11.dtd">
<!-- Created with matplotlib (http://matplotlib.org/) -->
<svg height="344.16pt" version="1.1" viewBox="0 0 460.8 344.16" width="460.8pt" xmlns="http://www.w3.org/2000/svg" xmlns:xlink="http://www.w3.org/1999/xlink">
 <defs>
  <style type="text/css">
*{stroke-linecap:butt;stroke-linejoin:round;}
  </style>
 </defs>
 <g id="figure_1">
  <g id="patch_1">
   <path d="M 0 344.16 
L 460.8 344.16 
L 460.8 0 
L 0 0 
z
" style="fill:#ffffff;"/>
  </g>
  <g id="axes_1">
   <g id="patch_2">
    <path d="M 135.234783 101.5272 
C 135.234783 96.429747 134.230695 91.38186 132.279985 86.672427 
C 130.329274 81.962995 127.469876 77.683603 123.865432 74.079159 
C 120.260988 70.474716 115.981596 67.615318 111.272164 65.664607 
C 106.562731 63.713896 101.514844 62.709809 96.417391 62.709809 
C 91.319938 62.709809 86.272051 63.713896 81.562619 65.664607 
C 76.853186 67.615318 72.573794 70.474716 68.969351 74.079159 
C 65.364907 77.683603 62.505509 81.962995 60.554798 86.672427 
C 58.604087 91.38186 57.6 96.429747 57.6 101.5272 
C 57.6 106.624653 58.604087 111.67254 60.554798 116.381973 
C 62.505509 121.091405 65.364907 125.370797 68.969351 128.975241 
C 72.573794 132.579684 76.853186 135.439082 81.562619 137.389793 
C 86.272051 139.340504 91.319938 140.344591 96.417391 140.344591 
C 101.514844 140.344591 106.562731 139.340504 111.272164 137.389793 
C 115.981596 135.439082 120.260988 132.579684 123.865432 128.975241 
C 127.469876 125.370797 130.329274 121.091405 132.279985 116.381973 
C 134.230695 111.67254 135.234783 106.624653 135.234783 101.5272 
M 96.417391 101.5272 
C 96.417391 101.5272 96.417391 101.5272 96.417391 101.5272 
C 96.417391 101.5272 96.417391 101.5272 96.417391 101.5272 
C 96.417391 101.5272 96.417391 101.5272 96.417391 101.5272 
C 96.417391 101.5272 96.417391 101.5272 96.417391 101.5272 
C 96.417391 101.5272 96.417391 101.5272 96.417391 101.5272 
C 96.417391 101.5272 96.417391 101.5272 96.417391 101.5272 
C 96.417391 101.5272 96.417391 101.5272 96.417391 101.5272 
C 96.417391 101.5272 96.417391 101.5272 96.417391 101.5272 
C 96.417391 101.5272 96.417391 101.5272 96.417391 101.5272 
C 96.417391 101.5272 96.417391 101.5272 96.417391 101.5272 
C 96.417391 101.5272 96.417391 101.5272 96.417391 101.5272 
C 96.417391 101.5272 96.417391 101.5272 96.417391 101.5272 
C 96.417391 101.5272 96.417391 101.5272 96.417391 101.5272 
C 96.417391 101.5272 96.417391 101.5272 96.417391 101.5272 
C 96.417391 101.5272 96.417391 101.5272 96.417391 101.5272 
C 96.417391 101.5272 96.417391 101.5272 96.417391 101.5272 
M 135.234783 101.5272 
z
" style="fill:#ffffff;"/>
   </g>
   <g id="matplotlib.axis_1">
    <g id="xtick_1">
     <g id="line2d_1">
      <path clip-path="url(#p45ada4ed8f)" d="M 96.417391 101.5272 
L 135.234783 101.5272 
" style="fill:none;stroke:#b0b0b0;stroke-linecap:square;stroke-width:0.8;"/>
     </g>
    </g>
    <g id="xtick_2">
     <g id="line2d_2">
      <path clip-path="url(#p45ada4ed8f)" d="M 96.417391 101.5272 
L 123.865432 74.079159 
" style="fill:none;stroke:#b0b0b0;stroke-linecap:square;stroke-width:0.8;"/>
     </g>
    </g>
    <g id="xtick_3">
     <g id="line2d_3">
      <path clip-path="url(#p45ada4ed8f)" d="M 96.417391 101.5272 
L 96.417391 62.709809 
" style="fill:none;stroke:#b0b0b0;stroke-linecap:square;stroke-width:0.8;"/>
     </g>
    </g>
    <g id="xtick_4">
     <g id="line2d_4">
      <path clip-path="url(#p45ada4ed8f)" d="M 96.417391 101.5272 
L 68.969351 74.079159 
" style="fill:none;stroke:#b0b0b0;stroke-linecap:square;stroke-width:0.8;"/>
     </g>
    </g>
    <g id="xtick_5">
     <g id="line2d_5">
      <path clip-path="url(#p45ada4ed8f)" d="M 96.417391 101.5272 
L 57.6 101.5272 
" style="fill:none;stroke:#b0b0b0;stroke-linecap:square;stroke-width:0.8;"/>
     </g>
    </g>
    <g id="xtick_6">
     <g id="line2d_6">
      <path clip-path="url(#p45ada4ed8f)" d="M 96.417391 101.5272 
L 68.969351 128.975241 
" style="fill:none;stroke:#b0b0b0;stroke-linecap:square;stroke-width:0.8;"/>
     </g>
    </g>
    <g id="xtick_7">
     <g id="line2d_7">
      <path clip-path="url(#p45ada4ed8f)" d="M 96.417391 101.5272 
L 96.417391 140.344591 
" style="fill:none;stroke:#b0b0b0;stroke-linecap:square;stroke-width:0.8;"/>
     </g>
    </g>
    <g id="xtick_8">
     <g id="line2d_8">
      <path clip-path="url(#p45ada4ed8f)" d="M 96.417391 101.5272 
L 123.865432 128.975241 
" style="fill:none;stroke:#b0b0b0;stroke-linecap:square;stroke-width:0.8;"/>
     </g>
    </g>
   </g>
   <g id="matplotlib.axis_2">
    <g id="ytick_1">
     <g id="line2d_9">
      <path clip-path="url(#p45ada4ed8f)" d="M 111.97067 101.5272 
L 111.885468 99.90144 
L 111.630794 98.293491 
L 111.209439 96.720973 
L 110.626019 95.201112 
L 109.886926 93.750561 
L 109.000258 92.385212 
L 107.97573 91.120025 
L 106.824566 89.968861 
L 105.559379 88.944333 
L 104.194031 88.057665 
L 102.74348 87.318573 
L 101.223619 86.735153 
L 99.6511 86.313798 
L 98.043152 86.059124 
L 96.417391 85.973921 
L 94.791631 86.059124 
L 93.183683 86.313798 
L 91.611164 86.735153 
L 90.091303 87.318573 
L 88.640752 88.057665 
L 87.275403 88.944333 
L 86.010216 89.968861 
L 84.859053 91.120025 
L 83.834524 92.385212 
L 82.947857 93.750561 
L 82.208764 95.201112 
L 81.625344 96.720973 
L 81.203989 98.293491 
L 80.949315 99.90144 
L 80.864112 101.5272 
L 80.949315 103.15296 
L 81.203989 104.760909 
L 81.625344 106.333427 
L 82.208764 107.853288 
L 82.947857 109.303839 
L 83.834524 110.669188 
L 84.859053 111.934375 
L 86.010216 113.085539 
L 87.275403 114.110067 
L 88.640752 114.996735 
L 90.091303 115.735827 
L 91.611164 116.319247 
L 93.183683 116.740602 
L 94.791631 116.995276 
L 96.417391 117.080479 
L 98.043152 116.995276 
L 99.6511 116.740602 
L 101.223619 116.319247 
L 102.74348 115.735827 
L 104.194031 114.996735 
L 105.559379 114.110067 
L 106.824566 113.085539 
L 107.97573 111.934375 
L 109.000258 110.669188 
L 109.886926 109.303839 
L 110.626019 107.853288 
L 111.209439 106.333427 
L 111.630794 104.760909 
L 111.885468 103.15296 
L 111.97067 101.5272 
L 111.97067 101.5272 
" style="fill:none;stroke:#b0b0b0;stroke-linecap:square;stroke-width:0.8;"/>
     </g>
     <g id="text_1">
      <!-- 2.5 -->
      <defs>
       <path d="M 19.1875 8.296875 
L 53.609375 8.296875 
L 53.609375 0 
L 7.328125 0 
L 7.328125 8.296875 
Q 12.9375 14.109375 22.625 23.890625 
Q 32.328125 33.6875 34.8125 36.53125 
Q 39.546875 41.84375 41.421875 45.53125 
Q 43.3125 49.21875 43.3125 52.78125 
Q 43.3125 58.59375 39.234375 62.25 
Q 35.15625 65.921875 28.609375 65.921875 
Q 23.96875 65.921875 18.8125 64.3125 
Q 13.671875 62.703125 7.8125 59.421875 
L 7.8125 69.390625 
Q 13.765625 71.78125 18.9375 73 
Q 24.125 74.21875 28.421875 74.21875 
Q 39.75 74.21875 46.484375 68.546875 
Q 53.21875 62.890625 53.21875 53.421875 
Q 53.21875 48.921875 51.53125 44.890625 
Q 49.859375 40.875 45.40625 35.40625 
Q 44.1875 33.984375 37.640625 27.21875 
Q 31.109375 20.453125 19.1875 8.296875 
z
" id="DejaVuSans-32"/>
       <path d="M 10.6875 12.40625 
L 21 12.40625 
L 21 0 
L 10.6875 0 
z
" id="DejaVuSans-2e"/>
       <path d="M 10.796875 72.90625 
L 49.515625 72.90625 
L 49.515625 64.59375 
L 19.828125 64.59375 
L 19.828125 46.734375 
Q 21.96875 47.46875 24.109375 47.828125 
Q 26.265625 48.1875 28.421875 48.1875 
Q 40.625 48.1875 47.75 41.5 
Q 54.890625 34.8125 54.890625 23.390625 
Q 54.890625 11.625 47.5625 5.09375 
Q 40.234375 -1.421875 26.90625 -1.421875 
Q 22.3125 -1.421875 17.546875 -0.640625 
Q 12.796875 0.140625 7.71875 1.703125 
L 7.71875 11.625 
Q 12.109375 9.234375 16.796875 8.0625 
Q 21.484375 6.890625 26.703125 6.890625 
Q 35.15625 6.890625 40.078125 11.328125 
Q 45.015625 15.765625 45.015625 23.390625 
Q 45.015625 31 40.078125 35.4375 
Q 35.15625 39.890625 26.703125 39.890625 
Q 22.75 39.890625 18.8125 39.015625 
Q 14.890625 38.140625 10.796875 36.28125 
z
" id="DejaVuSans-35"/>
      </defs>
      <g transform="translate(110.786747 93.49553)scale(0.1 -0.1)">
       <use xlink:href="#DejaVuSans-32"/>
       <use x="63.623047" xlink:href="#DejaVuSans-2e"/>
       <use x="95.410156" xlink:href="#DejaVuSans-35"/>
      </g>
     </g>
    </g>
    <g id="ytick_2">
     <g id="line2d_10">
      <path clip-path="url(#p45ada4ed8f)" d="M 127.523949 101.5272 
L 127.448175 99.357316 
L 127.221222 97.198004 
L 126.844196 95.059783 
L 126.318934 92.953071 
L 125.647994 90.888131 
L 124.834646 88.875023 
L 123.882852 86.923556 
L 122.797248 85.043236 
L 121.583125 83.243224 
L 120.246397 81.53229 
L 118.793576 79.918769 
L 117.231741 78.410523 
L 115.568501 77.014898 
L 113.811958 75.738695 
L 111.97067 74.588131 
L 110.053609 73.568811 
L 108.070113 72.685702 
L 106.029846 71.943106 
L 103.942749 71.34464 
L 101.818988 70.893221 
L 99.668912 70.591047 
L 97.502995 70.439592 
L 95.331788 70.439592 
L 93.165871 70.591047 
L 91.015794 70.893221 
L 88.892034 71.34464 
L 86.804936 71.943106 
L 84.76467 72.685702 
L 82.781174 73.568811 
L 80.864112 74.588131 
L 79.022825 75.738695 
L 77.266282 77.014898 
L 75.603041 78.410523 
L 74.041206 79.918769 
L 72.588386 81.53229 
L 71.251657 83.243224 
L 70.037534 85.043236 
L 68.951931 86.923556 
L 68.000137 88.875023 
L 67.186789 90.888131 
L 66.515849 92.953071 
L 65.990586 95.059783 
L 65.61356 97.198004 
L 65.386608 99.357316 
L 65.310834 101.5272 
L 65.386608 103.697084 
L 65.61356 105.856396 
L 65.990586 107.994617 
L 66.515849 110.101329 
L 67.186789 112.166269 
L 68.000137 114.179377 
L 68.951931 116.130844 
L 70.037534 118.011164 
L 71.251657 119.811176 
L 72.588386 121.52211 
L 74.041206 123.135631 
L 75.603041 124.643877 
L 77.266282 126.039502 
L 79.022825 127.315705 
L 80.864112 128.466269 
L 82.781174 129.485589 
L 84.76467 130.368698 
L 86.804936 131.111294 
L 88.892034 131.70976 
L 91.015794 132.161179 
L 93.165871 132.463353 
L 95.331788 132.614808 
L 97.502995 132.614808 
L 99.668912 132.463353 
L 101.818988 132.161179 
L 103.942749 131.70976 
L 106.029846 131.111294 
L 108.070113 130.368698 
L 110.053609 129.485589 
L 111.97067 128.466269 
L 113.811958 127.315705 
L 115.568501 126.039502 
L 117.231741 124.643877 
L 118.793576 123.135631 
L 120.246397 121.52211 
L 121.583125 119.811176 
L 122.797248 118.011164 
L 123.882852 116.130844 
L 124.834646 114.179377 
L 125.647994 112.166269 
L 126.318934 110.101329 
L 126.844196 107.994617 
L 127.221222 105.856396 
L 127.448175 103.697084 
L 127.523949 101.5272 
L 127.523949 101.5272 
" style="fill:none;stroke:#b0b0b0;stroke-linecap:square;stroke-width:0.8;"/>
     </g>
     <g id="text_2">
      <!-- 5.0 -->
      <defs>
       <path d="M 31.78125 66.40625 
Q 24.171875 66.40625 20.328125 58.90625 
Q 16.5 51.421875 16.5 36.375 
Q 16.5 21.390625 20.328125 13.890625 
Q 24.171875 6.390625 31.78125 6.390625 
Q 39.453125 6.390625 43.28125 13.890625 
Q 47.125 21.390625 47.125 36.375 
Q 47.125 51.421875 43.28125 58.90625 
Q 39.453125 66.40625 31.78125 66.40625 
z
M 31.78125 74.21875 
Q 44.046875 74.21875 50.515625 64.515625 
Q 56.984375 54.828125 56.984375 36.375 
Q 56.984375 17.96875 50.515625 8.265625 
Q 44.046875 -1.421875 31.78125 -1.421875 
Q 19.53125 -1.421875 13.0625 8.265625 
Q 6.59375 17.96875 6.59375 36.375 
Q 6.59375 54.828125 13.0625 64.515625 
Q 19.53125 74.21875 31.78125 74.21875 
z
" id="DejaVuSans-30"/>
      </defs>
      <g transform="translate(125.156103 87.543548)scale(0.1 -0.1)">
       <use xlink:href="#DejaVuSans-35"/>
       <use x="63.623047" xlink:href="#DejaVuSans-2e"/>
       <use x="95.410156" xlink:href="#DejaVuSans-30"/>
      </g>
     </g>
    </g>
   </g>
   <g id="line2d_11">
    <path clip-path="url(#p45ada4ed8f)" d="M 124.385635 100.036557 
L 123.810031 97.113842 
L 122.70375 94.358628 
L 121.12263 91.867236 
L 119.182359 89.697898 
L 117.021832 87.858718 
L 114.785169 86.299076 
L 112.589681 84.918509 
L 110.493247 83.598544 
L 108.509076 82.201912 
L 106.590265 80.606927 
L 104.650962 78.695728 
L 102.550356 76.423637 
L 100.123339 73.852342 
L 97.224371 71.223757 
L 93.80409 68.877778 
L 89.944308 67.197016 
L 85.845036 66.464891 
L 81.767878 66.815438 
L 77.978112 68.23864 
L 74.727193 70.647698 
L 72.230346 73.885365 
L 70.643745 77.73408 
L 69.980251 81.885965 
L 70.048852 85.98969 
L 70.467468 89.75209 
L 70.786505 93.048071 
L 70.658365 95.956306 
L 69.972871 98.700305 
L 68.918233 101.5272 
L 67.855008 104.580493 
L 67.222752 107.841112 
L 67.332518 111.148966 
L 68.332642 114.271014 
L 70.176439 116.989531 
L 72.68541 119.158661 
L 75.610572 120.735159 
L 78.699738 121.775579 
L 81.736397 122.427968 
L 84.582324 122.89313 
L 87.184116 123.405281 
L 89.59408 124.156125 
L 91.936029 125.294234 
L 94.390977 126.844318 
L 97.14091 128.696557 
L 100.309432 130.591745 
L 103.901221 132.160146 
L 107.763192 132.988799 
L 111.596873 132.743445 
L 115.037701 131.28673 
L 117.773405 128.728716 
L 119.681102 125.418669 
L 120.851112 121.784399 
L 121.565327 118.209725 
L 122.129749 114.888047 
L 122.739776 111.819482 
L 123.425748 108.892669 
L 124.05598 105.980184 
L 124.433953 103.020419 
" style="fill:none;stroke:#1f77b4;stroke-linecap:square;stroke-width:1.5;"/>
   </g>
   <g id="patch_3">
    <path d="M 135.234783 101.5272 
C 135.234783 96.429747 134.230695 91.38186 132.279985 86.672427 
C 130.329274 81.962995 127.469876 77.683603 123.865432 74.079159 
C 120.260988 70.474716 115.981596 67.615318 111.272164 65.664607 
C 106.562731 63.713896 101.514844 62.709809 96.417391 62.709809 
C 91.319938 62.709809 86.272051 63.713896 81.562619 65.664607 
C 76.853186 67.615318 72.573794 70.474716 68.969351 74.079159 
C 65.364907 77.683603 62.505509 81.962995 60.554798 86.672427 
C 58.604087 91.38186 57.6 96.429747 57.6 101.5272 
C 57.6 106.624653 58.604087 111.67254 60.554798 116.381973 
C 62.505509 121.091405 65.364907 125.370797 68.969351 128.975241 
C 72.573794 132.579684 76.853186 135.439082 81.562619 137.389793 
C 86.272051 139.340504 91.319938 140.344591 96.417391 140.344591 
C 101.514844 140.344591 106.562731 139.340504 111.272164 137.389793 
C 115.981596 135.439082 120.260988 132.579684 123.865432 128.975241 
C 127.469876 125.370797 130.329274 121.091405 132.279985 116.381973 
C 134.230695 111.67254 135.234783 106.624653 135.234783 101.5272 
" style="fill:none;stroke:#000000;stroke-linecap:square;stroke-linejoin:miter;stroke-width:0.8;"/>
   </g>
  </g>
  <g id="axes_2">
   <g id="patch_4">
    <path d="M 228.396522 101.5272 
C 228.396522 96.429747 227.392435 91.38186 225.441724 86.672427 
C 223.491013 81.962995 220.631615 77.683603 217.027171 74.079159 
C 213.422727 70.474716 209.143336 67.615318 204.433903 65.664607 
C 199.72447 63.713896 194.676584 62.709809 189.57913 62.709809 
C 184.481677 62.709809 179.433791 63.713896 174.724358 65.664607 
C 170.014925 67.615318 165.735533 70.474716 162.13109 74.079159 
C 158.526646 77.683603 155.667248 81.962995 153.716537 86.672427 
C 151.765826 91.38186 150.761739 96.429747 150.761739 101.5272 
C 150.761739 106.624653 151.765826 111.67254 153.716537 116.381973 
C 155.667248 121.091405 158.526646 125.370797 162.13109 128.975241 
C 165.735533 132.579684 170.014925 135.439082 174.724358 137.389793 
C 179.433791 139.340504 184.481677 140.344591 189.57913 140.344591 
C 194.676584 140.344591 199.72447 139.340504 204.433903 137.389793 
C 209.143336 135.439082 213.422727 132.579684 217.027171 128.975241 
C 220.631615 125.370797 223.491013 121.091405 225.441724 116.381973 
C 227.392435 111.67254 228.396522 106.624653 228.396522 101.5272 
M 189.57913 101.5272 
C 189.57913 101.5272 189.57913 101.5272 189.57913 101.5272 
C 189.57913 101.5272 189.57913 101.5272 189.57913 101.5272 
C 189.57913 101.5272 189.57913 101.5272 189.57913 101.5272 
C 189.57913 101.5272 189.57913 101.5272 189.57913 101.5272 
C 189.57913 101.5272 189.57913 101.5272 189.57913 101.5272 
C 189.57913 101.5272 189.57913 101.5272 189.57913 101.5272 
C 189.57913 101.5272 189.57913 101.5272 189.57913 101.5272 
C 189.57913 101.5272 189.57913 101.5272 189.57913 101.5272 
C 189.57913 101.5272 189.57913 101.5272 189.57913 101.5272 
C 189.57913 101.5272 189.57913 101.5272 189.57913 101.5272 
C 189.57913 101.5272 189.57913 101.5272 189.57913 101.5272 
C 189.57913 101.5272 189.57913 101.5272 189.57913 101.5272 
C 189.57913 101.5272 189.57913 101.5272 189.57913 101.5272 
C 189.57913 101.5272 189.57913 101.5272 189.57913 101.5272 
C 189.57913 101.5272 189.57913 101.5272 189.57913 101.5272 
C 189.57913 101.5272 189.57913 101.5272 189.57913 101.5272 
M 228.396522 101.5272 
z
" style="fill:#ffffff;"/>
   </g>
   <g id="matplotlib.axis_3">
    <g id="xtick_9">
     <g id="line2d_12">
      <path clip-path="url(#p0e4a3e61dd)" d="M 189.57913 101.5272 
L 228.396522 101.5272 
" style="fill:none;stroke:#b0b0b0;stroke-linecap:square;stroke-width:0.8;"/>
     </g>
    </g>
    <g id="xtick_10">
     <g id="line2d_13">
      <path clip-path="url(#p0e4a3e61dd)" d="M 189.57913 101.5272 
L 217.027171 74.079159 
" style="fill:none;stroke:#b0b0b0;stroke-linecap:square;stroke-width:0.8;"/>
     </g>
    </g>
    <g id="xtick_11">
     <g id="line2d_14">
      <path clip-path="url(#p0e4a3e61dd)" d="M 189.57913 101.5272 
L 189.57913 62.709809 
" style="fill:none;stroke:#b0b0b0;stroke-linecap:square;stroke-width:0.8;"/>
     </g>
    </g>
    <g id="xtick_12">
     <g id="line2d_15">
      <path clip-path="url(#p0e4a3e61dd)" d="M 189.57913 101.5272 
L 162.13109 74.079159 
" style="fill:none;stroke:#b0b0b0;stroke-linecap:square;stroke-width:0.8;"/>
     </g>
    </g>
    <g id="xtick_13">
     <g id="line2d_16">
      <path clip-path="url(#p0e4a3e61dd)" d="M 189.57913 101.5272 
L 150.761739 101.5272 
" style="fill:none;stroke:#b0b0b0;stroke-linecap:square;stroke-width:0.8;"/>
     </g>
    </g>
    <g id="xtick_14">
     <g id="line2d_17">
      <path clip-path="url(#p0e4a3e61dd)" d="M 189.57913 101.5272 
L 162.13109 128.975241 
" style="fill:none;stroke:#b0b0b0;stroke-linecap:square;stroke-width:0.8;"/>
     </g>
    </g>
    <g id="xtick_15">
     <g id="line2d_18">
      <path clip-path="url(#p0e4a3e61dd)" d="M 189.57913 101.5272 
L 189.57913 140.344591 
" style="fill:none;stroke:#b0b0b0;stroke-linecap:square;stroke-width:0.8;"/>
     </g>
    </g>
    <g id="xtick_16">
     <g id="line2d_19">
      <path clip-path="url(#p0e4a3e61dd)" d="M 189.57913 101.5272 
L 217.027171 128.975241 
" style="fill:none;stroke:#b0b0b0;stroke-linecap:square;stroke-width:0.8;"/>
     </g>
    </g>
   </g>
   <g id="matplotlib.axis_4">
    <g id="ytick_3">
     <g id="line2d_20">
      <path clip-path="url(#p0e4a3e61dd)" d="M 204.982741 101.5272 
L 204.898359 99.917084 
L 204.646136 98.324609 
L 204.228835 96.767222 
L 203.651029 95.261987 
L 202.919049 93.825394 
L 202.040914 92.473185 
L 201.026244 91.220172 
L 199.886158 90.080086 
L 198.633146 89.065417 
L 197.280936 88.187282 
L 195.844343 87.455301 
L 194.339108 86.877495 
L 192.781721 86.460195 
L 191.189246 86.207972 
L 189.57913 86.123589 
L 187.969015 86.207972 
L 186.37654 86.460195 
L 184.819153 86.877495 
L 183.313917 87.455301 
L 181.877325 88.187282 
L 180.525115 89.065417 
L 179.272103 90.080086 
L 178.132017 91.220172 
L 177.117347 92.473185 
L 176.239212 93.825394 
L 175.507232 95.261987 
L 174.929426 96.767222 
L 174.512125 98.324609 
L 174.259902 99.917084 
L 174.175519 101.5272 
L 174.259902 103.137316 
L 174.512125 104.729791 
L 174.929426 106.287178 
L 175.507232 107.792413 
L 176.239212 109.229006 
L 177.117347 110.581215 
L 178.132017 111.834228 
L 179.272103 112.974314 
L 180.525115 113.988983 
L 181.877325 114.867118 
L 183.313917 115.599099 
L 184.819153 116.176905 
L 186.37654 116.594205 
L 187.969015 116.846428 
L 189.57913 116.930811 
L 191.189246 116.846428 
L 192.781721 116.594205 
L 194.339108 116.176905 
L 195.844343 115.599099 
L 197.280936 114.867118 
L 198.633146 113.988983 
L 199.886158 112.974314 
L 201.026244 111.834228 
L 202.040914 110.581215 
L 202.919049 109.229006 
L 203.651029 107.792413 
L 204.228835 106.287178 
L 204.646136 104.729791 
L 204.898359 103.137316 
L 204.982741 101.5272 
L 204.982741 101.5272 
" style="fill:none;stroke:#b0b0b0;stroke-linecap:square;stroke-width:0.8;"/>
     </g>
     <g id="text_3">
      <!-- 10 -->
      <defs>
       <path d="M 12.40625 8.296875 
L 28.515625 8.296875 
L 28.515625 63.921875 
L 10.984375 60.40625 
L 10.984375 69.390625 
L 28.421875 72.90625 
L 38.28125 72.90625 
L 38.28125 8.296875 
L 54.390625 8.296875 
L 54.390625 0 
L 12.40625 0 
z
" id="DejaVuSans-31"/>
      </defs>
      <g transform="translate(203.810211 93.552806)scale(0.1 -0.1)">
       <use xlink:href="#DejaVuSans-31"/>
       <use x="63.623047" xlink:href="#DejaVuSans-30"/>
      </g>
     </g>
    </g>
    <g id="ytick_4">
     <g id="line2d_21">
      <path clip-path="url(#p0e4a3e61dd)" d="M 220.386353 101.5272 
L 220.311308 99.378197 
L 220.086539 97.239663 
L 219.713141 95.122018 
L 219.192933 93.035579 
L 218.52845 90.990509 
L 217.722928 88.996774 
L 216.780293 87.064085 
L 215.705136 85.20186 
L 214.502697 83.419169 
L 213.178832 81.724699 
L 211.739991 80.126705 
L 210.193186 78.632972 
L 208.54595 77.250778 
L 206.80631 75.986855 
L 204.982741 74.847363 
L 203.084128 73.837852 
L 201.119719 72.963241 
L 199.099086 72.227791 
L 197.032072 71.635084 
L 194.928748 71.188009 
L 192.799362 70.888743 
L 190.654287 70.738745 
L 188.503974 70.738745 
L 186.358899 70.888743 
L 184.229512 71.188009 
L 182.126189 71.635084 
L 180.059175 72.227791 
L 178.038542 72.963241 
L 176.074133 73.837852 
L 174.175519 74.847363 
L 172.35195 75.986855 
L 170.612311 77.250778 
L 168.965075 78.632972 
L 167.418269 80.126705 
L 165.979429 81.724699 
L 164.655564 83.419169 
L 163.453124 85.20186 
L 162.377968 87.064085 
L 161.435333 88.996774 
L 160.629811 90.990509 
L 159.965328 93.035579 
L 159.44512 95.122018 
L 159.071722 97.239663 
L 158.846953 99.378197 
L 158.771908 101.5272 
L 158.846953 103.676203 
L 159.071722 105.814737 
L 159.44512 107.932382 
L 159.965328 110.018821 
L 160.629811 112.063891 
L 161.435333 114.057626 
L 162.377968 115.990315 
L 163.453124 117.85254 
L 164.655564 119.635231 
L 165.979429 121.329701 
L 167.418269 122.927695 
L 168.965075 124.421428 
L 170.612311 125.803622 
L 172.35195 127.067545 
L 174.175519 128.207037 
L 176.074133 129.216548 
L 178.038542 130.091159 
L 180.059175 130.826609 
L 182.126189 131.419316 
L 184.229512 131.866391 
L 186.358899 132.165657 
L 188.503974 132.315655 
L 190.654287 132.315655 
L 192.799362 132.165657 
L 194.928748 131.866391 
L 197.032072 131.419316 
L 199.099086 130.826609 
L 201.119719 130.091159 
L 203.084128 129.216548 
L 204.982741 128.207037 
L 206.80631 127.067545 
L 208.54595 125.803622 
L 210.193186 124.421428 
L 211.739991 122.927695 
L 213.178832 121.329701 
L 214.502697 119.635231 
L 215.705136 117.85254 
L 216.780293 115.990315 
L 217.722928 114.057626 
L 218.52845 112.063891 
L 219.192933 110.018821 
L 219.713141 107.932382 
L 220.086539 105.814737 
L 220.311308 103.676203 
L 220.386353 101.5272 
L 220.386353 101.5272 
" style="fill:none;stroke:#b0b0b0;stroke-linecap:square;stroke-width:0.8;"/>
     </g>
     <g id="text_4">
      <!-- 20 -->
      <g transform="translate(218.041292 87.658099)scale(0.1 -0.1)">
       <use xlink:href="#DejaVuSans-32"/>
       <use x="63.623047" xlink:href="#DejaVuSans-30"/>
      </g>
     </g>
    </g>
   </g>
   <g id="line2d_22">
    <path clip-path="url(#p0e4a3e61dd)" d="M 211.873633 100.338954 
L 212.614466 97.815868 
L 212.959693 95.151069 
L 212.801736 92.446959 
L 212.078222 89.836054 
L 210.812668 87.441391 
L 209.079994 85.359672 
L 206.986207 83.650403 
L 204.65527 82.324466 
L 202.197881 81.359539 
L 199.702332 80.709077 
L 197.24391 80.272972 
L 194.858161 79.918979 
L 192.529008 79.498432 
L 190.182505 78.869453 
L 187.692645 77.958292 
L 184.915453 76.793254 
L 181.743273 75.540252 
L 178.152913 74.452981 
L 174.239402 73.83428 
L 170.188434 73.921409 
L 166.227557 74.840172 
L 162.58502 76.6074 
L 159.465089 79.154245 
L 157.039626 82.353483 
L 155.443551 86.037744 
L 154.740673 90.002052 
L 154.88003 94.02284 
L 155.683404 97.903778 
L 156.891938 101.5272 
L 158.278597 104.873199 
L 159.733565 107.981888 
L 161.271835 110.89173 
L 162.966657 113.602951 
L 164.899482 116.069541 
L 167.1025 118.226009 
L 169.564931 120.003447 
L 172.233633 121.350266 
L 175.045331 122.218412 
L 177.911942 122.590057 
L 180.735123 122.482919 
L 183.413117 121.976253 
L 185.873222 121.181595 
L 188.080243 120.25363 
L 190.053115 119.326128 
L 191.852101 118.501037 
L 193.563523 117.836185 
L 195.274348 117.319886 
L 197.038933 116.868107 
L 198.861423 116.362435 
L 200.686299 115.674588 
L 202.424196 114.718882 
L 203.995465 113.479312 
L 205.361431 111.996792 
L 206.552387 110.34697 
L 207.643252 108.590429 
L 208.716838 106.746259 
L 209.805041 104.785893 
L 210.886315 102.662824 
" style="fill:none;stroke:#1f77b4;stroke-linecap:square;stroke-width:1.5;"/>
   </g>
   <g id="patch_5">
    <path d="M 228.396522 101.5272 
C 228.396522 96.429747 227.392435 91.38186 225.441724 86.672427 
C 223.491013 81.962995 220.631615 77.683603 217.027171 74.079159 
C 213.422727 70.474716 209.143336 67.615318 204.433903 65.664607 
C 199.72447 63.713896 194.676584 62.709809 189.57913 62.709809 
C 184.481677 62.709809 179.433791 63.713896 174.724358 65.664607 
C 170.014925 67.615318 165.735533 70.474716 162.13109 74.079159 
C 158.526646 77.683603 155.667248 81.962995 153.716537 86.672427 
C 151.765826 91.38186 150.761739 96.429747 150.761739 101.5272 
C 150.761739 106.624653 151.765826 111.67254 153.716537 116.381973 
C 155.667248 121.091405 158.526646 125.370797 162.13109 128.975241 
C 165.735533 132.579684 170.014925 135.439082 174.724358 137.389793 
C 179.433791 139.340504 184.481677 140.344591 189.57913 140.344591 
C 194.676584 140.344591 199.72447 139.340504 204.433903 137.389793 
C 209.143336 135.439082 213.422727 132.579684 217.027171 128.975241 
C 220.631615 125.370797 223.491013 121.091405 225.441724 116.381973 
C 227.392435 111.67254 228.396522 106.624653 228.396522 101.5272 
" style="fill:none;stroke:#000000;stroke-linecap:square;stroke-linejoin:miter;stroke-width:0.8;"/>
   </g>
  </g>
  <g id="axes_3">
   <g id="patch_6">
    <path d="M 321.558261 101.5272 
C 321.558261 96.429747 320.554174 91.38186 318.603463 86.672427 
C 316.652752 81.962995 313.793354 77.683603 310.18891 74.079159 
C 306.584467 70.474716 302.305075 67.615318 297.595642 65.664607 
C 292.886209 63.713896 287.838323 62.709809 282.74087 62.709809 
C 277.643416 62.709809 272.59553 63.713896 267.886097 65.664607 
C 263.176664 67.615318 258.897273 70.474716 255.292829 74.079159 
C 251.688385 77.683603 248.828987 81.962995 246.878276 86.672427 
C 244.927565 91.38186 243.923478 96.429747 243.923478 101.5272 
C 243.923478 106.624653 244.927565 111.67254 246.878276 116.381973 
C 248.828987 121.091405 251.688385 125.370797 255.292829 128.975241 
C 258.897273 132.579684 263.176664 135.439082 267.886097 137.389793 
C 272.59553 139.340504 277.643416 140.344591 282.74087 140.344591 
C 287.838323 140.344591 292.886209 139.340504 297.595642 137.389793 
C 302.305075 135.439082 306.584467 132.579684 310.18891 128.975241 
C 313.793354 125.370797 316.652752 121.091405 318.603463 116.381973 
C 320.554174 111.67254 321.558261 106.624653 321.558261 101.5272 
M 282.74087 101.5272 
C 282.74087 101.5272 282.74087 101.5272 282.74087 101.5272 
C 282.74087 101.5272 282.74087 101.5272 282.74087 101.5272 
C 282.74087 101.5272 282.74087 101.5272 282.74087 101.5272 
C 282.74087 101.5272 282.74087 101.5272 282.74087 101.5272 
C 282.74087 101.5272 282.74087 101.5272 282.74087 101.5272 
C 282.74087 101.5272 282.74087 101.5272 282.74087 101.5272 
C 282.74087 101.5272 282.74087 101.5272 282.74087 101.5272 
C 282.74087 101.5272 282.74087 101.5272 282.74087 101.5272 
C 282.74087 101.5272 282.74087 101.5272 282.74087 101.5272 
C 282.74087 101.5272 282.74087 101.5272 282.74087 101.5272 
C 282.74087 101.5272 282.74087 101.5272 282.74087 101.5272 
C 282.74087 101.5272 282.74087 101.5272 282.74087 101.5272 
C 282.74087 101.5272 282.74087 101.5272 282.74087 101.5272 
C 282.74087 101.5272 282.74087 101.5272 282.74087 101.5272 
C 282.74087 101.5272 282.74087 101.5272 282.74087 101.5272 
C 282.74087 101.5272 282.74087 101.5272 282.74087 101.5272 
M 321.558261 101.5272 
z
" style="fill:#ffffff;"/>
   </g>
   <g id="matplotlib.axis_5">
    <g id="xtick_17">
     <g id="line2d_23">
      <path clip-path="url(#pf985492bb7)" d="M 282.74087 101.5272 
L 321.558261 101.5272 
" style="fill:none;stroke:#b0b0b0;stroke-linecap:square;stroke-width:0.8;"/>
     </g>
    </g>
    <g id="xtick_18">
     <g id="line2d_24">
      <path clip-path="url(#pf985492bb7)" d="M 282.74087 101.5272 
L 310.18891 74.079159 
" style="fill:none;stroke:#b0b0b0;stroke-linecap:square;stroke-width:0.8;"/>
     </g>
    </g>
    <g id="xtick_19">
     <g id="line2d_25">
      <path clip-path="url(#pf985492bb7)" d="M 282.74087 101.5272 
L 282.74087 62.709809 
" style="fill:none;stroke:#b0b0b0;stroke-linecap:square;stroke-width:0.8;"/>
     </g>
    </g>
    <g id="xtick_20">
     <g id="line2d_26">
      <path clip-path="url(#pf985492bb7)" d="M 282.74087 101.5272 
L 255.292829 74.079159 
" style="fill:none;stroke:#b0b0b0;stroke-linecap:square;stroke-width:0.8;"/>
     </g>
    </g>
    <g id="xtick_21">
     <g id="line2d_27">
      <path clip-path="url(#pf985492bb7)" d="M 282.74087 101.5272 
L 243.923478 101.5272 
" style="fill:none;stroke:#b0b0b0;stroke-linecap:square;stroke-width:0.8;"/>
     </g>
    </g>
    <g id="xtick_22">
     <g id="line2d_28">
      <path clip-path="url(#pf985492bb7)" d="M 282.74087 101.5272 
L 255.292829 128.975241 
" style="fill:none;stroke:#b0b0b0;stroke-linecap:square;stroke-width:0.8;"/>
     </g>
    </g>
    <g id="xtick_23">
     <g id="line2d_29">
      <path clip-path="url(#pf985492bb7)" d="M 282.74087 101.5272 
L 282.74087 140.344591 
" style="fill:none;stroke:#b0b0b0;stroke-linecap:square;stroke-width:0.8;"/>
     </g>
    </g>
    <g id="xtick_24">
     <g id="line2d_30">
      <path clip-path="url(#pf985492bb7)" d="M 282.74087 101.5272 
L 310.18891 128.975241 
" style="fill:none;stroke:#b0b0b0;stroke-linecap:square;stroke-width:0.8;"/>
     </g>
    </g>
   </g>
   <g id="matplotlib.axis_6">
    <g id="ytick_5">
     <g id="line2d_31">
      <path clip-path="url(#pf985492bb7)" d="M 303.501556 101.5272 
L 303.387827 99.357117 
L 303.047885 97.210811 
L 302.485456 95.111795 
L 301.706701 93.083068 
L 300.720152 91.146857 
L 299.536618 89.324375 
L 298.169066 87.635589 
L 296.63248 86.099003 
L 294.943695 84.731452 
L 293.121213 83.547918 
L 291.185002 82.561369 
L 289.156275 81.782614 
L 287.057259 81.220184 
L 284.910952 80.880242 
L 282.74087 80.766513 
L 280.570787 80.880242 
L 278.42448 81.220184 
L 276.325465 81.782614 
L 274.296738 82.561369 
L 272.360526 83.547918 
L 270.538044 84.731452 
L 268.849259 86.099003 
L 267.312673 87.635589 
L 265.945121 89.324375 
L 264.761587 91.146857 
L 263.775039 93.083068 
L 262.996283 95.111795 
L 262.433854 97.210811 
L 262.093912 99.357117 
L 261.980183 101.5272 
L 262.093912 103.697283 
L 262.433854 105.843589 
L 262.996283 107.942605 
L 263.775039 109.971332 
L 264.761587 111.907543 
L 265.945121 113.730025 
L 267.312673 115.418811 
L 268.849259 116.955397 
L 270.538044 118.322948 
L 272.360526 119.506482 
L 274.296738 120.493031 
L 276.325465 121.271786 
L 278.42448 121.834216 
L 280.570787 122.174158 
L 282.74087 122.287887 
L 284.910952 122.174158 
L 287.057259 121.834216 
L 289.156275 121.271786 
L 291.185002 120.493031 
L 293.121213 119.506482 
L 294.943695 118.322948 
L 296.63248 116.955397 
L 298.169066 115.418811 
L 299.536618 113.730025 
L 300.720152 111.907543 
L 301.706701 109.971332 
L 302.485456 107.942605 
L 303.047885 105.843589 
L 303.387827 103.697283 
L 303.501556 101.5272 
L 303.501556 101.5272 
" style="fill:none;stroke:#b0b0b0;stroke-linecap:square;stroke-width:0.8;"/>
     </g>
     <g id="text_5">
      <!-- 10 -->
      <g transform="translate(301.921243 91.502742)scale(0.1 -0.1)">
       <use xlink:href="#DejaVuSans-31"/>
       <use x="63.623047" xlink:href="#DejaVuSans-30"/>
      </g>
     </g>
    </g>
   </g>
   <g id="line2d_32">
    <path clip-path="url(#pf985492bb7)" d="M 301.653345 100.519208 
L 301.712482 98.470593 
L 301.664692 96.36647 
L 301.544476 94.174826 
L 301.36164 91.851337 
L 301.081157 89.360702 
L 300.622258 86.702326 
L 299.902725 83.902241 
L 298.820436 81.046384 
L 297.305025 78.250336 
L 295.339645 75.618117 
L 292.939912 73.245528 
L 290.155283 71.178392 
L 287.036688 69.447365 
L 283.631132 68.096347 
L 279.991873 67.182462 
L 276.184629 66.75599 
L 272.284836 66.850664 
L 268.371458 67.479136 
L 264.546878 68.681459 
L 260.980932 70.548411 
L 257.898681 73.136643 
L 255.528341 76.405766 
L 253.976035 80.156626 
L 253.119887 84.073206 
L 252.62333 87.860981 
L 252.077519 91.383248 
L 251.231151 94.712606 
L 250.078311 98.035602 
L 248.913367 101.5272 
L 248.160204 105.223842 
L 248.194395 108.998552 
L 249.184531 112.628202 
L 251.044532 115.909819 
L 253.493232 118.761203 
L 256.201652 121.244272 
L 258.923386 123.514475 
L 261.584132 125.705889 
L 264.246806 127.856488 
L 267.024434 129.90019 
L 270.004113 131.706718 
L 273.202995 133.158742 
L 276.575209 134.226959 
L 280.068241 134.917828 
L 283.638463 135.233353 
L 287.237901 135.109628 
L 290.776592 134.419163 
L 294.092287 133.004374 
L 296.962673 130.774002 
L 299.163377 127.774139 
L 300.555963 124.218587 
L 301.165816 120.449334 
L 301.183347 116.817255 
L 300.920347 113.587021 
L 300.680773 110.849266 
L 300.646123 108.52831 
L 300.839115 106.462786 
L 301.160221 104.494829 
L 301.465973 102.525205 
" style="fill:none;stroke:#1f77b4;stroke-linecap:square;stroke-width:1.5;"/>
   </g>
   <g id="patch_7">
    <path d="M 321.558261 101.5272 
C 321.558261 96.429747 320.554174 91.38186 318.603463 86.672427 
C 316.652752 81.962995 313.793354 77.683603 310.18891 74.079159 
C 306.584467 70.474716 302.305075 67.615318 297.595642 65.664607 
C 292.886209 63.713896 287.838323 62.709809 282.74087 62.709809 
C 277.643416 62.709809 272.59553 63.713896 267.886097 65.664607 
C 263.176664 67.615318 258.897273 70.474716 255.292829 74.079159 
C 251.688385 77.683603 248.828987 81.962995 246.878276 86.672427 
C 244.927565 91.38186 243.923478 96.429747 243.923478 101.5272 
C 243.923478 106.624653 244.927565 111.67254 246.878276 116.381973 
C 248.828987 121.091405 251.688385 125.370797 255.292829 128.975241 
C 258.897273 132.579684 263.176664 135.439082 267.886097 137.389793 
C 272.59553 139.340504 277.643416 140.344591 282.74087 140.344591 
C 287.838323 140.344591 292.886209 139.340504 297.595642 137.389793 
C 302.305075 135.439082 306.584467 132.579684 310.18891 128.975241 
C 313.793354 125.370797 316.652752 121.091405 318.603463 116.381973 
C 320.554174 111.67254 321.558261 106.624653 321.558261 101.5272 
" style="fill:none;stroke:#000000;stroke-linecap:square;stroke-linejoin:miter;stroke-width:0.8;"/>
   </g>
  </g>
  <g id="axes_4">
   <g id="patch_8">
    <path d="M 414.72 101.5272 
C 414.72 96.429747 413.715913 91.38186 411.765202 86.672427 
C 409.814491 81.962995 406.955093 77.683603 403.350649 74.079159 
C 399.746206 70.474716 395.466814 67.615318 390.757381 65.664607 
C 386.047949 63.713896 381.000062 62.709809 375.902609 62.709809 
C 370.805156 62.709809 365.757269 63.713896 361.047836 65.664607 
C 356.338404 67.615318 352.059012 70.474716 348.454568 74.079159 
C 344.850124 77.683603 341.990726 81.962995 340.040015 86.672427 
C 338.089305 91.38186 337.085217 96.429747 337.085217 101.5272 
C 337.085217 106.624653 338.089305 111.67254 340.040015 116.381973 
C 341.990726 121.091405 344.850124 125.370797 348.454568 128.975241 
C 352.059012 132.579684 356.338404 135.439082 361.047836 137.389793 
C 365.757269 139.340504 370.805156 140.344591 375.902609 140.344591 
C 381.000062 140.344591 386.047949 139.340504 390.757381 137.389793 
C 395.466814 135.439082 399.746206 132.579684 403.350649 128.975241 
C 406.955093 125.370797 409.814491 121.091405 411.765202 116.381973 
C 413.715913 111.67254 414.72 106.624653 414.72 101.5272 
M 375.902609 101.5272 
C 375.902609 101.5272 375.902609 101.5272 375.902609 101.5272 
C 375.902609 101.5272 375.902609 101.5272 375.902609 101.5272 
C 375.902609 101.5272 375.902609 101.5272 375.902609 101.5272 
C 375.902609 101.5272 375.902609 101.5272 375.902609 101.5272 
C 375.902609 101.5272 375.902609 101.5272 375.902609 101.5272 
C 375.902609 101.5272 375.902609 101.5272 375.902609 101.5272 
C 375.902609 101.5272 375.902609 101.5272 375.902609 101.5272 
C 375.902609 101.5272 375.902609 101.5272 375.902609 101.5272 
C 375.902609 101.5272 375.902609 101.5272 375.902609 101.5272 
C 375.902609 101.5272 375.902609 101.5272 375.902609 101.5272 
C 375.902609 101.5272 375.902609 101.5272 375.902609 101.5272 
C 375.902609 101.5272 375.902609 101.5272 375.902609 101.5272 
C 375.902609 101.5272 375.902609 101.5272 375.902609 101.5272 
C 375.902609 101.5272 375.902609 101.5272 375.902609 101.5272 
C 375.902609 101.5272 375.902609 101.5272 375.902609 101.5272 
C 375.902609 101.5272 375.902609 101.5272 375.902609 101.5272 
M 414.72 101.5272 
z
" style="fill:#ffffff;"/>
   </g>
   <g id="matplotlib.axis_7">
    <g id="xtick_25">
     <g id="line2d_33">
      <path clip-path="url(#pe50fc63913)" d="M 375.902609 101.5272 
L 414.72 101.5272 
" style="fill:none;stroke:#b0b0b0;stroke-linecap:square;stroke-width:0.8;"/>
     </g>
    </g>
    <g id="xtick_26">
     <g id="line2d_34">
      <path clip-path="url(#pe50fc63913)" d="M 375.902609 101.5272 
L 403.350649 74.079159 
" style="fill:none;stroke:#b0b0b0;stroke-linecap:square;stroke-width:0.8;"/>
     </g>
    </g>
    <g id="xtick_27">
     <g id="line2d_35">
      <path clip-path="url(#pe50fc63913)" d="M 375.902609 101.5272 
L 375.902609 62.709809 
" style="fill:none;stroke:#b0b0b0;stroke-linecap:square;stroke-width:0.8;"/>
     </g>
    </g>
    <g id="xtick_28">
     <g id="line2d_36">
      <path clip-path="url(#pe50fc63913)" d="M 375.902609 101.5272 
L 348.454568 74.079159 
" style="fill:none;stroke:#b0b0b0;stroke-linecap:square;stroke-width:0.8;"/>
     </g>
    </g>
    <g id="xtick_29">
     <g id="line2d_37">
      <path clip-path="url(#pe50fc63913)" d="M 375.902609 101.5272 
L 337.085217 101.5272 
" style="fill:none;stroke:#b0b0b0;stroke-linecap:square;stroke-width:0.8;"/>
     </g>
    </g>
    <g id="xtick_30">
     <g id="line2d_38">
      <path clip-path="url(#pe50fc63913)" d="M 375.902609 101.5272 
L 348.454568 128.975241 
" style="fill:none;stroke:#b0b0b0;stroke-linecap:square;stroke-width:0.8;"/>
     </g>
    </g>
    <g id="xtick_31">
     <g id="line2d_39">
      <path clip-path="url(#pe50fc63913)" d="M 375.902609 101.5272 
L 375.902609 140.344591 
" style="fill:none;stroke:#b0b0b0;stroke-linecap:square;stroke-width:0.8;"/>
     </g>
    </g>
    <g id="xtick_32">
     <g id="line2d_40">
      <path clip-path="url(#pe50fc63913)" d="M 375.902609 101.5272 
L 403.350649 128.975241 
" style="fill:none;stroke:#b0b0b0;stroke-linecap:square;stroke-width:0.8;"/>
     </g>
    </g>
   </g>
   <g id="matplotlib.axis_8">
    <g id="ytick_6">
     <g id="line2d_41">
      <path clip-path="url(#pe50fc63913)" d="M 397.622692 101.5272 
L 397.503707 99.256833 
L 397.148056 97.011341 
L 396.559635 94.815325 
L 395.744892 92.692846 
L 394.712752 90.667158 
L 393.474525 88.760455 
L 392.043776 86.993628 
L 390.436181 85.386033 
L 388.669353 83.955284 
L 386.76265 82.717056 
L 384.736962 81.684917 
L 382.614484 80.870173 
L 380.418468 80.281753 
L 378.172976 79.926102 
L 375.902609 79.807117 
L 373.632242 79.926102 
L 371.386749 80.281753 
L 369.190734 80.870173 
L 367.068255 81.684917 
L 365.042567 82.717056 
L 363.135864 83.955284 
L 361.369036 85.386033 
L 359.761441 86.993628 
L 358.330692 88.760455 
L 357.092465 90.667158 
L 356.060325 92.692846 
L 355.245582 94.815325 
L 354.657161 97.011341 
L 354.30151 99.256833 
L 354.182526 101.5272 
L 354.30151 103.797567 
L 354.657161 106.043059 
L 355.245582 108.239075 
L 356.060325 110.361554 
L 357.092465 112.387242 
L 358.330692 114.293945 
L 359.761441 116.060772 
L 361.369036 117.668367 
L 363.135864 119.099116 
L 365.042567 120.337344 
L 367.068255 121.369483 
L 369.190734 122.184227 
L 371.386749 122.772647 
L 373.632242 123.128298 
L 375.902609 123.247283 
L 378.172976 123.128298 
L 380.418468 122.772647 
L 382.614484 122.184227 
L 384.736962 121.369483 
L 386.76265 120.337344 
L 388.669353 119.099116 
L 390.436181 117.668367 
L 392.043776 116.060772 
L 393.474525 114.293945 
L 394.712752 112.387242 
L 395.744892 110.361554 
L 396.559635 108.239075 
L 397.148056 106.043059 
L 397.503707 103.797567 
L 397.622692 101.5272 
L 397.622692 101.5272 
" style="fill:none;stroke:#b0b0b0;stroke-linecap:square;stroke-width:0.8;"/>
     </g>
     <g id="text_6">
      <!-- 10 -->
      <g transform="translate(395.969349 91.135597)scale(0.1 -0.1)">
       <use xlink:href="#DejaVuSans-31"/>
       <use x="63.623047" xlink:href="#DejaVuSans-30"/>
      </g>
     </g>
    </g>
   </g>
   <g id="line2d_42">
    <path clip-path="url(#pe50fc63913)" d="M 404.12938 100.022778 
L 403.450764 97.088786 
L 402.81764 94.187182 
L 402.039847 91.307312 
L 400.969811 88.501593 
L 399.558658 85.834355 
L 397.855897 83.326446 
L 395.958302 80.930315 
L 393.932269 78.562517 
L 391.756579 76.188914 
L 389.342299 73.888795 
L 386.601637 71.859083 
L 383.520141 70.346982 
L 380.183404 69.559555 
L 376.753003 69.593469 
L 373.414178 70.437854 
L 370.333512 71.991337 
L 367.63469 74.107359 
L 365.370281 76.571037 
L 363.502682 79.141525 
L 361.902486 81.595762 
L 360.410201 83.821913 
L 358.90939 85.839793 
L 357.39457 87.77682 
L 356.007917 89.804367 
L 354.951241 92.020248 
L 354.382856 94.408104 
L 354.342855 96.864481 
L 354.741653 99.265113 
L 355.397292 101.5272 
L 356.10152 103.643918 
L 356.676743 105.68517 
L 357.016688 107.774981 
L 357.112825 110.053305 
L 357.067547 112.625652 
L 357.064656 115.522687 
L 357.305275 118.695457 
L 357.951248 122.042668 
L 359.109095 125.435481 
L 360.81718 128.761031 
L 363.087951 131.891305 
L 365.905543 134.681609 
L 369.225363 136.940165 
L 372.944007 138.490648 
L 376.906258 139.215925 
L 380.933653 139.09747 
L 384.867642 138.223036 
L 388.610253 136.765155 
L 392.139327 134.917627 
L 395.485144 132.824588 
L 398.665841 130.521115 
L 401.619293 127.937835 
L 404.17402 124.966103 
L 406.084509 121.549134 
L 407.157965 117.768341 
L 407.357635 113.82639 
L 406.848764 109.966549 
L 405.944767 106.367435 
L 404.97238 103.076552 
" style="fill:none;stroke:#1f77b4;stroke-linecap:square;stroke-width:1.5;"/>
   </g>
   <g id="patch_9">
    <path d="M 414.72 101.5272 
C 414.72 96.429747 413.715913 91.38186 411.765202 86.672427 
C 409.814491 81.962995 406.955093 77.683603 403.350649 74.079159 
C 399.746206 70.474716 395.466814 67.615318 390.757381 65.664607 
C 386.047949 63.713896 381.000062 62.709809 375.902609 62.709809 
C 370.805156 62.709809 365.757269 63.713896 361.047836 65.664607 
C 356.338404 67.615318 352.059012 70.474716 348.454568 74.079159 
C 344.850124 77.683603 341.990726 81.962995 340.040015 86.672427 
C 338.089305 91.38186 337.085217 96.429747 337.085217 101.5272 
C 337.085217 106.624653 338.089305 111.67254 340.040015 116.381973 
C 341.990726 121.091405 344.850124 125.370797 348.454568 128.975241 
C 352.059012 132.579684 356.338404 135.439082 361.047836 137.389793 
C 365.757269 139.340504 370.805156 140.344591 375.902609 140.344591 
C 381.000062 140.344591 386.047949 139.340504 390.757381 137.389793 
C 395.466814 135.439082 399.746206 132.579684 403.350649 128.975241 
C 406.955093 125.370797 409.814491 121.091405 411.765202 116.381973 
C 413.715913 111.67254 414.72 106.624653 414.72 101.5272 
" style="fill:none;stroke:#000000;stroke-linecap:square;stroke-linejoin:miter;stroke-width:0.8;"/>
   </g>
  </g>
  <g id="text_7">
   <!-- KA60-200627_OSN_Day5_Cylinder -->
   <defs>
    <path d="M 9.8125 72.90625 
L 19.671875 72.90625 
L 19.671875 42.09375 
L 52.390625 72.90625 
L 65.09375 72.90625 
L 28.90625 38.921875 
L 67.671875 0 
L 54.6875 0 
L 19.671875 35.109375 
L 19.671875 0 
L 9.8125 0 
z
" id="DejaVuSans-4b"/>
    <path d="M 34.1875 63.1875 
L 20.796875 26.90625 
L 47.609375 26.90625 
z
M 28.609375 72.90625 
L 39.796875 72.90625 
L 67.578125 0 
L 57.328125 0 
L 50.6875 18.703125 
L 17.828125 18.703125 
L 11.1875 0 
L 0.78125 0 
z
" id="DejaVuSans-41"/>
    <path d="M 33.015625 40.375 
Q 26.375 40.375 22.484375 35.828125 
Q 18.609375 31.296875 18.609375 23.390625 
Q 18.609375 15.53125 22.484375 10.953125 
Q 26.375 6.390625 33.015625 6.390625 
Q 39.65625 6.390625 43.53125 10.953125 
Q 47.40625 15.53125 47.40625 23.390625 
Q 47.40625 31.296875 43.53125 35.828125 
Q 39.65625 40.375 33.015625 40.375 
z
M 52.59375 71.296875 
L 52.59375 62.3125 
Q 48.875 64.0625 45.09375 64.984375 
Q 41.3125 65.921875 37.59375 65.921875 
Q 27.828125 65.921875 22.671875 59.328125 
Q 17.53125 52.734375 16.796875 39.40625 
Q 19.671875 43.65625 24.015625 45.921875 
Q 28.375 48.1875 33.59375 48.1875 
Q 44.578125 48.1875 50.953125 41.515625 
Q 57.328125 34.859375 57.328125 23.390625 
Q 57.328125 12.15625 50.6875 5.359375 
Q 44.046875 -1.421875 33.015625 -1.421875 
Q 20.359375 -1.421875 13.671875 8.265625 
Q 6.984375 17.96875 6.984375 36.375 
Q 6.984375 53.65625 15.1875 63.9375 
Q 23.390625 74.21875 37.203125 74.21875 
Q 40.921875 74.21875 44.703125 73.484375 
Q 48.484375 72.75 52.59375 71.296875 
z
" id="DejaVuSans-36"/>
    <path d="M 4.890625 31.390625 
L 31.203125 31.390625 
L 31.203125 23.390625 
L 4.890625 23.390625 
z
" id="DejaVuSans-2d"/>
    <path d="M 8.203125 72.90625 
L 55.078125 72.90625 
L 55.078125 68.703125 
L 28.609375 0 
L 18.3125 0 
L 43.21875 64.59375 
L 8.203125 64.59375 
z
" id="DejaVuSans-37"/>
    <path d="M 50.984375 -16.609375 
L 50.984375 -23.578125 
L -0.984375 -23.578125 
L -0.984375 -16.609375 
z
" id="DejaVuSans-5f"/>
    <path d="M 39.40625 66.21875 
Q 28.65625 66.21875 22.328125 58.203125 
Q 16.015625 50.203125 16.015625 36.375 
Q 16.015625 22.609375 22.328125 14.59375 
Q 28.65625 6.59375 39.40625 6.59375 
Q 50.140625 6.59375 56.421875 14.59375 
Q 62.703125 22.609375 62.703125 36.375 
Q 62.703125 50.203125 56.421875 58.203125 
Q 50.140625 66.21875 39.40625 66.21875 
z
M 39.40625 74.21875 
Q 54.734375 74.21875 63.90625 63.9375 
Q 73.09375 53.65625 73.09375 36.375 
Q 73.09375 19.140625 63.90625 8.859375 
Q 54.734375 -1.421875 39.40625 -1.421875 
Q 24.03125 -1.421875 14.8125 8.828125 
Q 5.609375 19.09375 5.609375 36.375 
Q 5.609375 53.65625 14.8125 63.9375 
Q 24.03125 74.21875 39.40625 74.21875 
z
" id="DejaVuSans-4f"/>
    <path d="M 53.515625 70.515625 
L 53.515625 60.890625 
Q 47.90625 63.578125 42.921875 64.890625 
Q 37.9375 66.21875 33.296875 66.21875 
Q 25.25 66.21875 20.875 63.09375 
Q 16.5 59.96875 16.5 54.203125 
Q 16.5 49.359375 19.40625 46.890625 
Q 22.3125 44.4375 30.421875 42.921875 
L 36.375 41.703125 
Q 47.40625 39.59375 52.65625 34.296875 
Q 57.90625 29 57.90625 20.125 
Q 57.90625 9.515625 50.796875 4.046875 
Q 43.703125 -1.421875 29.984375 -1.421875 
Q 24.8125 -1.421875 18.96875 -0.25 
Q 13.140625 0.921875 6.890625 3.21875 
L 6.890625 13.375 
Q 12.890625 10.015625 18.65625 8.296875 
Q 24.421875 6.59375 29.984375 6.59375 
Q 38.421875 6.59375 43.015625 9.90625 
Q 47.609375 13.234375 47.609375 19.390625 
Q 47.609375 24.75 44.3125 27.78125 
Q 41.015625 30.8125 33.5 32.328125 
L 27.484375 33.5 
Q 16.453125 35.6875 11.515625 40.375 
Q 6.59375 45.0625 6.59375 53.421875 
Q 6.59375 63.09375 13.40625 68.65625 
Q 20.21875 74.21875 32.171875 74.21875 
Q 37.3125 74.21875 42.625 73.28125 
Q 47.953125 72.359375 53.515625 70.515625 
z
" id="DejaVuSans-53"/>
    <path d="M 9.8125 72.90625 
L 23.09375 72.90625 
L 55.421875 11.921875 
L 55.421875 72.90625 
L 64.984375 72.90625 
L 64.984375 0 
L 51.703125 0 
L 19.390625 60.984375 
L 19.390625 0 
L 9.8125 0 
z
" id="DejaVuSans-4e"/>
    <path d="M 19.671875 64.796875 
L 19.671875 8.109375 
L 31.59375 8.109375 
Q 46.6875 8.109375 53.6875 14.9375 
Q 60.6875 21.78125 60.6875 36.53125 
Q 60.6875 51.171875 53.6875 57.984375 
Q 46.6875 64.796875 31.59375 64.796875 
z
M 9.8125 72.90625 
L 30.078125 72.90625 
Q 51.265625 72.90625 61.171875 64.09375 
Q 71.09375 55.28125 71.09375 36.53125 
Q 71.09375 17.671875 61.125 8.828125 
Q 51.171875 0 30.078125 0 
L 9.8125 0 
z
" id="DejaVuSans-44"/>
    <path d="M 34.28125 27.484375 
Q 23.390625 27.484375 19.1875 25 
Q 14.984375 22.515625 14.984375 16.5 
Q 14.984375 11.71875 18.140625 8.90625 
Q 21.296875 6.109375 26.703125 6.109375 
Q 34.1875 6.109375 38.703125 11.40625 
Q 43.21875 16.703125 43.21875 25.484375 
L 43.21875 27.484375 
z
M 52.203125 31.203125 
L 52.203125 0 
L 43.21875 0 
L 43.21875 8.296875 
Q 40.140625 3.328125 35.546875 0.953125 
Q 30.953125 -1.421875 24.3125 -1.421875 
Q 15.921875 -1.421875 10.953125 3.296875 
Q 6 8.015625 6 15.921875 
Q 6 25.140625 12.171875 29.828125 
Q 18.359375 34.515625 30.609375 34.515625 
L 43.21875 34.515625 
L 43.21875 35.40625 
Q 43.21875 41.609375 39.140625 45 
Q 35.0625 48.390625 27.6875 48.390625 
Q 23 48.390625 18.546875 47.265625 
Q 14.109375 46.140625 10.015625 43.890625 
L 10.015625 52.203125 
Q 14.9375 54.109375 19.578125 55.046875 
Q 24.21875 56 28.609375 56 
Q 40.484375 56 46.34375 49.84375 
Q 52.203125 43.703125 52.203125 31.203125 
z
" id="DejaVuSans-61"/>
    <path d="M 32.171875 -5.078125 
Q 28.375 -14.84375 24.75 -17.8125 
Q 21.140625 -20.796875 15.09375 -20.796875 
L 7.90625 -20.796875 
L 7.90625 -13.28125 
L 13.1875 -13.28125 
Q 16.890625 -13.28125 18.9375 -11.515625 
Q 21 -9.765625 23.484375 -3.21875 
L 25.09375 0.875 
L 2.984375 54.6875 
L 12.5 54.6875 
L 29.59375 11.921875 
L 46.6875 54.6875 
L 56.203125 54.6875 
z
" id="DejaVuSans-79"/>
    <path d="M 64.40625 67.28125 
L 64.40625 56.890625 
Q 59.421875 61.53125 53.78125 63.8125 
Q 48.140625 66.109375 41.796875 66.109375 
Q 29.296875 66.109375 22.65625 58.46875 
Q 16.015625 50.828125 16.015625 36.375 
Q 16.015625 21.96875 22.65625 14.328125 
Q 29.296875 6.6875 41.796875 6.6875 
Q 48.140625 6.6875 53.78125 8.984375 
Q 59.421875 11.28125 64.40625 15.921875 
L 64.40625 5.609375 
Q 59.234375 2.09375 53.4375 0.328125 
Q 47.65625 -1.421875 41.21875 -1.421875 
Q 24.65625 -1.421875 15.125 8.703125 
Q 5.609375 18.84375 5.609375 36.375 
Q 5.609375 53.953125 15.125 64.078125 
Q 24.65625 74.21875 41.21875 74.21875 
Q 47.75 74.21875 53.53125 72.484375 
Q 59.328125 70.75 64.40625 67.28125 
z
" id="DejaVuSans-43"/>
    <path d="M 9.421875 75.984375 
L 18.40625 75.984375 
L 18.40625 0 
L 9.421875 0 
z
" id="DejaVuSans-6c"/>
    <path d="M 9.421875 54.6875 
L 18.40625 54.6875 
L 18.40625 0 
L 9.421875 0 
z
M 9.421875 75.984375 
L 18.40625 75.984375 
L 18.40625 64.59375 
L 9.421875 64.59375 
z
" id="DejaVuSans-69"/>
    <path d="M 54.890625 33.015625 
L 54.890625 0 
L 45.90625 0 
L 45.90625 32.71875 
Q 45.90625 40.484375 42.875 44.328125 
Q 39.84375 48.1875 33.796875 48.1875 
Q 26.515625 48.1875 22.3125 43.546875 
Q 18.109375 38.921875 18.109375 30.90625 
L 18.109375 0 
L 9.078125 0 
L 9.078125 54.6875 
L 18.109375 54.6875 
L 18.109375 46.1875 
Q 21.34375 51.125 25.703125 53.5625 
Q 30.078125 56 35.796875 56 
Q 45.21875 56 50.046875 50.171875 
Q 54.890625 44.34375 54.890625 33.015625 
z
" id="DejaVuSans-6e"/>
    <path d="M 45.40625 46.390625 
L 45.40625 75.984375 
L 54.390625 75.984375 
L 54.390625 0 
L 45.40625 0 
L 45.40625 8.203125 
Q 42.578125 3.328125 38.25 0.953125 
Q 33.9375 -1.421875 27.875 -1.421875 
Q 17.96875 -1.421875 11.734375 6.484375 
Q 5.515625 14.40625 5.515625 27.296875 
Q 5.515625 40.1875 11.734375 48.09375 
Q 17.96875 56 27.875 56 
Q 33.9375 56 38.25 53.625 
Q 42.578125 51.265625 45.40625 46.390625 
z
M 14.796875 27.296875 
Q 14.796875 17.390625 18.875 11.75 
Q 22.953125 6.109375 30.078125 6.109375 
Q 37.203125 6.109375 41.296875 11.75 
Q 45.40625 17.390625 45.40625 27.296875 
Q 45.40625 37.203125 41.296875 42.84375 
Q 37.203125 48.484375 30.078125 48.484375 
Q 22.953125 48.484375 18.875 42.84375 
Q 14.796875 37.203125 14.796875 27.296875 
z
" id="DejaVuSans-64"/>
    <path d="M 56.203125 29.59375 
L 56.203125 25.203125 
L 14.890625 25.203125 
Q 15.484375 15.921875 20.484375 11.0625 
Q 25.484375 6.203125 34.421875 6.203125 
Q 39.59375 6.203125 44.453125 7.46875 
Q 49.3125 8.734375 54.109375 11.28125 
L 54.109375 2.78125 
Q 49.265625 0.734375 44.1875 -0.34375 
Q 39.109375 -1.421875 33.890625 -1.421875 
Q 20.796875 -1.421875 13.15625 6.1875 
Q 5.515625 13.8125 5.515625 26.8125 
Q 5.515625 40.234375 12.765625 48.109375 
Q 20.015625 56 32.328125 56 
Q 43.359375 56 49.78125 48.890625 
Q 56.203125 41.796875 56.203125 29.59375 
z
M 47.21875 32.234375 
Q 47.125 39.59375 43.09375 43.984375 
Q 39.0625 48.390625 32.421875 48.390625 
Q 24.90625 48.390625 20.390625 44.140625 
Q 15.875 39.890625 15.1875 32.171875 
z
" id="DejaVuSans-65"/>
    <path d="M 41.109375 46.296875 
Q 39.59375 47.171875 37.8125 47.578125 
Q 36.03125 48 33.890625 48 
Q 26.265625 48 22.1875 43.046875 
Q 18.109375 38.09375 18.109375 28.8125 
L 18.109375 0 
L 9.078125 0 
L 9.078125 54.6875 
L 18.109375 54.6875 
L 18.109375 46.1875 
Q 20.953125 51.171875 25.484375 53.578125 
Q 30.03125 56 36.53125 56 
Q 37.453125 56 38.578125 55.875 
Q 39.703125 55.765625 41.0625 55.515625 
z
" id="DejaVuSans-72"/>
   </defs>
   <g transform="translate(127.125938 16.001325)scale(0.12 -0.12)">
    <use xlink:href="#DejaVuSans-4b"/>
    <use x="65.560547" xlink:href="#DejaVuSans-41"/>
    <use x="133.96875" xlink:href="#DejaVuSans-36"/>
    <use x="197.591797" xlink:href="#DejaVuSans-30"/>
    <use x="261.214844" xlink:href="#DejaVuSans-2d"/>
    <use x="297.298828" xlink:href="#DejaVuSans-32"/>
    <use x="360.921875" xlink:href="#DejaVuSans-30"/>
    <use x="424.544922" xlink:href="#DejaVuSans-30"/>
    <use x="488.167969" xlink:href="#DejaVuSans-36"/>
    <use x="551.791016" xlink:href="#DejaVuSans-32"/>
    <use x="615.414062" xlink:href="#DejaVuSans-37"/>
    <use x="679.037109" xlink:href="#DejaVuSans-5f"/>
    <use x="729.037109" xlink:href="#DejaVuSans-4f"/>
    <use x="807.748047" xlink:href="#DejaVuSans-53"/>
    <use x="871.224609" xlink:href="#DejaVuSans-4e"/>
    <use x="946.029297" xlink:href="#DejaVuSans-5f"/>
    <use x="996.029297" xlink:href="#DejaVuSans-44"/>
    <use x="1073.03125" xlink:href="#DejaVuSans-61"/>
    <use x="1134.310547" xlink:href="#DejaVuSans-79"/>
    <use x="1193.490234" xlink:href="#DejaVuSans-35"/>
    <use x="1257.113281" xlink:href="#DejaVuSans-5f"/>
    <use x="1307.113281" xlink:href="#DejaVuSans-43"/>
    <use x="1376.9375" xlink:href="#DejaVuSans-79"/>
    <use x="1436.117188" xlink:href="#DejaVuSans-6c"/>
    <use x="1463.900391" xlink:href="#DejaVuSans-69"/>
    <use x="1491.683594" xlink:href="#DejaVuSans-6e"/>
    <use x="1555.0625" xlink:href="#DejaVuSans-64"/>
    <use x="1618.539062" xlink:href="#DejaVuSans-65"/>
    <use x="1680.0625" xlink:href="#DejaVuSans-72"/>
   </g>
  </g>
 </g>
 <defs>
  <clipPath id="p45ada4ed8f">
   <path d="M 135.234783 101.5272 
C 135.234783 96.429747 134.230695 91.38186 132.279985 86.672427 
C 130.329274 81.962995 127.469876 77.683603 123.865432 74.079159 
C 120.260988 70.474716 115.981596 67.615318 111.272164 65.664607 
C 106.562731 63.713896 101.514844 62.709809 96.417391 62.709809 
C 91.319938 62.709809 86.272051 63.713896 81.562619 65.664607 
C 76.853186 67.615318 72.573794 70.474716 68.969351 74.079159 
C 65.364907 77.683603 62.505509 81.962995 60.554798 86.672427 
C 58.604087 91.38186 57.6 96.429747 57.6 101.5272 
C 57.6 106.624653 58.604087 111.67254 60.554798 116.381973 
C 62.505509 121.091405 65.364907 125.370797 68.969351 128.975241 
C 72.573794 132.579684 76.853186 135.439082 81.562619 137.389793 
C 86.272051 139.340504 91.319938 140.344591 96.417391 140.344591 
C 101.514844 140.344591 106.562731 139.340504 111.272164 137.389793 
C 115.981596 135.439082 120.260988 132.579684 123.865432 128.975241 
C 127.469876 125.370797 130.329274 121.091405 132.279985 116.381973 
C 134.230695 111.67254 135.234783 106.624653 135.234783 101.5272 
M 96.417391 101.5272 
C 96.417391 101.5272 96.417391 101.5272 96.417391 101.5272 
C 96.417391 101.5272 96.417391 101.5272 96.417391 101.5272 
C 96.417391 101.5272 96.417391 101.5272 96.417391 101.5272 
C 96.417391 101.5272 96.417391 101.5272 96.417391 101.5272 
C 96.417391 101.5272 96.417391 101.5272 96.417391 101.5272 
C 96.417391 101.5272 96.417391 101.5272 96.417391 101.5272 
C 96.417391 101.5272 96.417391 101.5272 96.417391 101.5272 
C 96.417391 101.5272 96.417391 101.5272 96.417391 101.5272 
C 96.417391 101.5272 96.417391 101.5272 96.417391 101.5272 
C 96.417391 101.5272 96.417391 101.5272 96.417391 101.5272 
C 96.417391 101.5272 96.417391 101.5272 96.417391 101.5272 
C 96.417391 101.5272 96.417391 101.5272 96.417391 101.5272 
C 96.417391 101.5272 96.417391 101.5272 96.417391 101.5272 
C 96.417391 101.5272 96.417391 101.5272 96.417391 101.5272 
C 96.417391 101.5272 96.417391 101.5272 96.417391 101.5272 
C 96.417391 101.5272 96.417391 101.5272 96.417391 101.5272 
M 135.234783 101.5272 
z
"/>
  </clipPath>
  <clipPath id="p0e4a3e61dd">
   <path d="M 228.396522 101.5272 
C 228.396522 96.429747 227.392435 91.38186 225.441724 86.672427 
C 223.491013 81.962995 220.631615 77.683603 217.027171 74.079159 
C 213.422727 70.474716 209.143336 67.615318 204.433903 65.664607 
C 199.72447 63.713896 194.676584 62.709809 189.57913 62.709809 
C 184.481677 62.709809 179.433791 63.713896 174.724358 65.664607 
C 170.014925 67.615318 165.735533 70.474716 162.13109 74.079159 
C 158.526646 77.683603 155.667248 81.962995 153.716537 86.672427 
C 151.765826 91.38186 150.761739 96.429747 150.761739 101.5272 
C 150.761739 106.624653 151.765826 111.67254 153.716537 116.381973 
C 155.667248 121.091405 158.526646 125.370797 162.13109 128.975241 
C 165.735533 132.579684 170.014925 135.439082 174.724358 137.389793 
C 179.433791 139.340504 184.481677 140.344591 189.57913 140.344591 
C 194.676584 140.344591 199.72447 139.340504 204.433903 137.389793 
C 209.143336 135.439082 213.422727 132.579684 217.027171 128.975241 
C 220.631615 125.370797 223.491013 121.091405 225.441724 116.381973 
C 227.392435 111.67254 228.396522 106.624653 228.396522 101.5272 
M 189.57913 101.5272 
C 189.57913 101.5272 189.57913 101.5272 189.57913 101.5272 
C 189.57913 101.5272 189.57913 101.5272 189.57913 101.5272 
C 189.57913 101.5272 189.57913 101.5272 189.57913 101.5272 
C 189.57913 101.5272 189.57913 101.5272 189.57913 101.5272 
C 189.57913 101.5272 189.57913 101.5272 189.57913 101.5272 
C 189.57913 101.5272 189.57913 101.5272 189.57913 101.5272 
C 189.57913 101.5272 189.57913 101.5272 189.57913 101.5272 
C 189.57913 101.5272 189.57913 101.5272 189.57913 101.5272 
C 189.57913 101.5272 189.57913 101.5272 189.57913 101.5272 
C 189.57913 101.5272 189.57913 101.5272 189.57913 101.5272 
C 189.57913 101.5272 189.57913 101.5272 189.57913 101.5272 
C 189.57913 101.5272 189.57913 101.5272 189.57913 101.5272 
C 189.57913 101.5272 189.57913 101.5272 189.57913 101.5272 
C 189.57913 101.5272 189.57913 101.5272 189.57913 101.5272 
C 189.57913 101.5272 189.57913 101.5272 189.57913 101.5272 
C 189.57913 101.5272 189.57913 101.5272 189.57913 101.5272 
M 228.396522 101.5272 
z
"/>
  </clipPath>
  <clipPath id="pf985492bb7">
   <path d="M 321.558261 101.5272 
C 321.558261 96.429747 320.554174 91.38186 318.603463 86.672427 
C 316.652752 81.962995 313.793354 77.683603 310.18891 74.079159 
C 306.584467 70.474716 302.305075 67.615318 297.595642 65.664607 
C 292.886209 63.713896 287.838323 62.709809 282.74087 62.709809 
C 277.643416 62.709809 272.59553 63.713896 267.886097 65.664607 
C 263.176664 67.615318 258.897273 70.474716 255.292829 74.079159 
C 251.688385 77.683603 248.828987 81.962995 246.878276 86.672427 
C 244.927565 91.38186 243.923478 96.429747 243.923478 101.5272 
C 243.923478 106.624653 244.927565 111.67254 246.878276 116.381973 
C 248.828987 121.091405 251.688385 125.370797 255.292829 128.975241 
C 258.897273 132.579684 263.176664 135.439082 267.886097 137.389793 
C 272.59553 139.340504 277.643416 140.344591 282.74087 140.344591 
C 287.838323 140.344591 292.886209 139.340504 297.595642 137.389793 
C 302.305075 135.439082 306.584467 132.579684 310.18891 128.975241 
C 313.793354 125.370797 316.652752 121.091405 318.603463 116.381973 
C 320.554174 111.67254 321.558261 106.624653 321.558261 101.5272 
M 282.74087 101.5272 
C 282.74087 101.5272 282.74087 101.5272 282.74087 101.5272 
C 282.74087 101.5272 282.74087 101.5272 282.74087 101.5272 
C 282.74087 101.5272 282.74087 101.5272 282.74087 101.5272 
C 282.74087 101.5272 282.74087 101.5272 282.74087 101.5272 
C 282.74087 101.5272 282.74087 101.5272 282.74087 101.5272 
C 282.74087 101.5272 282.74087 101.5272 282.74087 101.5272 
C 282.74087 101.5272 282.74087 101.5272 282.74087 101.5272 
C 282.74087 101.5272 282.74087 101.5272 282.74087 101.5272 
C 282.74087 101.5272 282.74087 101.5272 282.74087 101.5272 
C 282.74087 101.5272 282.74087 101.5272 282.74087 101.5272 
C 282.74087 101.5272 282.74087 101.5272 282.74087 101.5272 
C 282.74087 101.5272 282.74087 101.5272 282.74087 101.5272 
C 282.74087 101.5272 282.74087 101.5272 282.74087 101.5272 
C 282.74087 101.5272 282.74087 101.5272 282.74087 101.5272 
C 282.74087 101.5272 282.74087 101.5272 282.74087 101.5272 
C 282.74087 101.5272 282.74087 101.5272 282.74087 101.5272 
M 321.558261 101.5272 
z
"/>
  </clipPath>
  <clipPath id="pe50fc63913">
   <path d="M 414.72 101.5272 
C 414.72 96.429747 413.715913 91.38186 411.765202 86.672427 
C 409.814491 81.962995 406.955093 77.683603 403.350649 74.079159 
C 399.746206 70.474716 395.466814 67.615318 390.757381 65.664607 
C 386.047949 63.713896 381.000062 62.709809 375.902609 62.709809 
C 370.805156 62.709809 365.757269 63.713896 361.047836 65.664607 
C 356.338404 67.615318 352.059012 70.474716 348.454568 74.079159 
C 344.850124 77.683603 341.990726 81.962995 340.040015 86.672427 
C 338.089305 91.38186 337.085217 96.429747 337.085217 101.5272 
C 337.085217 106.624653 338.089305 111.67254 340.040015 116.381973 
C 341.990726 121.091405 344.850124 125.370797 348.454568 128.975241 
C 352.059012 132.579684 356.338404 135.439082 361.047836 137.389793 
C 365.757269 139.340504 370.805156 140.344591 375.902609 140.344591 
C 381.000062 140.344591 386.047949 139.340504 390.757381 137.389793 
C 395.466814 135.439082 399.746206 132.579684 403.350649 128.975241 
C 406.955093 125.370797 409.814491 121.091405 411.765202 116.381973 
C 413.715913 111.67254 414.72 106.624653 414.72 101.5272 
M 375.902609 101.5272 
C 375.902609 101.5272 375.902609 101.5272 375.902609 101.5272 
C 375.902609 101.5272 375.902609 101.5272 375.902609 101.5272 
C 375.902609 101.5272 375.902609 101.5272 375.902609 101.5272 
C 375.902609 101.5272 375.902609 101.5272 375.902609 101.5272 
C 375.902609 101.5272 375.902609 101.5272 375.902609 101.5272 
C 375.902609 101.5272 375.902609 101.5272 375.902609 101.5272 
C 375.902609 101.5272 375.902609 101.5272 375.902609 101.5272 
C 375.902609 101.5272 375.902609 101.5272 375.902609 101.5272 
C 375.902609 101.5272 375.902609 101.5272 375.902609 101.5272 
C 375.902609 101.5272 375.902609 101.5272 375.902609 101.5272 
C 375.902609 101.5272 375.902609 101.5272 375.902609 101.5272 
C 375.902609 101.5272 375.902609 101.5272 375.902609 101.5272 
C 375.902609 101.5272 375.902609 101.5272 375.902609 101.5272 
C 375.902609 101.5272 375.902609 101.5272 375.902609 101.5272 
C 375.902609 101.5272 375.902609 101.5272 375.902609 101.5272 
C 375.902609 101.5272 375.902609 101.5272 375.902609 101.5272 
M 414.72 101.5272 
z
"/>
  </clipPath>
 </defs>
</svg>
