<?xml version="1.0" encoding="utf-8" standalone="no"?>
<!DOCTYPE svg PUBLIC "-//W3C//DTD SVG 1.1//EN"
  "http://www.w3.org/Graphics/SVG/1.1/DTD/svg11.dtd">
<!-- Created with matplotlib (http://matplotlib.org/) -->
<svg height="344.16pt" version="1.1" viewBox="0 0 460.8 344.16" width="460.8pt" xmlns="http://www.w3.org/2000/svg" xmlns:xlink="http://www.w3.org/1999/xlink">
 <defs>
  <style type="text/css">
*{stroke-linecap:butt;stroke-linejoin:round;}
  </style>
 </defs>
 <g id="figure_1">
  <g id="patch_1">
   <path d="M 0 344.16 
L 460.8 344.16 
L 460.8 0 
L 0 0 
z
" style="fill:#ffffff;"/>
  </g>
  <g id="axes_1">
   <g id="patch_2">
    <path d="M 135.234783 101.5272 
C 135.234783 96.429747 134.230695 91.38186 132.279985 86.672427 
C 130.329274 81.962995 127.469876 77.683603 123.865432 74.079159 
C 120.260988 70.474716 115.981596 67.615318 111.272164 65.664607 
C 106.562731 63.713896 101.514844 62.709809 96.417391 62.709809 
C 91.319938 62.709809 86.272051 63.713896 81.562619 65.664607 
C 76.853186 67.615318 72.573794 70.474716 68.969351 74.079159 
C 65.364907 77.683603 62.505509 81.962995 60.554798 86.672427 
C 58.604087 91.38186 57.6 96.429747 57.6 101.5272 
C 57.6 106.624653 58.604087 111.67254 60.554798 116.381973 
C 62.505509 121.091405 65.364907 125.370797 68.969351 128.975241 
C 72.573794 132.579684 76.853186 135.439082 81.562619 137.389793 
C 86.272051 139.340504 91.319938 140.344591 96.417391 140.344591 
C 101.514844 140.344591 106.562731 139.340504 111.272164 137.389793 
C 115.981596 135.439082 120.260988 132.579684 123.865432 128.975241 
C 127.469876 125.370797 130.329274 121.091405 132.279985 116.381973 
C 134.230695 111.67254 135.234783 106.624653 135.234783 101.5272 
M 96.417391 101.5272 
C 96.417391 101.5272 96.417391 101.5272 96.417391 101.5272 
C 96.417391 101.5272 96.417391 101.5272 96.417391 101.5272 
C 96.417391 101.5272 96.417391 101.5272 96.417391 101.5272 
C 96.417391 101.5272 96.417391 101.5272 96.417391 101.5272 
C 96.417391 101.5272 96.417391 101.5272 96.417391 101.5272 
C 96.417391 101.5272 96.417391 101.5272 96.417391 101.5272 
C 96.417391 101.5272 96.417391 101.5272 96.417391 101.5272 
C 96.417391 101.5272 96.417391 101.5272 96.417391 101.5272 
C 96.417391 101.5272 96.417391 101.5272 96.417391 101.5272 
C 96.417391 101.5272 96.417391 101.5272 96.417391 101.5272 
C 96.417391 101.5272 96.417391 101.5272 96.417391 101.5272 
C 96.417391 101.5272 96.417391 101.5272 96.417391 101.5272 
C 96.417391 101.5272 96.417391 101.5272 96.417391 101.5272 
C 96.417391 101.5272 96.417391 101.5272 96.417391 101.5272 
C 96.417391 101.5272 96.417391 101.5272 96.417391 101.5272 
C 96.417391 101.5272 96.417391 101.5272 96.417391 101.5272 
M 135.234783 101.5272 
z
" style="fill:#ffffff;"/>
   </g>
   <g id="matplotlib.axis_1">
    <g id="xtick_1">
     <g id="line2d_1">
      <path clip-path="url(#p7837dd64d0)" d="M 96.417391 101.5272 
L 135.234783 101.5272 
" style="fill:none;stroke:#b0b0b0;stroke-linecap:square;stroke-width:0.8;"/>
     </g>
    </g>
    <g id="xtick_2">
     <g id="line2d_2">
      <path clip-path="url(#p7837dd64d0)" d="M 96.417391 101.5272 
L 123.865432 74.079159 
" style="fill:none;stroke:#b0b0b0;stroke-linecap:square;stroke-width:0.8;"/>
     </g>
    </g>
    <g id="xtick_3">
     <g id="line2d_3">
      <path clip-path="url(#p7837dd64d0)" d="M 96.417391 101.5272 
L 96.417391 62.709809 
" style="fill:none;stroke:#b0b0b0;stroke-linecap:square;stroke-width:0.8;"/>
     </g>
    </g>
    <g id="xtick_4">
     <g id="line2d_4">
      <path clip-path="url(#p7837dd64d0)" d="M 96.417391 101.5272 
L 68.969351 74.079159 
" style="fill:none;stroke:#b0b0b0;stroke-linecap:square;stroke-width:0.8;"/>
     </g>
    </g>
    <g id="xtick_5">
     <g id="line2d_5">
      <path clip-path="url(#p7837dd64d0)" d="M 96.417391 101.5272 
L 57.6 101.5272 
" style="fill:none;stroke:#b0b0b0;stroke-linecap:square;stroke-width:0.8;"/>
     </g>
    </g>
    <g id="xtick_6">
     <g id="line2d_6">
      <path clip-path="url(#p7837dd64d0)" d="M 96.417391 101.5272 
L 68.969351 128.975241 
" style="fill:none;stroke:#b0b0b0;stroke-linecap:square;stroke-width:0.8;"/>
     </g>
    </g>
    <g id="xtick_7">
     <g id="line2d_7">
      <path clip-path="url(#p7837dd64d0)" d="M 96.417391 101.5272 
L 96.417391 140.344591 
" style="fill:none;stroke:#b0b0b0;stroke-linecap:square;stroke-width:0.8;"/>
     </g>
    </g>
    <g id="xtick_8">
     <g id="line2d_8">
      <path clip-path="url(#p7837dd64d0)" d="M 96.417391 101.5272 
L 123.865432 128.975241 
" style="fill:none;stroke:#b0b0b0;stroke-linecap:square;stroke-width:0.8;"/>
     </g>
    </g>
   </g>
   <g id="matplotlib.axis_2">
    <g id="ytick_1">
     <g id="line2d_9">
      <path clip-path="url(#p7837dd64d0)" d="M 109.886034 101.5272 
L 109.754958 99.652727 
L 109.364282 97.814739 
L 108.721609 96.04901 
L 107.839448 94.389907 
L 106.73497 92.869723 
L 105.429672 91.518048 
L 103.948961 90.361189 
L 102.321656 89.421664 
L 100.579431 88.71776 
L 98.756197 88.263176 
L 96.88744 88.066762 
L 95.009535 88.13234 
L 93.159032 88.458634 
L 91.371949 89.039292 
L 89.68307 89.863013 
L 88.125267 90.913765 
L 86.728861 92.171095 
L 85.521031 93.61053 
L 84.525286 95.204055 
L 83.761007 96.920653 
L 83.243071 98.726912 
L 82.981558 100.587675 
L 82.981558 102.466725 
L 83.243071 104.327488 
L 83.761007 106.133747 
L 84.525286 107.850345 
L 85.521031 109.44387 
L 86.728861 110.883305 
L 88.125267 112.140635 
L 89.68307 113.191387 
L 91.371949 114.015108 
L 93.159032 114.595766 
L 95.009535 114.92206 
L 96.88744 114.987638 
L 98.756197 114.791224 
L 100.579431 114.33664 
L 102.321656 113.632736 
L 103.948961 112.693211 
L 105.429672 111.536352 
L 106.73497 110.184677 
L 107.839448 108.664493 
L 108.721609 107.00539 
L 109.364282 105.239661 
L 109.754958 103.401673 
L 109.886034 101.5272 
L 109.886034 101.5272 
" style="fill:none;stroke:#b0b0b0;stroke-linecap:square;stroke-width:0.8;"/>
     </g>
     <g id="text_1">
      <!-- 2 -->
      <defs>
       <path d="M 19.1875 8.296875 
L 53.609375 8.296875 
L 53.609375 0 
L 7.328125 0 
L 7.328125 8.296875 
Q 12.9375 14.109375 22.625 23.890625 
Q 32.328125 33.6875 34.8125 36.53125 
Q 39.546875 41.84375 41.421875 45.53125 
Q 43.3125 49.21875 43.3125 52.78125 
Q 43.3125 58.59375 39.234375 62.25 
Q 35.15625 65.921875 28.609375 65.921875 
Q 23.96875 65.921875 18.8125 64.3125 
Q 13.671875 62.703125 7.8125 59.421875 
L 7.8125 69.390625 
Q 13.765625 71.78125 18.9375 73 
Q 24.125 74.21875 28.421875 74.21875 
Q 39.75 74.21875 46.484375 68.546875 
Q 53.21875 62.890625 53.21875 53.421875 
Q 53.21875 48.921875 51.53125 44.890625 
Q 49.859375 40.875 45.40625 35.40625 
Q 44.1875 33.984375 37.640625 27.21875 
Q 31.109375 20.453125 19.1875 8.296875 
z
" id="DejaVuSans-32"/>
      </defs>
      <g transform="translate(108.860795 94.293286)scale(0.1 -0.1)">
       <use xlink:href="#DejaVuSans-32"/>
      </g>
     </g>
    </g>
    <g id="ytick_2">
     <g id="line2d_10">
      <path clip-path="url(#p7837dd64d0)" d="M 123.354677 101.5272 
L 123.207111 98.711487 
L 122.766032 95.926623 
L 122.036272 93.203121 
L 121.025826 90.570819 
L 119.745765 88.058557 
L 118.210113 85.693861 
L 116.435695 83.502638 
L 114.441953 81.508896 
L 112.25073 79.734478 
L 109.886034 78.198827 
L 107.373772 76.918765 
L 104.74147 75.908319 
L 102.017968 75.178559 
L 99.233104 74.73748 
L 96.417391 74.589915 
L 93.601678 74.73748 
L 90.816815 75.178559 
L 88.093312 75.908319 
L 85.46101 76.918765 
L 82.948749 78.198827 
L 80.584052 79.734478 
L 78.392829 81.508896 
L 76.399087 83.502638 
L 74.62467 85.693861 
L 73.089018 88.058557 
L 71.808957 90.570819 
L 70.798511 93.203121 
L 70.06875 95.926623 
L 69.627671 98.711487 
L 69.480106 101.5272 
L 69.627671 104.342913 
L 70.06875 107.127777 
L 70.798511 109.851279 
L 71.808957 112.483581 
L 73.089018 114.995843 
L 74.62467 117.360539 
L 76.399087 119.551762 
L 78.392829 121.545504 
L 80.584052 123.319922 
L 82.948749 124.855573 
L 85.46101 126.135635 
L 88.093312 127.146081 
L 90.816815 127.875841 
L 93.601678 128.31692 
L 96.417391 128.464485 
L 99.233104 128.31692 
L 102.017968 127.875841 
L 104.74147 127.146081 
L 107.373772 126.135635 
L 109.886034 124.855573 
L 112.25073 123.319922 
L 114.441953 121.545504 
L 116.435695 119.551762 
L 118.210113 117.360539 
L 119.745765 114.995843 
L 121.025826 112.483581 
L 122.036272 109.851279 
L 122.766032 107.127777 
L 123.207111 104.342913 
L 123.354677 101.5272 
L 123.354677 101.5272 
" style="fill:none;stroke:#b0b0b0;stroke-linecap:square;stroke-width:0.8;"/>
     </g>
     <g id="text_2">
      <!-- 4 -->
      <defs>
       <path d="M 37.796875 64.3125 
L 12.890625 25.390625 
L 37.796875 25.390625 
z
M 35.203125 72.90625 
L 47.609375 72.90625 
L 47.609375 25.390625 
L 58.015625 25.390625 
L 58.015625 17.1875 
L 47.609375 17.1875 
L 47.609375 0 
L 37.796875 0 
L 37.796875 17.1875 
L 4.890625 17.1875 
L 4.890625 26.703125 
z
" id="DejaVuSans-34"/>
      </defs>
      <g transform="translate(121.304198 89.13906)scale(0.1 -0.1)">
       <use xlink:href="#DejaVuSans-34"/>
      </g>
     </g>
    </g>
   </g>
   <g id="line2d_11">
    <path clip-path="url(#p7837dd64d0)" d="M 130.421047 99.714883 
L 130.579617 96.023161 
L 130.324755 92.280298 
L 129.616363 88.546112 
L 128.409882 84.903023 
L 126.708247 81.432987 
L 124.539038 78.212462 
L 121.980214 75.274578 
L 119.142412 72.581957 
L 116.088354 70.088484 
L 112.814777 67.806366 
L 109.267845 65.893236 
L 105.435626 64.613602 
L 101.412077 64.228443 
L 97.393916 64.85706 
L 93.606302 66.406709 
L 90.214245 68.628634 
L 87.262003 71.164142 
L 84.671577 73.695701 
L 82.272209 75.990803 
L 79.84349 77.931572 
L 77.169959 79.530534 
L 74.12912 80.951628 
L 70.74879 82.456945 
L 67.230862 84.329205 
L 63.928622 86.785005 
L 61.230896 89.886915 
L 59.465562 93.535643 
L 58.807857 97.506775 
L 59.243525 101.5272 
L 60.593795 105.35671 
L 62.581647 108.844842 
L 64.901337 111.953241 
L 67.323712 114.72883 
L 69.7225 117.257011 
L 72.102448 119.591767 
L 74.55353 121.710975 
L 77.177652 123.515074 
L 80.019252 124.872601 
L 83.044436 125.669491 
L 86.139786 125.879803 
L 89.163558 125.583915 
L 92.001154 124.948841 
L 94.604056 124.182198 
L 97.001913 123.476968 
L 99.28907 122.972 
L 101.599501 122.738705 
L 104.073836 122.758316 
L 106.821619 122.923248 
L 109.886202 123.053453 
L 113.211692 122.918386 
L 116.633828 122.289166 
L 119.900484 120.996264 
L 122.766672 119.006668 
L 125.0732 116.417545 
L 126.830741 113.419085 
L 128.150289 110.181102 
L 129.158598 106.802291 
L 129.91843 103.312729 
" style="fill:none;stroke:#1f77b4;stroke-linecap:square;stroke-width:1.5;"/>
   </g>
   <g id="patch_3">
    <path d="M 135.234783 101.5272 
C 135.234783 96.429747 134.230695 91.38186 132.279985 86.672427 
C 130.329274 81.962995 127.469876 77.683603 123.865432 74.079159 
C 120.260988 70.474716 115.981596 67.615318 111.272164 65.664607 
C 106.562731 63.713896 101.514844 62.709809 96.417391 62.709809 
C 91.319938 62.709809 86.272051 63.713896 81.562619 65.664607 
C 76.853186 67.615318 72.573794 70.474716 68.969351 74.079159 
C 65.364907 77.683603 62.505509 81.962995 60.554798 86.672427 
C 58.604087 91.38186 57.6 96.429747 57.6 101.5272 
C 57.6 106.624653 58.604087 111.67254 60.554798 116.381973 
C 62.505509 121.091405 65.364907 125.370797 68.969351 128.975241 
C 72.573794 132.579684 76.853186 135.439082 81.562619 137.389793 
C 86.272051 139.340504 91.319938 140.344591 96.417391 140.344591 
C 101.514844 140.344591 106.562731 139.340504 111.272164 137.389793 
C 115.981596 135.439082 120.260988 132.579684 123.865432 128.975241 
C 127.469876 125.370797 130.329274 121.091405 132.279985 116.381973 
C 134.230695 111.67254 135.234783 106.624653 135.234783 101.5272 
" style="fill:none;stroke:#000000;stroke-linecap:square;stroke-linejoin:miter;stroke-width:0.8;"/>
   </g>
  </g>
  <g id="axes_2">
   <g id="patch_4">
    <path d="M 228.396522 101.5272 
C 228.396522 96.429747 227.392435 91.38186 225.441724 86.672427 
C 223.491013 81.962995 220.631615 77.683603 217.027171 74.079159 
C 213.422727 70.474716 209.143336 67.615318 204.433903 65.664607 
C 199.72447 63.713896 194.676584 62.709809 189.57913 62.709809 
C 184.481677 62.709809 179.433791 63.713896 174.724358 65.664607 
C 170.014925 67.615318 165.735533 70.474716 162.13109 74.079159 
C 158.526646 77.683603 155.667248 81.962995 153.716537 86.672427 
C 151.765826 91.38186 150.761739 96.429747 150.761739 101.5272 
C 150.761739 106.624653 151.765826 111.67254 153.716537 116.381973 
C 155.667248 121.091405 158.526646 125.370797 162.13109 128.975241 
C 165.735533 132.579684 170.014925 135.439082 174.724358 137.389793 
C 179.433791 139.340504 184.481677 140.344591 189.57913 140.344591 
C 194.676584 140.344591 199.72447 139.340504 204.433903 137.389793 
C 209.143336 135.439082 213.422727 132.579684 217.027171 128.975241 
C 220.631615 125.370797 223.491013 121.091405 225.441724 116.381973 
C 227.392435 111.67254 228.396522 106.624653 228.396522 101.5272 
M 189.57913 101.5272 
C 189.57913 101.5272 189.57913 101.5272 189.57913 101.5272 
C 189.57913 101.5272 189.57913 101.5272 189.57913 101.5272 
C 189.57913 101.5272 189.57913 101.5272 189.57913 101.5272 
C 189.57913 101.5272 189.57913 101.5272 189.57913 101.5272 
C 189.57913 101.5272 189.57913 101.5272 189.57913 101.5272 
C 189.57913 101.5272 189.57913 101.5272 189.57913 101.5272 
C 189.57913 101.5272 189.57913 101.5272 189.57913 101.5272 
C 189.57913 101.5272 189.57913 101.5272 189.57913 101.5272 
C 189.57913 101.5272 189.57913 101.5272 189.57913 101.5272 
C 189.57913 101.5272 189.57913 101.5272 189.57913 101.5272 
C 189.57913 101.5272 189.57913 101.5272 189.57913 101.5272 
C 189.57913 101.5272 189.57913 101.5272 189.57913 101.5272 
C 189.57913 101.5272 189.57913 101.5272 189.57913 101.5272 
C 189.57913 101.5272 189.57913 101.5272 189.57913 101.5272 
C 189.57913 101.5272 189.57913 101.5272 189.57913 101.5272 
C 189.57913 101.5272 189.57913 101.5272 189.57913 101.5272 
M 228.396522 101.5272 
z
" style="fill:#ffffff;"/>
   </g>
   <g id="matplotlib.axis_3">
    <g id="xtick_9">
     <g id="line2d_12">
      <path clip-path="url(#p401df74f97)" d="M 189.57913 101.5272 
L 228.396522 101.5272 
" style="fill:none;stroke:#b0b0b0;stroke-linecap:square;stroke-width:0.8;"/>
     </g>
    </g>
    <g id="xtick_10">
     <g id="line2d_13">
      <path clip-path="url(#p401df74f97)" d="M 189.57913 101.5272 
L 217.027171 74.079159 
" style="fill:none;stroke:#b0b0b0;stroke-linecap:square;stroke-width:0.8;"/>
     </g>
    </g>
    <g id="xtick_11">
     <g id="line2d_14">
      <path clip-path="url(#p401df74f97)" d="M 189.57913 101.5272 
L 189.57913 62.709809 
" style="fill:none;stroke:#b0b0b0;stroke-linecap:square;stroke-width:0.8;"/>
     </g>
    </g>
    <g id="xtick_12">
     <g id="line2d_15">
      <path clip-path="url(#p401df74f97)" d="M 189.57913 101.5272 
L 162.13109 74.079159 
" style="fill:none;stroke:#b0b0b0;stroke-linecap:square;stroke-width:0.8;"/>
     </g>
    </g>
    <g id="xtick_13">
     <g id="line2d_16">
      <path clip-path="url(#p401df74f97)" d="M 189.57913 101.5272 
L 150.761739 101.5272 
" style="fill:none;stroke:#b0b0b0;stroke-linecap:square;stroke-width:0.8;"/>
     </g>
    </g>
    <g id="xtick_14">
     <g id="line2d_17">
      <path clip-path="url(#p401df74f97)" d="M 189.57913 101.5272 
L 162.13109 128.975241 
" style="fill:none;stroke:#b0b0b0;stroke-linecap:square;stroke-width:0.8;"/>
     </g>
    </g>
    <g id="xtick_15">
     <g id="line2d_18">
      <path clip-path="url(#p401df74f97)" d="M 189.57913 101.5272 
L 189.57913 140.344591 
" style="fill:none;stroke:#b0b0b0;stroke-linecap:square;stroke-width:0.8;"/>
     </g>
    </g>
    <g id="xtick_16">
     <g id="line2d_19">
      <path clip-path="url(#p401df74f97)" d="M 189.57913 101.5272 
L 217.027171 128.975241 
" style="fill:none;stroke:#b0b0b0;stroke-linecap:square;stroke-width:0.8;"/>
     </g>
    </g>
   </g>
   <g id="matplotlib.axis_4">
    <g id="ytick_3">
     <g id="line2d_20">
      <path clip-path="url(#p401df74f97)" d="M 206.692734 101.5272 
L 206.598984 99.738341 
L 206.318761 97.969082 
L 205.855135 96.238806 
L 205.213185 94.56647 
L 204.399946 92.970398 
L 203.424327 91.468076 
L 202.297017 90.075964 
L 201.030367 88.809314 
L 199.638254 87.682004 
L 198.135932 86.706384 
L 196.53986 85.893145 
L 194.867525 85.251196 
L 193.137249 84.787569 
L 191.367989 84.507346 
L 189.57913 84.413596 
L 187.790272 84.507346 
L 186.021012 84.787569 
L 184.290736 85.251196 
L 182.618401 85.893145 
L 181.022329 86.706384 
L 179.520007 87.682004 
L 178.127894 88.809314 
L 176.861244 90.075964 
L 175.733934 91.468076 
L 174.758315 92.970398 
L 173.945075 94.56647 
L 173.303126 96.238806 
L 172.8395 97.969082 
L 172.559277 99.738341 
L 172.465527 101.5272 
L 172.559277 103.316059 
L 172.8395 105.085318 
L 173.303126 106.815594 
L 173.945075 108.48793 
L 174.758315 110.084002 
L 175.733934 111.586324 
L 176.861244 112.978436 
L 178.127894 114.245086 
L 179.520007 115.372396 
L 181.022329 116.348016 
L 182.618401 117.161255 
L 184.290736 117.803204 
L 186.021012 118.266831 
L 187.790272 118.547054 
L 189.57913 118.640804 
L 191.367989 118.547054 
L 193.137249 118.266831 
L 194.867525 117.803204 
L 196.53986 117.161255 
L 198.135932 116.348016 
L 199.638254 115.372396 
L 201.030367 114.245086 
L 202.297017 112.978436 
L 203.424327 111.586324 
L 204.399946 110.084002 
L 205.213185 108.48793 
L 205.855135 106.815594 
L 206.318761 105.085318 
L 206.598984 103.316059 
L 206.692734 101.5272 
L 206.692734 101.5272 
" style="fill:none;stroke:#b0b0b0;stroke-linecap:square;stroke-width:0.8;"/>
     </g>
     <g id="text_3">
      <!-- 10 -->
      <defs>
       <path d="M 12.40625 8.296875 
L 28.515625 8.296875 
L 28.515625 63.921875 
L 10.984375 60.40625 
L 10.984375 69.390625 
L 28.421875 72.90625 
L 38.28125 72.90625 
L 38.28125 8.296875 
L 54.390625 8.296875 
L 54.390625 0 
L 12.40625 0 
z
" id="DejaVuSans-31"/>
       <path d="M 31.78125 66.40625 
Q 24.171875 66.40625 20.328125 58.90625 
Q 16.5 51.421875 16.5 36.375 
Q 16.5 21.390625 20.328125 13.890625 
Q 24.171875 6.390625 31.78125 6.390625 
Q 39.453125 6.390625 43.28125 13.890625 
Q 47.125 21.390625 47.125 36.375 
Q 47.125 51.421875 43.28125 58.90625 
Q 39.453125 66.40625 31.78125 66.40625 
z
M 31.78125 74.21875 
Q 44.046875 74.21875 50.515625 64.515625 
Q 56.984375 54.828125 56.984375 36.375 
Q 56.984375 17.96875 50.515625 8.265625 
Q 44.046875 -1.421875 31.78125 -1.421875 
Q 19.53125 -1.421875 13.0625 8.265625 
Q 6.59375 17.96875 6.59375 36.375 
Q 6.59375 54.828125 13.0625 64.515625 
Q 19.53125 74.21875 31.78125 74.21875 
z
" id="DejaVuSans-30"/>
      </defs>
      <g transform="translate(205.390039 92.89842)scale(0.1 -0.1)">
       <use xlink:href="#DejaVuSans-31"/>
       <use x="63.623047" xlink:href="#DejaVuSans-30"/>
      </g>
     </g>
    </g>
    <g id="ytick_4">
     <g id="line2d_21">
      <path clip-path="url(#p401df74f97)" d="M 223.806338 101.5272 
L 223.722962 99.139631 
L 223.473241 96.763693 
L 223.058391 94.410963 
L 222.480434 92.092903 
L 221.742185 89.820806 
L 220.84724 87.60574 
L 219.799961 85.458499 
L 218.605449 83.389543 
L 217.269523 81.408952 
L 215.798693 79.526375 
L 214.200123 77.750984 
L 212.481603 76.091428 
L 210.651504 74.555792 
L 208.718742 73.151559 
L 206.692734 71.885569 
L 204.583351 70.76399 
L 202.400868 69.792286 
L 200.155919 68.975191 
L 197.859441 68.316687 
L 195.522623 67.819981 
L 193.156848 67.487493 
L 190.773643 67.320843 
L 188.384618 67.320843 
L 186.001413 67.487493 
L 183.635638 67.819981 
L 181.298819 68.316687 
L 179.002342 68.975191 
L 176.757393 69.792286 
L 174.57491 70.76399 
L 172.465527 71.885569 
L 170.439519 73.151559 
L 168.506757 74.555792 
L 166.676658 76.091428 
L 164.958138 77.750984 
L 163.359568 79.526375 
L 161.888738 81.408952 
L 160.552812 83.389543 
L 159.3583 85.458499 
L 158.31102 87.60574 
L 157.416076 89.820806 
L 156.677827 92.092903 
L 156.099869 94.410963 
L 155.68502 96.763693 
L 155.435299 99.139631 
L 155.351923 101.5272 
L 155.435299 103.914769 
L 155.68502 106.290707 
L 156.099869 108.643437 
L 156.677827 110.961497 
L 157.416076 113.233594 
L 158.31102 115.44866 
L 159.3583 117.595901 
L 160.552812 119.664857 
L 161.888738 121.645448 
L 163.359568 123.528025 
L 164.958138 125.303416 
L 166.676658 126.962972 
L 168.506757 128.498608 
L 170.439519 129.902841 
L 172.465527 131.168831 
L 174.57491 132.29041 
L 176.757393 133.262114 
L 179.002342 134.079209 
L 181.298819 134.737713 
L 183.635638 135.234419 
L 186.001413 135.566907 
L 188.384618 135.733557 
L 190.773643 135.733557 
L 193.156848 135.566907 
L 195.522623 135.234419 
L 197.859441 134.737713 
L 200.155919 134.079209 
L 202.400868 133.262114 
L 204.583351 132.29041 
L 206.692734 131.168831 
L 208.718742 129.902841 
L 210.651504 128.498608 
L 212.481603 126.962972 
L 214.200123 125.303416 
L 215.798693 123.528025 
L 217.269523 121.645448 
L 218.605449 119.664857 
L 219.799961 117.595901 
L 220.84724 115.44866 
L 221.742185 113.233594 
L 222.480434 110.961497 
L 223.058391 108.643437 
L 223.473241 106.290707 
L 223.722962 103.914769 
L 223.806338 101.5272 
L 223.806338 101.5272 
" style="fill:none;stroke:#b0b0b0;stroke-linecap:square;stroke-width:0.8;"/>
     </g>
     <g id="text_4">
      <!-- 20 -->
      <g transform="translate(221.200947 86.349327)scale(0.1 -0.1)">
       <use xlink:href="#DejaVuSans-32"/>
       <use x="63.623047" xlink:href="#DejaVuSans-30"/>
      </g>
     </g>
    </g>
   </g>
   <g id="line2d_22">
    <path clip-path="url(#p401df74f97)" d="M 225.187751 99.629342 
L 225.746183 95.700154 
L 225.702216 91.676046 
L 224.912814 87.711421 
L 223.329246 83.989713 
L 221.021407 80.669163 
L 218.170973 77.822638 
L 214.99381 75.426719 
L 211.657118 73.406093 
L 208.246921 71.691784 
L 204.793955 70.238274 
L 201.292658 69.045903 
L 197.729813 68.164682 
L 194.111868 67.678131 
L 190.480969 67.66164 
L 186.906986 68.142617 
L 183.462068 69.08518 
L 180.18764 70.38113 
L 177.069611 71.886115 
L 174.067874 73.52462 
L 171.180711 75.334077 
L 168.507028 77.445234 
L 166.251481 79.992119 
L 164.629226 82.990894 
L 163.756581 86.311411 
L 163.557947 89.719755 
L 163.809895 93.002303 
L 164.257865 96.05098 
L 164.741865 98.872119 
L 165.246933 101.5272 
L 165.882912 104.060304 
L 166.745753 106.465365 
L 167.836812 108.719925 
L 169.059053 110.838448 
L 170.297903 112.888553 
L 171.487152 114.968472 
L 172.659349 117.146813 
L 173.89847 119.44763 
L 175.323375 121.822573 
L 177.012086 124.214573 
L 178.999751 126.594853 
L 181.320489 128.916276 
L 183.995971 131.137649 
L 187.048897 133.138812 
L 190.463865 134.75048 
L 194.157378 135.716121 
L 197.948929 135.786608 
L 201.581878 134.810497 
L 204.807339 132.843649 
L 207.481499 130.139296 
L 209.642998 127.082888 
L 211.482542 124.021664 
L 213.251602 121.153272 
L 215.130232 118.477176 
L 217.139572 115.848362 
L 219.183625 113.102816 
L 221.108173 110.125509 
L 222.786792 106.877444 
L 224.167926 103.370704 
" style="fill:none;stroke:#1f77b4;stroke-linecap:square;stroke-width:1.5;"/>
   </g>
   <g id="patch_5">
    <path d="M 228.396522 101.5272 
C 228.396522 96.429747 227.392435 91.38186 225.441724 86.672427 
C 223.491013 81.962995 220.631615 77.683603 217.027171 74.079159 
C 213.422727 70.474716 209.143336 67.615318 204.433903 65.664607 
C 199.72447 63.713896 194.676584 62.709809 189.57913 62.709809 
C 184.481677 62.709809 179.433791 63.713896 174.724358 65.664607 
C 170.014925 67.615318 165.735533 70.474716 162.13109 74.079159 
C 158.526646 77.683603 155.667248 81.962995 153.716537 86.672427 
C 151.765826 91.38186 150.761739 96.429747 150.761739 101.5272 
C 150.761739 106.624653 151.765826 111.67254 153.716537 116.381973 
C 155.667248 121.091405 158.526646 125.370797 162.13109 128.975241 
C 165.735533 132.579684 170.014925 135.439082 174.724358 137.389793 
C 179.433791 139.340504 184.481677 140.344591 189.57913 140.344591 
C 194.676584 140.344591 199.72447 139.340504 204.433903 137.389793 
C 209.143336 135.439082 213.422727 132.579684 217.027171 128.975241 
C 220.631615 125.370797 223.491013 121.091405 225.441724 116.381973 
C 227.392435 111.67254 228.396522 106.624653 228.396522 101.5272 
" style="fill:none;stroke:#000000;stroke-linecap:square;stroke-linejoin:miter;stroke-width:0.8;"/>
   </g>
  </g>
  <g id="axes_3">
   <g id="patch_6">
    <path d="M 321.558261 101.5272 
C 321.558261 96.429747 320.554174 91.38186 318.603463 86.672427 
C 316.652752 81.962995 313.793354 77.683603 310.18891 74.079159 
C 306.584467 70.474716 302.305075 67.615318 297.595642 65.664607 
C 292.886209 63.713896 287.838323 62.709809 282.74087 62.709809 
C 277.643416 62.709809 272.59553 63.713896 267.886097 65.664607 
C 263.176664 67.615318 258.897273 70.474716 255.292829 74.079159 
C 251.688385 77.683603 248.828987 81.962995 246.878276 86.672427 
C 244.927565 91.38186 243.923478 96.429747 243.923478 101.5272 
C 243.923478 106.624653 244.927565 111.67254 246.878276 116.381973 
C 248.828987 121.091405 251.688385 125.370797 255.292829 128.975241 
C 258.897273 132.579684 263.176664 135.439082 267.886097 137.389793 
C 272.59553 139.340504 277.643416 140.344591 282.74087 140.344591 
C 287.838323 140.344591 292.886209 139.340504 297.595642 137.389793 
C 302.305075 135.439082 306.584467 132.579684 310.18891 128.975241 
C 313.793354 125.370797 316.652752 121.091405 318.603463 116.381973 
C 320.554174 111.67254 321.558261 106.624653 321.558261 101.5272 
M 282.74087 101.5272 
C 282.74087 101.5272 282.74087 101.5272 282.74087 101.5272 
C 282.74087 101.5272 282.74087 101.5272 282.74087 101.5272 
C 282.74087 101.5272 282.74087 101.5272 282.74087 101.5272 
C 282.74087 101.5272 282.74087 101.5272 282.74087 101.5272 
C 282.74087 101.5272 282.74087 101.5272 282.74087 101.5272 
C 282.74087 101.5272 282.74087 101.5272 282.74087 101.5272 
C 282.74087 101.5272 282.74087 101.5272 282.74087 101.5272 
C 282.74087 101.5272 282.74087 101.5272 282.74087 101.5272 
C 282.74087 101.5272 282.74087 101.5272 282.74087 101.5272 
C 282.74087 101.5272 282.74087 101.5272 282.74087 101.5272 
C 282.74087 101.5272 282.74087 101.5272 282.74087 101.5272 
C 282.74087 101.5272 282.74087 101.5272 282.74087 101.5272 
C 282.74087 101.5272 282.74087 101.5272 282.74087 101.5272 
C 282.74087 101.5272 282.74087 101.5272 282.74087 101.5272 
C 282.74087 101.5272 282.74087 101.5272 282.74087 101.5272 
C 282.74087 101.5272 282.74087 101.5272 282.74087 101.5272 
M 321.558261 101.5272 
z
" style="fill:#ffffff;"/>
   </g>
   <g id="matplotlib.axis_5">
    <g id="xtick_17">
     <g id="line2d_23">
      <path clip-path="url(#p5d19035afa)" d="M 282.74087 101.5272 
L 321.558261 101.5272 
" style="fill:none;stroke:#b0b0b0;stroke-linecap:square;stroke-width:0.8;"/>
     </g>
    </g>
    <g id="xtick_18">
     <g id="line2d_24">
      <path clip-path="url(#p5d19035afa)" d="M 282.74087 101.5272 
L 310.18891 74.079159 
" style="fill:none;stroke:#b0b0b0;stroke-linecap:square;stroke-width:0.8;"/>
     </g>
    </g>
    <g id="xtick_19">
     <g id="line2d_25">
      <path clip-path="url(#p5d19035afa)" d="M 282.74087 101.5272 
L 282.74087 62.709809 
" style="fill:none;stroke:#b0b0b0;stroke-linecap:square;stroke-width:0.8;"/>
     </g>
    </g>
    <g id="xtick_20">
     <g id="line2d_26">
      <path clip-path="url(#p5d19035afa)" d="M 282.74087 101.5272 
L 255.292829 74.079159 
" style="fill:none;stroke:#b0b0b0;stroke-linecap:square;stroke-width:0.8;"/>
     </g>
    </g>
    <g id="xtick_21">
     <g id="line2d_27">
      <path clip-path="url(#p5d19035afa)" d="M 282.74087 101.5272 
L 243.923478 101.5272 
" style="fill:none;stroke:#b0b0b0;stroke-linecap:square;stroke-width:0.8;"/>
     </g>
    </g>
    <g id="xtick_22">
     <g id="line2d_28">
      <path clip-path="url(#p5d19035afa)" d="M 282.74087 101.5272 
L 255.292829 128.975241 
" style="fill:none;stroke:#b0b0b0;stroke-linecap:square;stroke-width:0.8;"/>
     </g>
    </g>
    <g id="xtick_23">
     <g id="line2d_29">
      <path clip-path="url(#p5d19035afa)" d="M 282.74087 101.5272 
L 282.74087 140.344591 
" style="fill:none;stroke:#b0b0b0;stroke-linecap:square;stroke-width:0.8;"/>
     </g>
    </g>
    <g id="xtick_24">
     <g id="line2d_30">
      <path clip-path="url(#p5d19035afa)" d="M 282.74087 101.5272 
L 310.18891 128.975241 
" style="fill:none;stroke:#b0b0b0;stroke-linecap:square;stroke-width:0.8;"/>
     </g>
    </g>
   </g>
   <g id="matplotlib.axis_6">
    <g id="ytick_5">
     <g id="line2d_31">
      <path clip-path="url(#p5d19035afa)" d="M 300.726141 101.5272 
L 300.627616 99.647227 
L 300.333119 97.787852 
L 299.845879 95.969446 
L 299.171232 94.211931 
L 298.316571 92.534564 
L 297.29126 90.955723 
L 296.106531 89.492705 
L 294.775365 88.161539 
L 293.312347 86.97681 
L 291.733505 85.951498 
L 290.056138 85.096837 
L 288.298624 84.422191 
L 286.480218 83.93495 
L 284.620842 83.640454 
L 282.74087 83.541929 
L 280.860897 83.640454 
L 279.001521 83.93495 
L 277.183115 84.422191 
L 275.425601 85.096837 
L 273.748234 85.951498 
L 272.169392 86.97681 
L 270.706374 88.161539 
L 269.375208 89.492705 
L 268.19048 90.955723 
L 267.165168 92.534564 
L 266.310507 94.211931 
L 265.63586 95.969446 
L 265.14862 97.787852 
L 264.854124 99.647227 
L 264.755598 101.5272 
L 264.854124 103.407173 
L 265.14862 105.266548 
L 265.63586 107.084954 
L 266.310507 108.842469 
L 267.165168 110.519836 
L 268.19048 112.098677 
L 269.375208 113.561695 
L 270.706374 114.892861 
L 272.169392 116.07759 
L 273.748234 117.102902 
L 275.425601 117.957563 
L 277.183115 118.632209 
L 279.001521 119.11945 
L 280.860897 119.413946 
L 282.74087 119.512471 
L 284.620842 119.413946 
L 286.480218 119.11945 
L 288.298624 118.632209 
L 290.056138 117.957563 
L 291.733505 117.102902 
L 293.312347 116.07759 
L 294.775365 114.892861 
L 296.106531 113.561695 
L 297.29126 112.098677 
L 298.316571 110.519836 
L 299.171232 108.842469 
L 299.845879 107.084954 
L 300.333119 105.266548 
L 300.627616 103.407173 
L 300.726141 101.5272 
L 300.726141 101.5272 
" style="fill:none;stroke:#b0b0b0;stroke-linecap:square;stroke-width:0.8;"/>
     </g>
     <g id="text_5">
      <!-- 10 -->
      <g transform="translate(299.357094 92.564847)scale(0.1 -0.1)">
       <use xlink:href="#DejaVuSans-31"/>
       <use x="63.623047" xlink:href="#DejaVuSans-30"/>
      </g>
     </g>
    </g>
    <g id="ytick_6">
     <g id="line2d_32">
      <path clip-path="url(#p5d19035afa)" d="M 318.711412 101.5272 
L 318.62379 99.018022 
L 318.361349 96.521068 
L 317.925369 94.048504 
L 317.317974 91.612375 
L 316.542123 89.22455 
L 315.601595 86.896662 
L 314.500973 84.640053 
L 313.24562 82.465717 
L 311.84165 80.384246 
L 310.295904 78.405781 
L 308.615912 76.539962 
L 306.80986 74.795878 
L 304.886547 73.182026 
L 302.855342 71.706269 
L 300.726141 70.375796 
L 298.509318 69.197091 
L 296.215672 68.175894 
L 293.856378 67.317181 
L 291.442931 66.625136 
L 288.987089 66.103131 
L 286.500815 65.753708 
L 283.996223 65.57857 
L 281.485516 65.57857 
L 278.980924 65.753708 
L 276.49465 66.103131 
L 274.038808 66.625136 
L 271.625361 67.317181 
L 269.266067 68.175894 
L 266.972422 69.197091 
L 264.755598 70.375796 
L 262.626398 71.706269 
L 260.595192 73.182026 
L 258.671879 74.795878 
L 256.865827 76.539962 
L 255.185835 78.405781 
L 253.640089 80.384246 
L 252.23612 82.465717 
L 250.980766 84.640053 
L 249.880144 86.896662 
L 248.939616 89.22455 
L 248.163765 91.612375 
L 247.55637 94.048504 
L 247.12039 96.521068 
L 246.85795 99.018022 
L 246.770327 101.5272 
L 246.85795 104.036378 
L 247.12039 106.533332 
L 247.55637 109.005896 
L 248.163765 111.442025 
L 248.939616 113.82985 
L 249.880144 116.157738 
L 250.980766 118.414347 
L 252.23612 120.588683 
L 253.640089 122.670154 
L 255.185835 124.648619 
L 256.865827 126.514438 
L 258.671879 128.258522 
L 260.595192 129.872374 
L 262.626398 131.348131 
L 264.755598 132.678604 
L 266.972422 133.857309 
L 269.266067 134.878506 
L 271.625361 135.737219 
L 274.038808 136.429264 
L 276.49465 136.951269 
L 278.980924 137.300692 
L 281.485516 137.47583 
L 283.996223 137.47583 
L 286.500815 137.300692 
L 288.987089 136.951269 
L 291.442931 136.429264 
L 293.856378 135.737219 
L 296.215672 134.878506 
L 298.509318 133.857309 
L 300.726141 132.678604 
L 302.855342 131.348131 
L 304.886547 129.872374 
L 306.80986 128.258522 
L 308.615912 126.514438 
L 310.295904 124.648619 
L 311.84165 122.670154 
L 313.24562 120.588683 
L 314.500973 118.414347 
L 315.601595 116.157738 
L 316.542123 113.82985 
L 317.317974 111.442025 
L 317.925369 109.005896 
L 318.361349 106.533332 
L 318.62379 104.036378 
L 318.711412 101.5272 
L 318.711412 101.5272 
" style="fill:none;stroke:#b0b0b0;stroke-linecap:square;stroke-width:0.8;"/>
     </g>
     <g id="text_6">
      <!-- 20 -->
      <g transform="translate(315.973317 85.682182)scale(0.1 -0.1)">
       <use xlink:href="#DejaVuSans-32"/>
       <use x="63.623047" xlink:href="#DejaVuSans-30"/>
      </g>
     </g>
    </g>
   </g>
   <g id="line2d_33">
    <path clip-path="url(#p5d19035afa)" d="M 318.961373 99.59673 
L 319.428873 95.616221 
L 319.126433 91.604466 
L 318.022719 87.731689 
L 316.140148 84.172018 
L 313.576365 81.071687 
L 310.507474 78.506816 
L 307.149072 76.460356 
L 303.705952 74.82362 
L 300.291109 73.477887 
L 296.935827 72.335608 
L 293.618103 71.364925 
L 290.299453 70.588273 
L 286.95627 70.047903 
L 283.586172 69.784657 
L 280.204544 69.839485 
L 276.850332 70.286563 
L 273.592829 71.18851 
L 270.520483 72.57121 
L 267.704375 74.381712 
L 265.153436 76.488645 
L 262.800754 78.73891 
L 260.533602 81.026407 
L 258.271377 83.347811 
L 256.02063 85.782452 
L 253.941673 88.459196 
L 252.341393 91.470541 
L 251.568903 94.785652 
L 251.867837 98.226901 
L 253.251914 101.5272 
L 255.46224 104.443261 
L 258.089789 106.858479 
L 260.696425 108.819873 
L 263.009571 110.480529 
L 264.955235 112.007283 
L 266.614226 113.508344 
L 268.157792 114.989669 
L 269.736526 116.389037 
L 271.43664 117.620597 
L 273.274083 118.617656 
L 275.210063 119.371313 
L 277.191099 119.932537 
L 279.18405 120.390896 
L 281.195682 120.83209 
L 283.266963 121.282896 
L 285.444758 121.718996 
L 287.758633 122.066 
L 290.201411 122.215081 
L 292.736036 122.082022 
L 295.31933 121.630469 
L 297.921244 120.8627 
L 300.537634 119.8042 
L 303.183311 118.47536 
L 305.880024 116.877149 
L 308.60813 114.968539 
L 311.295976 112.692496 
L 313.826574 110.004606 
L 316.044469 106.892901 
L 317.797969 103.395663 
" style="fill:none;stroke:#1f77b4;stroke-linecap:square;stroke-width:1.5;"/>
   </g>
   <g id="patch_7">
    <path d="M 321.558261 101.5272 
C 321.558261 96.429747 320.554174 91.38186 318.603463 86.672427 
C 316.652752 81.962995 313.793354 77.683603 310.18891 74.079159 
C 306.584467 70.474716 302.305075 67.615318 297.595642 65.664607 
C 292.886209 63.713896 287.838323 62.709809 282.74087 62.709809 
C 277.643416 62.709809 272.59553 63.713896 267.886097 65.664607 
C 263.176664 67.615318 258.897273 70.474716 255.292829 74.079159 
C 251.688385 77.683603 248.828987 81.962995 246.878276 86.672427 
C 244.927565 91.38186 243.923478 96.429747 243.923478 101.5272 
C 243.923478 106.624653 244.927565 111.67254 246.878276 116.381973 
C 248.828987 121.091405 251.688385 125.370797 255.292829 128.975241 
C 258.897273 132.579684 263.176664 135.439082 267.886097 137.389793 
C 272.59553 139.340504 277.643416 140.344591 282.74087 140.344591 
C 287.838323 140.344591 292.886209 139.340504 297.595642 137.389793 
C 302.305075 135.439082 306.584467 132.579684 310.18891 128.975241 
C 313.793354 125.370797 316.652752 121.091405 318.603463 116.381973 
C 320.554174 111.67254 321.558261 106.624653 321.558261 101.5272 
" style="fill:none;stroke:#000000;stroke-linecap:square;stroke-linejoin:miter;stroke-width:0.8;"/>
   </g>
  </g>
  <g id="axes_4">
   <g id="patch_8">
    <path d="M 414.72 101.5272 
C 414.72 96.429747 413.715913 91.38186 411.765202 86.672427 
C 409.814491 81.962995 406.955093 77.683603 403.350649 74.079159 
C 399.746206 70.474716 395.466814 67.615318 390.757381 65.664607 
C 386.047949 63.713896 381.000062 62.709809 375.902609 62.709809 
C 370.805156 62.709809 365.757269 63.713896 361.047836 65.664607 
C 356.338404 67.615318 352.059012 70.474716 348.454568 74.079159 
C 344.850124 77.683603 341.990726 81.962995 340.040015 86.672427 
C 338.089305 91.38186 337.085217 96.429747 337.085217 101.5272 
C 337.085217 106.624653 338.089305 111.67254 340.040015 116.381973 
C 341.990726 121.091405 344.850124 125.370797 348.454568 128.975241 
C 352.059012 132.579684 356.338404 135.439082 361.047836 137.389793 
C 365.757269 139.340504 370.805156 140.344591 375.902609 140.344591 
C 381.000062 140.344591 386.047949 139.340504 390.757381 137.389793 
C 395.466814 135.439082 399.746206 132.579684 403.350649 128.975241 
C 406.955093 125.370797 409.814491 121.091405 411.765202 116.381973 
C 413.715913 111.67254 414.72 106.624653 414.72 101.5272 
M 375.902609 101.5272 
C 375.902609 101.5272 375.902609 101.5272 375.902609 101.5272 
C 375.902609 101.5272 375.902609 101.5272 375.902609 101.5272 
C 375.902609 101.5272 375.902609 101.5272 375.902609 101.5272 
C 375.902609 101.5272 375.902609 101.5272 375.902609 101.5272 
C 375.902609 101.5272 375.902609 101.5272 375.902609 101.5272 
C 375.902609 101.5272 375.902609 101.5272 375.902609 101.5272 
C 375.902609 101.5272 375.902609 101.5272 375.902609 101.5272 
C 375.902609 101.5272 375.902609 101.5272 375.902609 101.5272 
C 375.902609 101.5272 375.902609 101.5272 375.902609 101.5272 
C 375.902609 101.5272 375.902609 101.5272 375.902609 101.5272 
C 375.902609 101.5272 375.902609 101.5272 375.902609 101.5272 
C 375.902609 101.5272 375.902609 101.5272 375.902609 101.5272 
C 375.902609 101.5272 375.902609 101.5272 375.902609 101.5272 
C 375.902609 101.5272 375.902609 101.5272 375.902609 101.5272 
C 375.902609 101.5272 375.902609 101.5272 375.902609 101.5272 
C 375.902609 101.5272 375.902609 101.5272 375.902609 101.5272 
M 414.72 101.5272 
z
" style="fill:#ffffff;"/>
   </g>
   <g id="matplotlib.axis_7">
    <g id="xtick_25">
     <g id="line2d_34">
      <path clip-path="url(#pc3e5727686)" d="M 375.902609 101.5272 
L 414.72 101.5272 
" style="fill:none;stroke:#b0b0b0;stroke-linecap:square;stroke-width:0.8;"/>
     </g>
    </g>
    <g id="xtick_26">
     <g id="line2d_35">
      <path clip-path="url(#pc3e5727686)" d="M 375.902609 101.5272 
L 403.350649 74.079159 
" style="fill:none;stroke:#b0b0b0;stroke-linecap:square;stroke-width:0.8;"/>
     </g>
    </g>
    <g id="xtick_27">
     <g id="line2d_36">
      <path clip-path="url(#pc3e5727686)" d="M 375.902609 101.5272 
L 375.902609 62.709809 
" style="fill:none;stroke:#b0b0b0;stroke-linecap:square;stroke-width:0.8;"/>
     </g>
    </g>
    <g id="xtick_28">
     <g id="line2d_37">
      <path clip-path="url(#pc3e5727686)" d="M 375.902609 101.5272 
L 348.454568 74.079159 
" style="fill:none;stroke:#b0b0b0;stroke-linecap:square;stroke-width:0.8;"/>
     </g>
    </g>
    <g id="xtick_29">
     <g id="line2d_38">
      <path clip-path="url(#pc3e5727686)" d="M 375.902609 101.5272 
L 337.085217 101.5272 
" style="fill:none;stroke:#b0b0b0;stroke-linecap:square;stroke-width:0.8;"/>
     </g>
    </g>
    <g id="xtick_30">
     <g id="line2d_39">
      <path clip-path="url(#pc3e5727686)" d="M 375.902609 101.5272 
L 348.454568 128.975241 
" style="fill:none;stroke:#b0b0b0;stroke-linecap:square;stroke-width:0.8;"/>
     </g>
    </g>
    <g id="xtick_31">
     <g id="line2d_40">
      <path clip-path="url(#pc3e5727686)" d="M 375.902609 101.5272 
L 375.902609 140.344591 
" style="fill:none;stroke:#b0b0b0;stroke-linecap:square;stroke-width:0.8;"/>
     </g>
    </g>
    <g id="xtick_32">
     <g id="line2d_41">
      <path clip-path="url(#pc3e5727686)" d="M 375.902609 101.5272 
L 403.350649 128.975241 
" style="fill:none;stroke:#b0b0b0;stroke-linecap:square;stroke-width:0.8;"/>
     </g>
    </g>
   </g>
   <g id="matplotlib.axis_8">
    <g id="ytick_7">
     <g id="line2d_42">
      <path clip-path="url(#pc3e5727686)" d="M 389.385088 101.5272 
L 389.253877 99.650802 
L 388.8628 97.810925 
L 388.219466 96.043382 
L 387.3364 94.382574 
L 386.230787 92.860829 
L 384.924148 91.507765 
L 383.441915 90.349718 
L 381.812939 89.409228 
L 380.068924 88.7046 
L 378.243817 88.24955 
L 376.37314 88.052934 
L 374.493306 88.118579 
L 372.640902 88.445208 
L 370.851983 89.026463 
L 369.161369 89.85103 
L 367.601966 90.902861 
L 366.204125 92.161483 
L 364.995054 93.602397 
L 363.998286 95.197559 
L 363.233222 96.91592 
L 362.714754 98.724035 
L 362.452972 100.58671 
L 362.452972 102.46769 
L 362.714754 104.330365 
L 363.233222 106.13848 
L 363.998286 107.856841 
L 364.995054 109.452003 
L 366.204125 110.892917 
L 367.601966 112.151539 
L 369.161369 113.20337 
L 370.851983 114.027937 
L 372.640902 114.609192 
L 374.493306 114.935821 
L 376.37314 115.001466 
L 378.243817 114.80485 
L 380.068924 114.3498 
L 381.812939 113.645172 
L 383.441915 112.704682 
L 384.924148 111.546635 
L 386.230787 110.193571 
L 387.3364 108.671826 
L 388.219466 107.011018 
L 388.8628 105.243475 
L 389.253877 103.403598 
L 389.385088 101.5272 
L 389.385088 101.5272 
" style="fill:none;stroke:#b0b0b0;stroke-linecap:square;stroke-width:0.8;"/>
     </g>
     <g id="text_7">
      <!-- 5 -->
      <defs>
       <path d="M 10.796875 72.90625 
L 49.515625 72.90625 
L 49.515625 64.59375 
L 19.828125 64.59375 
L 19.828125 46.734375 
Q 21.96875 47.46875 24.109375 47.828125 
Q 26.265625 48.1875 28.421875 48.1875 
Q 40.625 48.1875 47.75 41.5 
Q 54.890625 34.8125 54.890625 23.390625 
Q 54.890625 11.625 47.5625 5.09375 
Q 40.234375 -1.421875 26.90625 -1.421875 
Q 22.3125 -1.421875 17.546875 -0.640625 
Q 12.796875 0.140625 7.71875 1.703125 
L 7.71875 11.625 
Q 12.109375 9.234375 16.796875 8.0625 
Q 21.484375 6.890625 26.703125 6.890625 
Q 35.15625 6.890625 40.078125 11.328125 
Q 45.015625 15.765625 45.015625 23.390625 
Q 45.015625 31 40.078125 35.4375 
Q 35.15625 39.890625 26.703125 39.890625 
Q 22.75 39.890625 18.8125 39.015625 
Q 14.890625 38.140625 10.796875 36.28125 
z
" id="DejaVuSans-35"/>
      </defs>
      <g transform="translate(388.358795 94.287991)scale(0.1 -0.1)">
       <use xlink:href="#DejaVuSans-35"/>
      </g>
     </g>
    </g>
    <g id="ytick_8">
     <g id="line2d_43">
      <path clip-path="url(#pc3e5727686)" d="M 402.867567 101.5272 
L 402.719851 98.708594 
L 402.278318 95.92087 
L 401.547808 93.19457 
L 400.536324 90.559563 
L 399.254948 88.044721 
L 397.717719 85.677595 
L 395.941478 83.484121 
L 393.945688 81.48833 
L 391.752214 79.71209 
L 389.385088 78.174861 
L 386.870245 76.893484 
L 384.235239 75.882 
L 381.508939 75.15149 
L 378.721214 74.709958 
L 375.902609 74.562241 
L 373.084003 74.709958 
L 370.296279 75.15149 
L 367.569978 75.882 
L 364.934972 76.893484 
L 362.420129 78.174861 
L 360.053004 79.71209 
L 357.85953 81.48833 
L 355.863739 83.484121 
L 354.087499 85.677595 
L 352.550269 88.044721 
L 351.268893 90.559563 
L 350.257409 93.19457 
L 349.526899 95.92087 
L 349.085367 98.708594 
L 348.93765 101.5272 
L 349.085367 104.345806 
L 349.526899 107.13353 
L 350.257409 109.85983 
L 351.268893 112.494837 
L 352.550269 115.009679 
L 354.087499 117.376805 
L 355.863739 119.570279 
L 357.85953 121.56607 
L 360.053004 123.34231 
L 362.420129 124.879539 
L 364.934972 126.160916 
L 367.569978 127.1724 
L 370.296279 127.90291 
L 373.084003 128.344442 
L 375.902609 128.492159 
L 378.721214 128.344442 
L 381.508939 127.90291 
L 384.235239 127.1724 
L 386.870245 126.160916 
L 389.385088 124.879539 
L 391.752214 123.34231 
L 393.945688 121.56607 
L 395.941478 119.570279 
L 397.717719 117.376805 
L 399.254948 115.009679 
L 400.536324 112.494837 
L 401.547808 109.85983 
L 402.278318 107.13353 
L 402.719851 104.345806 
L 402.867567 101.5272 
L 402.867567 101.5272 
" style="fill:none;stroke:#b0b0b0;stroke-linecap:square;stroke-width:0.8;"/>
     </g>
     <g id="text_8">
      <!-- 10 -->
      <g transform="translate(400.814982 89.12847)scale(0.1 -0.1)">
       <use xlink:href="#DejaVuSans-31"/>
       <use x="63.623047" xlink:href="#DejaVuSans-30"/>
      </g>
     </g>
    </g>
   </g>
   <g id="line2d_44">
    <path clip-path="url(#pc3e5727686)" d="M 397.578618 100.371918 
L 397.194292 98.096796 
L 397.056555 95.758291 
L 397.046573 93.259725 
L 397.009149 90.559662 
L 396.758155 87.692141 
L 396.081177 84.797809 
L 394.818684 82.100684 
L 392.914532 79.858825 
L 390.466655 78.250509 
L 387.681702 77.303775 
L 384.780278 76.909661 
L 381.925384 76.87467 
L 379.188169 76.991664 
L 376.552645 77.117254 
L 373.956281 77.210644 
L 371.343152 77.345988 
L 368.704632 77.655727 
L 366.098968 78.297646 
L 363.623797 79.360176 
L 361.364934 80.83047 
L 359.34477 82.604299 
L 357.508732 84.546766 
L 355.771191 86.570745 
L 354.066789 88.660568 
L 352.396759 90.86112 
L 350.792791 93.22045 
L 349.266037 95.76652 
L 347.814241 98.524579 
L 346.411652 101.5272 
L 345.084827 104.821593 
L 343.939006 108.439955 
L 343.212369 112.341682 
L 343.191809 116.370144 
L 344.101304 120.265937 
L 345.992604 123.748567 
L 348.71506 126.625574 
L 351.995355 128.849279 
L 355.525905 130.536731 
L 359.080727 131.895862 
L 362.575953 133.104474 
L 366.031573 134.263642 
L 369.524114 135.355732 
L 373.119043 136.303826 
L 376.847513 137.009943 
L 380.706497 137.401142 
L 384.66277 137.38445 
L 388.639139 136.845258 
L 392.504139 135.667853 
L 396.056433 133.73764 
L 399.059856 131.022977 
L 401.303611 127.613635 
L 402.661339 123.711988 
L 403.114871 119.579149 
L 402.767152 115.486754 
L 401.830651 111.665291 
L 400.584086 108.258104 
L 399.331696 105.301972 
L 398.291914 102.720499 
" style="fill:none;stroke:#1f77b4;stroke-linecap:square;stroke-width:1.5;"/>
   </g>
   <g id="patch_9">
    <path d="M 414.72 101.5272 
C 414.72 96.429747 413.715913 91.38186 411.765202 86.672427 
C 409.814491 81.962995 406.955093 77.683603 403.350649 74.079159 
C 399.746206 70.474716 395.466814 67.615318 390.757381 65.664607 
C 386.047949 63.713896 381.000062 62.709809 375.902609 62.709809 
C 370.805156 62.709809 365.757269 63.713896 361.047836 65.664607 
C 356.338404 67.615318 352.059012 70.474716 348.454568 74.079159 
C 344.850124 77.683603 341.990726 81.962995 340.040015 86.672427 
C 338.089305 91.38186 337.085217 96.429747 337.085217 101.5272 
C 337.085217 106.624653 338.089305 111.67254 340.040015 116.381973 
C 341.990726 121.091405 344.850124 125.370797 348.454568 128.975241 
C 352.059012 132.579684 356.338404 135.439082 361.047836 137.389793 
C 365.757269 139.340504 370.805156 140.344591 375.902609 140.344591 
C 381.000062 140.344591 386.047949 139.340504 390.757381 137.389793 
C 395.466814 135.439082 399.746206 132.579684 403.350649 128.975241 
C 406.955093 125.370797 409.814491 121.091405 411.765202 116.381973 
C 413.715913 111.67254 414.72 106.624653 414.72 101.5272 
" style="fill:none;stroke:#000000;stroke-linecap:square;stroke-linejoin:miter;stroke-width:0.8;"/>
   </g>
  </g>
  <g id="text_9">
   <!-- KA60-200627_OSN_Day5_Square -->
   <defs>
    <path d="M 9.8125 72.90625 
L 19.671875 72.90625 
L 19.671875 42.09375 
L 52.390625 72.90625 
L 65.09375 72.90625 
L 28.90625 38.921875 
L 67.671875 0 
L 54.6875 0 
L 19.671875 35.109375 
L 19.671875 0 
L 9.8125 0 
z
" id="DejaVuSans-4b"/>
    <path d="M 34.1875 63.1875 
L 20.796875 26.90625 
L 47.609375 26.90625 
z
M 28.609375 72.90625 
L 39.796875 72.90625 
L 67.578125 0 
L 57.328125 0 
L 50.6875 18.703125 
L 17.828125 18.703125 
L 11.1875 0 
L 0.78125 0 
z
" id="DejaVuSans-41"/>
    <path d="M 33.015625 40.375 
Q 26.375 40.375 22.484375 35.828125 
Q 18.609375 31.296875 18.609375 23.390625 
Q 18.609375 15.53125 22.484375 10.953125 
Q 26.375 6.390625 33.015625 6.390625 
Q 39.65625 6.390625 43.53125 10.953125 
Q 47.40625 15.53125 47.40625 23.390625 
Q 47.40625 31.296875 43.53125 35.828125 
Q 39.65625 40.375 33.015625 40.375 
z
M 52.59375 71.296875 
L 52.59375 62.3125 
Q 48.875 64.0625 45.09375 64.984375 
Q 41.3125 65.921875 37.59375 65.921875 
Q 27.828125 65.921875 22.671875 59.328125 
Q 17.53125 52.734375 16.796875 39.40625 
Q 19.671875 43.65625 24.015625 45.921875 
Q 28.375 48.1875 33.59375 48.1875 
Q 44.578125 48.1875 50.953125 41.515625 
Q 57.328125 34.859375 57.328125 23.390625 
Q 57.328125 12.15625 50.6875 5.359375 
Q 44.046875 -1.421875 33.015625 -1.421875 
Q 20.359375 -1.421875 13.671875 8.265625 
Q 6.984375 17.96875 6.984375 36.375 
Q 6.984375 53.65625 15.1875 63.9375 
Q 23.390625 74.21875 37.203125 74.21875 
Q 40.921875 74.21875 44.703125 73.484375 
Q 48.484375 72.75 52.59375 71.296875 
z
" id="DejaVuSans-36"/>
    <path d="M 4.890625 31.390625 
L 31.203125 31.390625 
L 31.203125 23.390625 
L 4.890625 23.390625 
z
" id="DejaVuSans-2d"/>
    <path d="M 8.203125 72.90625 
L 55.078125 72.90625 
L 55.078125 68.703125 
L 28.609375 0 
L 18.3125 0 
L 43.21875 64.59375 
L 8.203125 64.59375 
z
" id="DejaVuSans-37"/>
    <path d="M 50.984375 -16.609375 
L 50.984375 -23.578125 
L -0.984375 -23.578125 
L -0.984375 -16.609375 
z
" id="DejaVuSans-5f"/>
    <path d="M 39.40625 66.21875 
Q 28.65625 66.21875 22.328125 58.203125 
Q 16.015625 50.203125 16.015625 36.375 
Q 16.015625 22.609375 22.328125 14.59375 
Q 28.65625 6.59375 39.40625 6.59375 
Q 50.140625 6.59375 56.421875 14.59375 
Q 62.703125 22.609375 62.703125 36.375 
Q 62.703125 50.203125 56.421875 58.203125 
Q 50.140625 66.21875 39.40625 66.21875 
z
M 39.40625 74.21875 
Q 54.734375 74.21875 63.90625 63.9375 
Q 73.09375 53.65625 73.09375 36.375 
Q 73.09375 19.140625 63.90625 8.859375 
Q 54.734375 -1.421875 39.40625 -1.421875 
Q 24.03125 -1.421875 14.8125 8.828125 
Q 5.609375 19.09375 5.609375 36.375 
Q 5.609375 53.65625 14.8125 63.9375 
Q 24.03125 74.21875 39.40625 74.21875 
z
" id="DejaVuSans-4f"/>
    <path d="M 53.515625 70.515625 
L 53.515625 60.890625 
Q 47.90625 63.578125 42.921875 64.890625 
Q 37.9375 66.21875 33.296875 66.21875 
Q 25.25 66.21875 20.875 63.09375 
Q 16.5 59.96875 16.5 54.203125 
Q 16.5 49.359375 19.40625 46.890625 
Q 22.3125 44.4375 30.421875 42.921875 
L 36.375 41.703125 
Q 47.40625 39.59375 52.65625 34.296875 
Q 57.90625 29 57.90625 20.125 
Q 57.90625 9.515625 50.796875 4.046875 
Q 43.703125 -1.421875 29.984375 -1.421875 
Q 24.8125 -1.421875 18.96875 -0.25 
Q 13.140625 0.921875 6.890625 3.21875 
L 6.890625 13.375 
Q 12.890625 10.015625 18.65625 8.296875 
Q 24.421875 6.59375 29.984375 6.59375 
Q 38.421875 6.59375 43.015625 9.90625 
Q 47.609375 13.234375 47.609375 19.390625 
Q 47.609375 24.75 44.3125 27.78125 
Q 41.015625 30.8125 33.5 32.328125 
L 27.484375 33.5 
Q 16.453125 35.6875 11.515625 40.375 
Q 6.59375 45.0625 6.59375 53.421875 
Q 6.59375 63.09375 13.40625 68.65625 
Q 20.21875 74.21875 32.171875 74.21875 
Q 37.3125 74.21875 42.625 73.28125 
Q 47.953125 72.359375 53.515625 70.515625 
z
" id="DejaVuSans-53"/>
    <path d="M 9.8125 72.90625 
L 23.09375 72.90625 
L 55.421875 11.921875 
L 55.421875 72.90625 
L 64.984375 72.90625 
L 64.984375 0 
L 51.703125 0 
L 19.390625 60.984375 
L 19.390625 0 
L 9.8125 0 
z
" id="DejaVuSans-4e"/>
    <path d="M 19.671875 64.796875 
L 19.671875 8.109375 
L 31.59375 8.109375 
Q 46.6875 8.109375 53.6875 14.9375 
Q 60.6875 21.78125 60.6875 36.53125 
Q 60.6875 51.171875 53.6875 57.984375 
Q 46.6875 64.796875 31.59375 64.796875 
z
M 9.8125 72.90625 
L 30.078125 72.90625 
Q 51.265625 72.90625 61.171875 64.09375 
Q 71.09375 55.28125 71.09375 36.53125 
Q 71.09375 17.671875 61.125 8.828125 
Q 51.171875 0 30.078125 0 
L 9.8125 0 
z
" id="DejaVuSans-44"/>
    <path d="M 34.28125 27.484375 
Q 23.390625 27.484375 19.1875 25 
Q 14.984375 22.515625 14.984375 16.5 
Q 14.984375 11.71875 18.140625 8.90625 
Q 21.296875 6.109375 26.703125 6.109375 
Q 34.1875 6.109375 38.703125 11.40625 
Q 43.21875 16.703125 43.21875 25.484375 
L 43.21875 27.484375 
z
M 52.203125 31.203125 
L 52.203125 0 
L 43.21875 0 
L 43.21875 8.296875 
Q 40.140625 3.328125 35.546875 0.953125 
Q 30.953125 -1.421875 24.3125 -1.421875 
Q 15.921875 -1.421875 10.953125 3.296875 
Q 6 8.015625 6 15.921875 
Q 6 25.140625 12.171875 29.828125 
Q 18.359375 34.515625 30.609375 34.515625 
L 43.21875 34.515625 
L 43.21875 35.40625 
Q 43.21875 41.609375 39.140625 45 
Q 35.0625 48.390625 27.6875 48.390625 
Q 23 48.390625 18.546875 47.265625 
Q 14.109375 46.140625 10.015625 43.890625 
L 10.015625 52.203125 
Q 14.9375 54.109375 19.578125 55.046875 
Q 24.21875 56 28.609375 56 
Q 40.484375 56 46.34375 49.84375 
Q 52.203125 43.703125 52.203125 31.203125 
z
" id="DejaVuSans-61"/>
    <path d="M 32.171875 -5.078125 
Q 28.375 -14.84375 24.75 -17.8125 
Q 21.140625 -20.796875 15.09375 -20.796875 
L 7.90625 -20.796875 
L 7.90625 -13.28125 
L 13.1875 -13.28125 
Q 16.890625 -13.28125 18.9375 -11.515625 
Q 21 -9.765625 23.484375 -3.21875 
L 25.09375 0.875 
L 2.984375 54.6875 
L 12.5 54.6875 
L 29.59375 11.921875 
L 46.6875 54.6875 
L 56.203125 54.6875 
z
" id="DejaVuSans-79"/>
    <path d="M 14.796875 27.296875 
Q 14.796875 17.390625 18.875 11.75 
Q 22.953125 6.109375 30.078125 6.109375 
Q 37.203125 6.109375 41.296875 11.75 
Q 45.40625 17.390625 45.40625 27.296875 
Q 45.40625 37.203125 41.296875 42.84375 
Q 37.203125 48.484375 30.078125 48.484375 
Q 22.953125 48.484375 18.875 42.84375 
Q 14.796875 37.203125 14.796875 27.296875 
z
M 45.40625 8.203125 
Q 42.578125 3.328125 38.25 0.953125 
Q 33.9375 -1.421875 27.875 -1.421875 
Q 17.96875 -1.421875 11.734375 6.484375 
Q 5.515625 14.40625 5.515625 27.296875 
Q 5.515625 40.1875 11.734375 48.09375 
Q 17.96875 56 27.875 56 
Q 33.9375 56 38.25 53.625 
Q 42.578125 51.265625 45.40625 46.390625 
L 45.40625 54.6875 
L 54.390625 54.6875 
L 54.390625 -20.796875 
L 45.40625 -20.796875 
z
" id="DejaVuSans-71"/>
    <path d="M 8.5 21.578125 
L 8.5 54.6875 
L 17.484375 54.6875 
L 17.484375 21.921875 
Q 17.484375 14.15625 20.5 10.265625 
Q 23.53125 6.390625 29.59375 6.390625 
Q 36.859375 6.390625 41.078125 11.03125 
Q 45.3125 15.671875 45.3125 23.6875 
L 45.3125 54.6875 
L 54.296875 54.6875 
L 54.296875 0 
L 45.3125 0 
L 45.3125 8.40625 
Q 42.046875 3.421875 37.71875 1 
Q 33.40625 -1.421875 27.6875 -1.421875 
Q 18.265625 -1.421875 13.375 4.4375 
Q 8.5 10.296875 8.5 21.578125 
z
M 31.109375 56 
z
" id="DejaVuSans-75"/>
    <path d="M 41.109375 46.296875 
Q 39.59375 47.171875 37.8125 47.578125 
Q 36.03125 48 33.890625 48 
Q 26.265625 48 22.1875 43.046875 
Q 18.109375 38.09375 18.109375 28.8125 
L 18.109375 0 
L 9.078125 0 
L 9.078125 54.6875 
L 18.109375 54.6875 
L 18.109375 46.1875 
Q 20.953125 51.171875 25.484375 53.578125 
Q 30.03125 56 36.53125 56 
Q 37.453125 56 38.578125 55.875 
Q 39.703125 55.765625 41.0625 55.515625 
z
" id="DejaVuSans-72"/>
    <path d="M 56.203125 29.59375 
L 56.203125 25.203125 
L 14.890625 25.203125 
Q 15.484375 15.921875 20.484375 11.0625 
Q 25.484375 6.203125 34.421875 6.203125 
Q 39.59375 6.203125 44.453125 7.46875 
Q 49.3125 8.734375 54.109375 11.28125 
L 54.109375 2.78125 
Q 49.265625 0.734375 44.1875 -0.34375 
Q 39.109375 -1.421875 33.890625 -1.421875 
Q 20.796875 -1.421875 13.15625 6.1875 
Q 5.515625 13.8125 5.515625 26.8125 
Q 5.515625 40.234375 12.765625 48.109375 
Q 20.015625 56 32.328125 56 
Q 43.359375 56 49.78125 48.890625 
Q 56.203125 41.796875 56.203125 29.59375 
z
M 47.21875 32.234375 
Q 47.125 39.59375 43.09375 43.984375 
Q 39.0625 48.390625 32.421875 48.390625 
Q 24.90625 48.390625 20.390625 44.140625 
Q 15.875 39.890625 15.1875 32.171875 
z
" id="DejaVuSans-65"/>
   </defs>
   <g transform="translate(130.716563 15.78945)scale(0.12 -0.12)">
    <use xlink:href="#DejaVuSans-4b"/>
    <use x="65.560547" xlink:href="#DejaVuSans-41"/>
    <use x="133.96875" xlink:href="#DejaVuSans-36"/>
    <use x="197.591797" xlink:href="#DejaVuSans-30"/>
    <use x="261.214844" xlink:href="#DejaVuSans-2d"/>
    <use x="297.298828" xlink:href="#DejaVuSans-32"/>
    <use x="360.921875" xlink:href="#DejaVuSans-30"/>
    <use x="424.544922" xlink:href="#DejaVuSans-30"/>
    <use x="488.167969" xlink:href="#DejaVuSans-36"/>
    <use x="551.791016" xlink:href="#DejaVuSans-32"/>
    <use x="615.414062" xlink:href="#DejaVuSans-37"/>
    <use x="679.037109" xlink:href="#DejaVuSans-5f"/>
    <use x="729.037109" xlink:href="#DejaVuSans-4f"/>
    <use x="807.748047" xlink:href="#DejaVuSans-53"/>
    <use x="871.224609" xlink:href="#DejaVuSans-4e"/>
    <use x="946.029297" xlink:href="#DejaVuSans-5f"/>
    <use x="996.029297" xlink:href="#DejaVuSans-44"/>
    <use x="1073.03125" xlink:href="#DejaVuSans-61"/>
    <use x="1134.310547" xlink:href="#DejaVuSans-79"/>
    <use x="1193.490234" xlink:href="#DejaVuSans-35"/>
    <use x="1257.113281" xlink:href="#DejaVuSans-5f"/>
    <use x="1307.113281" xlink:href="#DejaVuSans-53"/>
    <use x="1370.589844" xlink:href="#DejaVuSans-71"/>
    <use x="1434.066406" xlink:href="#DejaVuSans-75"/>
    <use x="1497.445312" xlink:href="#DejaVuSans-61"/>
    <use x="1558.724609" xlink:href="#DejaVuSans-72"/>
    <use x="1599.806641" xlink:href="#DejaVuSans-65"/>
   </g>
  </g>
 </g>
 <defs>
  <clipPath id="p7837dd64d0">
   <path d="M 135.234783 101.5272 
C 135.234783 96.429747 134.230695 91.38186 132.279985 86.672427 
C 130.329274 81.962995 127.469876 77.683603 123.865432 74.079159 
C 120.260988 70.474716 115.981596 67.615318 111.272164 65.664607 
C 106.562731 63.713896 101.514844 62.709809 96.417391 62.709809 
C 91.319938 62.709809 86.272051 63.713896 81.562619 65.664607 
C 76.853186 67.615318 72.573794 70.474716 68.969351 74.079159 
C 65.364907 77.683603 62.505509 81.962995 60.554798 86.672427 
C 58.604087 91.38186 57.6 96.429747 57.6 101.5272 
C 57.6 106.624653 58.604087 111.67254 60.554798 116.381973 
C 62.505509 121.091405 65.364907 125.370797 68.969351 128.975241 
C 72.573794 132.579684 76.853186 135.439082 81.562619 137.389793 
C 86.272051 139.340504 91.319938 140.344591 96.417391 140.344591 
C 101.514844 140.344591 106.562731 139.340504 111.272164 137.389793 
C 115.981596 135.439082 120.260988 132.579684 123.865432 128.975241 
C 127.469876 125.370797 130.329274 121.091405 132.279985 116.381973 
C 134.230695 111.67254 135.234783 106.624653 135.234783 101.5272 
M 96.417391 101.5272 
C 96.417391 101.5272 96.417391 101.5272 96.417391 101.5272 
C 96.417391 101.5272 96.417391 101.5272 96.417391 101.5272 
C 96.417391 101.5272 96.417391 101.5272 96.417391 101.5272 
C 96.417391 101.5272 96.417391 101.5272 96.417391 101.5272 
C 96.417391 101.5272 96.417391 101.5272 96.417391 101.5272 
C 96.417391 101.5272 96.417391 101.5272 96.417391 101.5272 
C 96.417391 101.5272 96.417391 101.5272 96.417391 101.5272 
C 96.417391 101.5272 96.417391 101.5272 96.417391 101.5272 
C 96.417391 101.5272 96.417391 101.5272 96.417391 101.5272 
C 96.417391 101.5272 96.417391 101.5272 96.417391 101.5272 
C 96.417391 101.5272 96.417391 101.5272 96.417391 101.5272 
C 96.417391 101.5272 96.417391 101.5272 96.417391 101.5272 
C 96.417391 101.5272 96.417391 101.5272 96.417391 101.5272 
C 96.417391 101.5272 96.417391 101.5272 96.417391 101.5272 
C 96.417391 101.5272 96.417391 101.5272 96.417391 101.5272 
C 96.417391 101.5272 96.417391 101.5272 96.417391 101.5272 
M 135.234783 101.5272 
z
"/>
  </clipPath>
  <clipPath id="p401df74f97">
   <path d="M 228.396522 101.5272 
C 228.396522 96.429747 227.392435 91.38186 225.441724 86.672427 
C 223.491013 81.962995 220.631615 77.683603 217.027171 74.079159 
C 213.422727 70.474716 209.143336 67.615318 204.433903 65.664607 
C 199.72447 63.713896 194.676584 62.709809 189.57913 62.709809 
C 184.481677 62.709809 179.433791 63.713896 174.724358 65.664607 
C 170.014925 67.615318 165.735533 70.474716 162.13109 74.079159 
C 158.526646 77.683603 155.667248 81.962995 153.716537 86.672427 
C 151.765826 91.38186 150.761739 96.429747 150.761739 101.5272 
C 150.761739 106.624653 151.765826 111.67254 153.716537 116.381973 
C 155.667248 121.091405 158.526646 125.370797 162.13109 128.975241 
C 165.735533 132.579684 170.014925 135.439082 174.724358 137.389793 
C 179.433791 139.340504 184.481677 140.344591 189.57913 140.344591 
C 194.676584 140.344591 199.72447 139.340504 204.433903 137.389793 
C 209.143336 135.439082 213.422727 132.579684 217.027171 128.975241 
C 220.631615 125.370797 223.491013 121.091405 225.441724 116.381973 
C 227.392435 111.67254 228.396522 106.624653 228.396522 101.5272 
M 189.57913 101.5272 
C 189.57913 101.5272 189.57913 101.5272 189.57913 101.5272 
C 189.57913 101.5272 189.57913 101.5272 189.57913 101.5272 
C 189.57913 101.5272 189.57913 101.5272 189.57913 101.5272 
C 189.57913 101.5272 189.57913 101.5272 189.57913 101.5272 
C 189.57913 101.5272 189.57913 101.5272 189.57913 101.5272 
C 189.57913 101.5272 189.57913 101.5272 189.57913 101.5272 
C 189.57913 101.5272 189.57913 101.5272 189.57913 101.5272 
C 189.57913 101.5272 189.57913 101.5272 189.57913 101.5272 
C 189.57913 101.5272 189.57913 101.5272 189.57913 101.5272 
C 189.57913 101.5272 189.57913 101.5272 189.57913 101.5272 
C 189.57913 101.5272 189.57913 101.5272 189.57913 101.5272 
C 189.57913 101.5272 189.57913 101.5272 189.57913 101.5272 
C 189.57913 101.5272 189.57913 101.5272 189.57913 101.5272 
C 189.57913 101.5272 189.57913 101.5272 189.57913 101.5272 
C 189.57913 101.5272 189.57913 101.5272 189.57913 101.5272 
C 189.57913 101.5272 189.57913 101.5272 189.57913 101.5272 
M 228.396522 101.5272 
z
"/>
  </clipPath>
  <clipPath id="p5d19035afa">
   <path d="M 321.558261 101.5272 
C 321.558261 96.429747 320.554174 91.38186 318.603463 86.672427 
C 316.652752 81.962995 313.793354 77.683603 310.18891 74.079159 
C 306.584467 70.474716 302.305075 67.615318 297.595642 65.664607 
C 292.886209 63.713896 287.838323 62.709809 282.74087 62.709809 
C 277.643416 62.709809 272.59553 63.713896 267.886097 65.664607 
C 263.176664 67.615318 258.897273 70.474716 255.292829 74.079159 
C 251.688385 77.683603 248.828987 81.962995 246.878276 86.672427 
C 244.927565 91.38186 243.923478 96.429747 243.923478 101.5272 
C 243.923478 106.624653 244.927565 111.67254 246.878276 116.381973 
C 248.828987 121.091405 251.688385 125.370797 255.292829 128.975241 
C 258.897273 132.579684 263.176664 135.439082 267.886097 137.389793 
C 272.59553 139.340504 277.643416 140.344591 282.74087 140.344591 
C 287.838323 140.344591 292.886209 139.340504 297.595642 137.389793 
C 302.305075 135.439082 306.584467 132.579684 310.18891 128.975241 
C 313.793354 125.370797 316.652752 121.091405 318.603463 116.381973 
C 320.554174 111.67254 321.558261 106.624653 321.558261 101.5272 
M 282.74087 101.5272 
C 282.74087 101.5272 282.74087 101.5272 282.74087 101.5272 
C 282.74087 101.5272 282.74087 101.5272 282.74087 101.5272 
C 282.74087 101.5272 282.74087 101.5272 282.74087 101.5272 
C 282.74087 101.5272 282.74087 101.5272 282.74087 101.5272 
C 282.74087 101.5272 282.74087 101.5272 282.74087 101.5272 
C 282.74087 101.5272 282.74087 101.5272 282.74087 101.5272 
C 282.74087 101.5272 282.74087 101.5272 282.74087 101.5272 
C 282.74087 101.5272 282.74087 101.5272 282.74087 101.5272 
C 282.74087 101.5272 282.74087 101.5272 282.74087 101.5272 
C 282.74087 101.5272 282.74087 101.5272 282.74087 101.5272 
C 282.74087 101.5272 282.74087 101.5272 282.74087 101.5272 
C 282.74087 101.5272 282.74087 101.5272 282.74087 101.5272 
C 282.74087 101.5272 282.74087 101.5272 282.74087 101.5272 
C 282.74087 101.5272 282.74087 101.5272 282.74087 101.5272 
C 282.74087 101.5272 282.74087 101.5272 282.74087 101.5272 
C 282.74087 101.5272 282.74087 101.5272 282.74087 101.5272 
M 321.558261 101.5272 
z
"/>
  </clipPath>
  <clipPath id="pc3e5727686">
   <path d="M 414.72 101.5272 
C 414.72 96.429747 413.715913 91.38186 411.765202 86.672427 
C 409.814491 81.962995 406.955093 77.683603 403.350649 74.079159 
C 399.746206 70.474716 395.466814 67.615318 390.757381 65.664607 
C 386.047949 63.713896 381.000062 62.709809 375.902609 62.709809 
C 370.805156 62.709809 365.757269 63.713896 361.047836 65.664607 
C 356.338404 67.615318 352.059012 70.474716 348.454568 74.079159 
C 344.850124 77.683603 341.990726 81.962995 340.040015 86.672427 
C 338.089305 91.38186 337.085217 96.429747 337.085217 101.5272 
C 337.085217 106.624653 338.089305 111.67254 340.040015 116.381973 
C 341.990726 121.091405 344.850124 125.370797 348.454568 128.975241 
C 352.059012 132.579684 356.338404 135.439082 361.047836 137.389793 
C 365.757269 139.340504 370.805156 140.344591 375.902609 140.344591 
C 381.000062 140.344591 386.047949 139.340504 390.757381 137.389793 
C 395.466814 135.439082 399.746206 132.579684 403.350649 128.975241 
C 406.955093 125.370797 409.814491 121.091405 411.765202 116.381973 
C 413.715913 111.67254 414.72 106.624653 414.72 101.5272 
M 375.902609 101.5272 
C 375.902609 101.5272 375.902609 101.5272 375.902609 101.5272 
C 375.902609 101.5272 375.902609 101.5272 375.902609 101.5272 
C 375.902609 101.5272 375.902609 101.5272 375.902609 101.5272 
C 375.902609 101.5272 375.902609 101.5272 375.902609 101.5272 
C 375.902609 101.5272 375.902609 101.5272 375.902609 101.5272 
C 375.902609 101.5272 375.902609 101.5272 375.902609 101.5272 
C 375.902609 101.5272 375.902609 101.5272 375.902609 101.5272 
C 375.902609 101.5272 375.902609 101.5272 375.902609 101.5272 
C 375.902609 101.5272 375.902609 101.5272 375.902609 101.5272 
C 375.902609 101.5272 375.902609 101.5272 375.902609 101.5272 
C 375.902609 101.5272 375.902609 101.5272 375.902609 101.5272 
C 375.902609 101.5272 375.902609 101.5272 375.902609 101.5272 
C 375.902609 101.5272 375.902609 101.5272 375.902609 101.5272 
C 375.902609 101.5272 375.902609 101.5272 375.902609 101.5272 
C 375.902609 101.5272 375.902609 101.5272 375.902609 101.5272 
C 375.902609 101.5272 375.902609 101.5272 375.902609 101.5272 
M 414.72 101.5272 
z
"/>
  </clipPath>
 </defs>
</svg>
