<?xml version="1.0" encoding="utf-8" standalone="no"?>
<!DOCTYPE svg PUBLIC "-//W3C//DTD SVG 1.1//EN"
  "http://www.w3.org/Graphics/SVG/1.1/DTD/svg11.dtd">
<!-- Created with matplotlib (http://matplotlib.org/) -->
<svg height="250.56pt" version="1.1" viewBox="0 0 422.64 250.56" width="422.64pt" xmlns="http://www.w3.org/2000/svg" xmlns:xlink="http://www.w3.org/1999/xlink">
 <defs>
  <style type="text/css">
*{stroke-linecap:butt;stroke-linejoin:round;}
  </style>
 </defs>
 <g id="figure_1">
  <g id="patch_1">
   <path d="M 0 250.56 
L 422.64 250.56 
L 422.64 0 
L 0 0 
z
" style="fill:#ffffff;"/>
  </g>
  <g id="axes_1">
   <g id="patch_2">
    <path d="M 201.714545 126.5328 
C 201.714545 116.75713 199.788952 107.076517 196.047965 98.044976 
C 192.306978 89.013434 186.823351 80.806606 179.910909 73.894164 
C 172.998466 66.981722 164.791638 61.498095 155.760097 57.757108 
C 146.728556 54.016121 137.047942 52.090527 127.272273 52.090527 
C 117.496603 52.090527 107.815989 54.016121 98.784448 57.757108 
C 89.752907 61.498095 81.546079 66.981722 74.633637 73.894164 
C 67.721195 80.806606 62.237567 89.013434 58.496581 98.044976 
C 54.755594 107.076517 52.83 116.75713 52.83 126.5328 
C 52.83 136.30847 54.755594 145.989083 58.496581 155.020624 
C 62.237567 164.052166 67.721195 172.258994 74.633637 179.171436 
C 81.546079 186.083878 89.752907 191.567505 98.784448 195.308492 
C 107.815989 199.049479 117.496603 200.975073 127.272273 200.975073 
C 137.047942 200.975073 146.728556 199.049479 155.760097 195.308492 
C 164.791638 191.567505 172.998466 186.083878 179.910909 179.171436 
C 186.823351 172.258994 192.306978 164.052166 196.047965 155.020624 
C 199.788952 145.989083 201.714545 136.30847 201.714545 126.5328 
M 127.272273 126.5328 
C 127.272273 126.5328 127.272273 126.5328 127.272273 126.5328 
C 127.272273 126.5328 127.272273 126.5328 127.272273 126.5328 
C 127.272273 126.5328 127.272273 126.5328 127.272273 126.5328 
C 127.272273 126.5328 127.272273 126.5328 127.272273 126.5328 
C 127.272273 126.5328 127.272273 126.5328 127.272273 126.5328 
C 127.272273 126.5328 127.272273 126.5328 127.272273 126.5328 
C 127.272273 126.5328 127.272273 126.5328 127.272273 126.5328 
C 127.272273 126.5328 127.272273 126.5328 127.272273 126.5328 
C 127.272273 126.5328 127.272273 126.5328 127.272273 126.5328 
C 127.272273 126.5328 127.272273 126.5328 127.272273 126.5328 
C 127.272273 126.5328 127.272273 126.5328 127.272273 126.5328 
C 127.272273 126.5328 127.272273 126.5328 127.272273 126.5328 
C 127.272273 126.5328 127.272273 126.5328 127.272273 126.5328 
C 127.272273 126.5328 127.272273 126.5328 127.272273 126.5328 
C 127.272273 126.5328 127.272273 126.5328 127.272273 126.5328 
C 127.272273 126.5328 127.272273 126.5328 127.272273 126.5328 
M 201.714545 126.5328 
z
" style="fill:#ffffff;"/>
   </g>
   <g id="matplotlib.axis_1">
    <g id="xtick_1">
     <g id="line2d_1">
      <path clip-path="url(#pdeea9d535b)" d="M 127.272273 126.5328 
L 201.714545 126.5328 
" style="fill:none;stroke:#b0b0b0;stroke-linecap:square;stroke-width:0.8;"/>
     </g>
     <g id="text_1">
      <!-- 0° -->
      <defs>
       <path d="M 31.78125 66.40625 
Q 24.171875 66.40625 20.328125 58.90625 
Q 16.5 51.421875 16.5 36.375 
Q 16.5 21.390625 20.328125 13.890625 
Q 24.171875 6.390625 31.78125 6.390625 
Q 39.453125 6.390625 43.28125 13.890625 
Q 47.125 21.390625 47.125 36.375 
Q 47.125 51.421875 43.28125 58.90625 
Q 39.453125 66.40625 31.78125 66.40625 
z
M 31.78125 74.21875 
Q 44.046875 74.21875 50.515625 64.515625 
Q 56.984375 54.828125 56.984375 36.375 
Q 56.984375 17.96875 50.515625 8.265625 
Q 44.046875 -1.421875 31.78125 -1.421875 
Q 19.53125 -1.421875 13.0625 8.265625 
Q 6.59375 17.96875 6.59375 36.375 
Q 6.59375 54.828125 13.0625 64.515625 
Q 19.53125 74.21875 31.78125 74.21875 
z
" id="DejaVuSans-30"/>
       <path d="M 25 67.921875 
Q 21.09375 67.921875 18.40625 65.203125 
Q 15.71875 62.5 15.71875 58.59375 
Q 15.71875 54.734375 18.40625 52.078125 
Q 21.09375 49.421875 25 49.421875 
Q 28.90625 49.421875 31.59375 52.078125 
Q 34.28125 54.734375 34.28125 58.59375 
Q 34.28125 62.453125 31.5625 65.1875 
Q 28.859375 67.921875 25 67.921875 
z
M 25 74.21875 
Q 28.125 74.21875 31 73.015625 
Q 33.890625 71.828125 35.984375 69.578125 
Q 38.234375 67.390625 39.359375 64.59375 
Q 40.484375 61.8125 40.484375 58.59375 
Q 40.484375 52.15625 35.96875 47.6875 
Q 31.453125 43.21875 24.90625 43.21875 
Q 18.3125 43.21875 13.90625 47.609375 
Q 9.515625 52 9.515625 58.59375 
Q 9.515625 65.140625 14 69.671875 
Q 18.5 74.21875 25 74.21875 
z
" id="DejaVuSans-b0"/>
      </defs>
      <g transform="translate(210.033295 129.292175)scale(0.1 -0.1)">
       <use xlink:href="#DejaVuSans-30"/>
       <use x="63.623047" xlink:href="#DejaVuSans-b0"/>
      </g>
     </g>
    </g>
    <g id="xtick_2">
     <g id="line2d_2">
      <path clip-path="url(#pdeea9d535b)" d="M 127.272273 126.5328 
L 179.910909 73.894164 
" style="fill:none;stroke:#b0b0b0;stroke-linecap:square;stroke-width:0.8;"/>
     </g>
     <g id="text_2">
      <!-- 45° -->
      <defs>
       <path d="M 37.796875 64.3125 
L 12.890625 25.390625 
L 37.796875 25.390625 
z
M 35.203125 72.90625 
L 47.609375 72.90625 
L 47.609375 25.390625 
L 58.015625 25.390625 
L 58.015625 17.1875 
L 47.609375 17.1875 
L 47.609375 0 
L 37.796875 0 
L 37.796875 17.1875 
L 4.890625 17.1875 
L 4.890625 26.703125 
z
" id="DejaVuSans-34"/>
       <path d="M 10.796875 72.90625 
L 49.515625 72.90625 
L 49.515625 64.59375 
L 19.828125 64.59375 
L 19.828125 46.734375 
Q 21.96875 47.46875 24.109375 47.828125 
Q 26.265625 48.1875 28.421875 48.1875 
Q 40.625 48.1875 47.75 41.5 
Q 54.890625 34.8125 54.890625 23.390625 
Q 54.890625 11.625 47.5625 5.09375 
Q 40.234375 -1.421875 26.90625 -1.421875 
Q 22.3125 -1.421875 17.546875 -0.640625 
Q 12.796875 0.140625 7.71875 1.703125 
L 7.71875 11.625 
Q 12.109375 9.234375 16.796875 8.0625 
Q 21.484375 6.890625 26.703125 6.890625 
Q 35.15625 6.890625 40.078125 11.328125 
Q 45.015625 15.765625 45.015625 23.390625 
Q 45.015625 31 40.078125 35.4375 
Q 35.15625 39.890625 26.703125 39.890625 
Q 22.75 39.890625 18.8125 39.015625 
Q 14.890625 38.140625 10.796875 36.28125 
z
" id="DejaVuSans-35"/>
      </defs>
      <g transform="translate(180.947904 66.754044)scale(0.1 -0.1)">
       <use xlink:href="#DejaVuSans-34"/>
       <use x="63.623047" xlink:href="#DejaVuSans-35"/>
       <use x="127.246094" xlink:href="#DejaVuSans-b0"/>
      </g>
     </g>
    </g>
    <g id="xtick_3">
     <g id="line2d_3">
      <path clip-path="url(#pdeea9d535b)" d="M 127.272273 126.5328 
L 127.272273 52.090527 
" style="fill:none;stroke:#b0b0b0;stroke-linecap:square;stroke-width:0.8;"/>
     </g>
     <g id="text_3">
      <!-- 90° -->
      <defs>
       <path d="M 10.984375 1.515625 
L 10.984375 10.5 
Q 14.703125 8.734375 18.5 7.8125 
Q 22.3125 6.890625 25.984375 6.890625 
Q 35.75 6.890625 40.890625 13.453125 
Q 46.046875 20.015625 46.78125 33.40625 
Q 43.953125 29.203125 39.59375 26.953125 
Q 35.25 24.703125 29.984375 24.703125 
Q 19.046875 24.703125 12.671875 31.3125 
Q 6.296875 37.9375 6.296875 49.421875 
Q 6.296875 60.640625 12.9375 67.421875 
Q 19.578125 74.21875 30.609375 74.21875 
Q 43.265625 74.21875 49.921875 64.515625 
Q 56.59375 54.828125 56.59375 36.375 
Q 56.59375 19.140625 48.40625 8.859375 
Q 40.234375 -1.421875 26.421875 -1.421875 
Q 22.703125 -1.421875 18.890625 -0.6875 
Q 15.09375 0.046875 10.984375 1.515625 
z
M 30.609375 32.421875 
Q 37.25 32.421875 41.125 36.953125 
Q 45.015625 41.5 45.015625 49.421875 
Q 45.015625 57.28125 41.125 61.84375 
Q 37.25 66.40625 30.609375 66.40625 
Q 23.96875 66.40625 20.09375 61.84375 
Q 16.21875 57.28125 16.21875 49.421875 
Q 16.21875 41.5 20.09375 36.953125 
Q 23.96875 32.421875 30.609375 32.421875 
z
" id="DejaVuSans-39"/>
      </defs>
      <g transform="translate(118.409773 40.849902)scale(0.1 -0.1)">
       <use xlink:href="#DejaVuSans-39"/>
       <use x="63.623047" xlink:href="#DejaVuSans-30"/>
       <use x="127.246094" xlink:href="#DejaVuSans-b0"/>
      </g>
     </g>
    </g>
    <g id="xtick_4">
     <g id="line2d_4">
      <path clip-path="url(#pdeea9d535b)" d="M 127.272273 126.5328 
L 74.633637 73.894164 
" style="fill:none;stroke:#b0b0b0;stroke-linecap:square;stroke-width:0.8;"/>
     </g>
     <g id="text_4">
      <!-- 135° -->
      <defs>
       <path d="M 12.40625 8.296875 
L 28.515625 8.296875 
L 28.515625 63.921875 
L 10.984375 60.40625 
L 10.984375 69.390625 
L 28.421875 72.90625 
L 38.28125 72.90625 
L 38.28125 8.296875 
L 54.390625 8.296875 
L 54.390625 0 
L 12.40625 0 
z
" id="DejaVuSans-31"/>
       <path d="M 40.578125 39.3125 
Q 47.65625 37.796875 51.625 33 
Q 55.609375 28.21875 55.609375 21.1875 
Q 55.609375 10.40625 48.1875 4.484375 
Q 40.765625 -1.421875 27.09375 -1.421875 
Q 22.515625 -1.421875 17.65625 -0.515625 
Q 12.796875 0.390625 7.625 2.203125 
L 7.625 11.71875 
Q 11.71875 9.328125 16.59375 8.109375 
Q 21.484375 6.890625 26.8125 6.890625 
Q 36.078125 6.890625 40.9375 10.546875 
Q 45.796875 14.203125 45.796875 21.1875 
Q 45.796875 27.640625 41.28125 31.265625 
Q 36.765625 34.90625 28.71875 34.90625 
L 20.21875 34.90625 
L 20.21875 43.015625 
L 29.109375 43.015625 
Q 36.375 43.015625 40.234375 45.921875 
Q 44.09375 48.828125 44.09375 54.296875 
Q 44.09375 59.90625 40.109375 62.90625 
Q 36.140625 65.921875 28.71875 65.921875 
Q 24.65625 65.921875 20.015625 65.03125 
Q 15.375 64.15625 9.8125 62.3125 
L 9.8125 71.09375 
Q 15.4375 72.65625 20.34375 73.4375 
Q 25.25 74.21875 29.59375 74.21875 
Q 40.828125 74.21875 47.359375 69.109375 
Q 53.90625 64.015625 53.90625 55.328125 
Q 53.90625 49.265625 50.4375 45.09375 
Q 46.96875 40.921875 40.578125 39.3125 
z
" id="DejaVuSans-33"/>
      </defs>
      <g transform="translate(52.690392 66.754044)scale(0.1 -0.1)">
       <use xlink:href="#DejaVuSans-31"/>
       <use x="63.623047" xlink:href="#DejaVuSans-33"/>
       <use x="127.246094" xlink:href="#DejaVuSans-35"/>
       <use x="190.869141" xlink:href="#DejaVuSans-b0"/>
      </g>
     </g>
    </g>
    <g id="xtick_5">
     <g id="line2d_5">
      <path clip-path="url(#pdeea9d535b)" d="M 127.272273 126.5328 
L 52.83 126.5328 
" style="fill:none;stroke:#b0b0b0;stroke-linecap:square;stroke-width:0.8;"/>
     </g>
     <g id="text_5">
      <!-- 180° -->
      <defs>
       <path d="M 31.78125 34.625 
Q 24.75 34.625 20.71875 30.859375 
Q 16.703125 27.09375 16.703125 20.515625 
Q 16.703125 13.921875 20.71875 10.15625 
Q 24.75 6.390625 31.78125 6.390625 
Q 38.8125 6.390625 42.859375 10.171875 
Q 46.921875 13.96875 46.921875 20.515625 
Q 46.921875 27.09375 42.890625 30.859375 
Q 38.875 34.625 31.78125 34.625 
z
M 21.921875 38.8125 
Q 15.578125 40.375 12.03125 44.71875 
Q 8.5 49.078125 8.5 55.328125 
Q 8.5 64.0625 14.71875 69.140625 
Q 20.953125 74.21875 31.78125 74.21875 
Q 42.671875 74.21875 48.875 69.140625 
Q 55.078125 64.0625 55.078125 55.328125 
Q 55.078125 49.078125 51.53125 44.71875 
Q 48 40.375 41.703125 38.8125 
Q 48.828125 37.15625 52.796875 32.3125 
Q 56.78125 27.484375 56.78125 20.515625 
Q 56.78125 9.90625 50.3125 4.234375 
Q 43.84375 -1.421875 31.78125 -1.421875 
Q 19.734375 -1.421875 13.25 4.234375 
Q 6.78125 9.90625 6.78125 20.515625 
Q 6.78125 27.484375 10.78125 32.3125 
Q 14.796875 37.15625 21.921875 38.8125 
z
M 18.3125 54.390625 
Q 18.3125 48.734375 21.84375 45.5625 
Q 25.390625 42.390625 31.78125 42.390625 
Q 38.140625 42.390625 41.71875 45.5625 
Q 45.3125 48.734375 45.3125 54.390625 
Q 45.3125 60.0625 41.71875 63.234375 
Q 38.140625 66.40625 31.78125 66.40625 
Q 25.390625 66.40625 21.84375 63.234375 
Q 18.3125 60.0625 18.3125 54.390625 
z
" id="DejaVuSans-38"/>
      </defs>
      <g transform="translate(26.78625 129.292175)scale(0.1 -0.1)">
       <use xlink:href="#DejaVuSans-31"/>
       <use x="63.623047" xlink:href="#DejaVuSans-38"/>
       <use x="127.246094" xlink:href="#DejaVuSans-30"/>
       <use x="190.869141" xlink:href="#DejaVuSans-b0"/>
      </g>
     </g>
    </g>
    <g id="xtick_6">
     <g id="line2d_6">
      <path clip-path="url(#pdeea9d535b)" d="M 127.272273 126.5328 
L 74.633637 179.171436 
" style="fill:none;stroke:#b0b0b0;stroke-linecap:square;stroke-width:0.8;"/>
     </g>
     <g id="text_6">
      <!-- 225° -->
      <defs>
       <path d="M 19.1875 8.296875 
L 53.609375 8.296875 
L 53.609375 0 
L 7.328125 0 
L 7.328125 8.296875 
Q 12.9375 14.109375 22.625 23.890625 
Q 32.328125 33.6875 34.8125 36.53125 
Q 39.546875 41.84375 41.421875 45.53125 
Q 43.3125 49.21875 43.3125 52.78125 
Q 43.3125 58.59375 39.234375 62.25 
Q 35.15625 65.921875 28.609375 65.921875 
Q 23.96875 65.921875 18.8125 64.3125 
Q 13.671875 62.703125 7.8125 59.421875 
L 7.8125 69.390625 
Q 13.765625 71.78125 18.9375 73 
Q 24.125 74.21875 28.421875 74.21875 
Q 39.75 74.21875 46.484375 68.546875 
Q 53.21875 62.890625 53.21875 53.421875 
Q 53.21875 48.921875 51.53125 44.890625 
Q 49.859375 40.875 45.40625 35.40625 
Q 44.1875 33.984375 37.640625 27.21875 
Q 31.109375 20.453125 19.1875 8.296875 
z
" id="DejaVuSans-32"/>
      </defs>
      <g transform="translate(52.690392 191.830306)scale(0.1 -0.1)">
       <use xlink:href="#DejaVuSans-32"/>
       <use x="63.623047" xlink:href="#DejaVuSans-32"/>
       <use x="127.246094" xlink:href="#DejaVuSans-35"/>
       <use x="190.869141" xlink:href="#DejaVuSans-b0"/>
      </g>
     </g>
    </g>
    <g id="xtick_7">
     <g id="line2d_7">
      <path clip-path="url(#pdeea9d535b)" d="M 127.272273 126.5328 
L 127.272273 200.975073 
" style="fill:none;stroke:#b0b0b0;stroke-linecap:square;stroke-width:0.8;"/>
     </g>
     <g id="text_7">
      <!-- 270° -->
      <defs>
       <path d="M 8.203125 72.90625 
L 55.078125 72.90625 
L 55.078125 68.703125 
L 28.609375 0 
L 18.3125 0 
L 43.21875 64.59375 
L 8.203125 64.59375 
z
" id="DejaVuSans-37"/>
      </defs>
      <g transform="translate(115.228523 217.734448)scale(0.1 -0.1)">
       <use xlink:href="#DejaVuSans-32"/>
       <use x="63.623047" xlink:href="#DejaVuSans-37"/>
       <use x="127.246094" xlink:href="#DejaVuSans-30"/>
       <use x="190.869141" xlink:href="#DejaVuSans-b0"/>
      </g>
     </g>
    </g>
    <g id="xtick_8">
     <g id="line2d_8">
      <path clip-path="url(#pdeea9d535b)" d="M 127.272273 126.5328 
L 179.910909 179.171436 
" style="fill:none;stroke:#b0b0b0;stroke-linecap:square;stroke-width:0.8;"/>
     </g>
     <g id="text_8">
      <!-- 315° -->
      <g transform="translate(177.766654 191.830306)scale(0.1 -0.1)">
       <use xlink:href="#DejaVuSans-33"/>
       <use x="63.623047" xlink:href="#DejaVuSans-31"/>
       <use x="127.246094" xlink:href="#DejaVuSans-35"/>
       <use x="190.869141" xlink:href="#DejaVuSans-b0"/>
      </g>
     </g>
    </g>
   </g>
   <g id="matplotlib.axis_2">
    <g id="ytick_1">
     <g id="line2d_9">
      <path clip-path="url(#pdeea9d535b)" d="M 129.78224 126.5328 
L 129.659393 125.757177 
L 129.302879 125.057478 
L 128.747594 124.502194 
L 128.047895 124.145679 
L 127.272273 124.022833 
L 126.49665 124.145679 
L 125.796951 124.502194 
L 125.241667 125.057478 
L 124.885152 125.757177 
L 124.762306 126.5328 
L 124.885152 127.308423 
L 125.241667 128.008122 
L 125.796951 128.563406 
L 126.49665 128.919921 
L 127.272273 129.042767 
L 128.047895 128.919921 
L 128.747594 128.563406 
L 129.302879 128.008122 
L 129.659393 127.308423 
L 129.78224 126.5328 
L 129.78224 126.5328 
" style="fill:none;stroke:#b0b0b0;stroke-linecap:square;stroke-width:0.8;"/>
     </g>
     <g id="text_9">
      <!-- 0 -->
      <g transform="translate(129.59118 123.49259)scale(0.1 -0.1)">
       <use xlink:href="#DejaVuSans-30"/>
      </g>
     </g>
    </g>
    <g id="ytick_2">
     <g id="line2d_10">
      <path clip-path="url(#pdeea9d535b)" d="M 144.819625 126.5328 
L 144.723498 124.698602 
L 144.436173 122.8845 
L 143.960796 121.11037 
L 143.302576 119.395649 
L 142.468725 117.759124 
L 141.468379 116.218725 
L 140.312496 114.79133 
L 139.013743 113.492576 
L 137.586347 112.336694 
L 136.045949 111.336348 
L 134.409424 110.502496 
L 132.694703 109.844277 
L 130.920572 109.3689 
L 129.10647 109.081574 
L 127.272273 108.985448 
L 125.438075 109.081574 
L 123.623973 109.3689 
L 121.849843 109.844277 
L 120.135122 110.502496 
L 118.498597 111.336348 
L 116.958198 112.336694 
L 115.530803 113.492576 
L 114.232049 114.79133 
L 113.076167 116.218725 
L 112.07582 117.759124 
L 111.241969 119.395649 
L 110.583749 121.11037 
L 110.108373 122.8845 
L 109.821047 124.698602 
L 109.724921 126.5328 
L 109.821047 128.366998 
L 110.108373 130.1811 
L 110.583749 131.95523 
L 111.241969 133.669951 
L 112.07582 135.306476 
L 113.076167 136.846875 
L 114.232049 138.27427 
L 115.530803 139.573024 
L 116.958198 140.728906 
L 118.498597 141.729252 
L 120.135122 142.563104 
L 121.849843 143.221323 
L 123.623973 143.6967 
L 125.438075 143.984026 
L 127.272273 144.080152 
L 129.10647 143.984026 
L 130.920572 143.6967 
L 132.694703 143.221323 
L 134.409424 142.563104 
L 136.045949 141.729252 
L 137.586347 140.728906 
L 139.013743 139.573024 
L 140.312496 138.27427 
L 141.468379 136.846875 
L 142.468725 135.306476 
L 143.302576 133.669951 
L 143.960796 131.95523 
L 144.436173 130.1811 
L 144.723498 128.366998 
L 144.819625 126.5328 
L 144.819625 126.5328 
" style="fill:none;stroke:#b0b0b0;stroke-linecap:square;stroke-width:0.8;"/>
     </g>
     <g id="text_10">
      <!-- 2 -->
      <g transform="translate(143.483912 117.738032)scale(0.1 -0.1)">
       <use xlink:href="#DejaVuSans-32"/>
      </g>
     </g>
    </g>
    <g id="ytick_3">
     <g id="line2d_11">
      <path clip-path="url(#pdeea9d535b)" d="M 159.857009 126.5328 
L 159.777634 124.259804 
L 159.539897 121.997881 
L 159.144954 119.758052 
L 158.594732 117.551229 
L 157.891909 115.388164 
L 157.039911 113.279394 
L 156.042887 111.235193 
L 154.905696 109.26552 
L 153.633878 107.379972 
L 152.233629 105.587735 
L 150.711771 103.89754 
L 149.075717 102.317622 
L 147.33344 100.855677 
L 145.493426 99.518829 
L 143.564641 98.31359 
L 141.556481 97.245833 
L 139.47873 96.320758 
L 137.34151 95.542874 
L 135.155234 94.915969 
L 132.930553 94.443099 
L 130.678305 94.126566 
L 128.409464 93.967913 
L 126.135082 93.967913 
L 123.86624 94.126566 
L 121.613993 94.443099 
L 119.389312 94.915969 
L 117.203035 95.542874 
L 115.065816 96.320758 
L 112.988064 97.245833 
L 110.979905 98.31359 
L 109.051119 99.518829 
L 107.211106 100.855677 
L 105.468828 102.317622 
L 103.832775 103.89754 
L 102.310916 105.587735 
L 100.910667 107.379972 
L 99.638849 109.26552 
L 98.501658 111.235193 
L 97.504635 113.279394 
L 96.652636 115.388164 
L 95.949814 117.551229 
L 95.399591 119.758052 
L 95.004649 121.997881 
L 94.766911 124.259804 
L 94.687536 126.5328 
L 94.766911 128.805796 
L 95.004649 131.067719 
L 95.399591 133.307548 
L 95.949814 135.514371 
L 96.652636 137.677436 
L 97.504635 139.786206 
L 98.501658 141.830407 
L 99.638849 143.80008 
L 100.910667 145.685628 
L 102.310916 147.477865 
L 103.832775 149.16806 
L 105.468828 150.747978 
L 107.211106 152.209923 
L 109.051119 153.546771 
L 110.979905 154.75201 
L 112.988064 155.819767 
L 115.065816 156.744842 
L 117.203035 157.522726 
L 119.389312 158.149631 
L 121.613993 158.622501 
L 123.86624 158.939034 
L 126.135082 159.097687 
L 128.409464 159.097687 
L 130.678305 158.939034 
L 132.930553 158.622501 
L 135.155234 158.149631 
L 137.34151 157.522726 
L 139.47873 156.744842 
L 141.556481 155.819767 
L 143.564641 154.75201 
L 145.493426 153.546771 
L 147.33344 152.209923 
L 149.075717 150.747978 
L 150.711771 149.16806 
L 152.233629 147.477865 
L 153.633878 145.685628 
L 154.905696 143.80008 
L 156.042887 141.830407 
L 157.039911 139.786206 
L 157.891909 137.677436 
L 158.594732 135.514371 
L 159.144954 133.307548 
L 159.539897 131.067719 
L 159.777634 128.805796 
L 159.857009 126.5328 
L 159.857009 126.5328 
" style="fill:none;stroke:#b0b0b0;stroke-linecap:square;stroke-width:0.8;"/>
     </g>
     <g id="text_11">
      <!-- 4 -->
      <g transform="translate(157.376644 111.983474)scale(0.1 -0.1)">
       <use xlink:href="#DejaVuSans-34"/>
      </g>
     </g>
    </g>
    <g id="ytick_4">
     <g id="line2d_12">
      <path clip-path="url(#pdeea9d535b)" d="M 174.894394 126.5328 
L 174.778389 123.210849 
L 174.430939 119.905082 
L 173.853736 116.631604 
L 173.049594 113.406364 
L 172.022428 110.245075 
L 170.777245 107.163138 
L 169.32011 104.175568 
L 167.658122 101.296921 
L 165.799378 98.54122 
L 163.752934 95.921891 
L 161.52876 93.451695 
L 159.137691 91.142667 
L 156.591378 89.006057 
L 153.902225 87.052272 
L 151.083333 85.290833 
L 148.148437 83.730321 
L 145.111833 82.378338 
L 141.988317 81.241471 
L 138.793107 80.325259 
L 135.541767 79.634166 
L 132.25014 79.171558 
L 128.934261 78.939689 
L 125.610285 78.939689 
L 122.294406 79.171558 
L 119.002778 79.634166 
L 115.751439 80.325259 
L 112.556228 81.241471 
L 109.432712 82.378338 
L 106.396109 83.730321 
L 103.461212 85.290833 
L 100.642321 87.052272 
L 97.953167 89.006057 
L 95.406854 91.142667 
L 93.015786 93.451695 
L 90.791612 95.921891 
L 88.745167 98.54122 
L 86.886424 101.296921 
L 85.224436 104.175568 
L 83.7673 107.163138 
L 82.522117 110.245075 
L 81.494952 113.406364 
L 80.690809 116.631604 
L 80.113607 119.905082 
L 79.766157 123.210849 
L 79.650152 126.5328 
L 79.766157 129.854751 
L 80.113607 133.160518 
L 80.690809 136.433996 
L 81.494952 139.659236 
L 82.522117 142.820525 
L 83.7673 145.902462 
L 85.224436 148.890032 
L 86.886424 151.768679 
L 88.745167 154.52438 
L 90.791612 157.143709 
L 93.015786 159.613905 
L 95.406854 161.922933 
L 97.953167 164.059543 
L 100.642321 166.013328 
L 103.461212 167.774767 
L 106.396109 169.335279 
L 109.432712 170.687262 
L 112.556228 171.824129 
L 115.751439 172.740341 
L 119.002778 173.431434 
L 122.294406 173.894042 
L 125.610285 174.125911 
L 128.934261 174.125911 
L 132.25014 173.894042 
L 135.541767 173.431434 
L 138.793107 172.740341 
L 141.988317 171.824129 
L 145.111833 170.687262 
L 148.148437 169.335279 
L 151.083333 167.774767 
L 153.902225 166.013328 
L 156.591378 164.059543 
L 159.137691 161.922933 
L 161.52876 159.613905 
L 163.752934 157.143709 
L 165.799378 154.52438 
L 167.658122 151.768679 
L 169.32011 148.890032 
L 170.777245 145.902462 
L 172.022428 142.820525 
L 173.049594 139.659236 
L 173.853736 136.433996 
L 174.430939 133.160518 
L 174.778389 129.854751 
L 174.894394 126.5328 
L 174.894394 126.5328 
" style="fill:none;stroke:#b0b0b0;stroke-linecap:square;stroke-width:0.8;"/>
     </g>
     <g id="text_12">
      <!-- 6 -->
      <defs>
       <path d="M 33.015625 40.375 
Q 26.375 40.375 22.484375 35.828125 
Q 18.609375 31.296875 18.609375 23.390625 
Q 18.609375 15.53125 22.484375 10.953125 
Q 26.375 6.390625 33.015625 6.390625 
Q 39.65625 6.390625 43.53125 10.953125 
Q 47.40625 15.53125 47.40625 23.390625 
Q 47.40625 31.296875 43.53125 35.828125 
Q 39.65625 40.375 33.015625 40.375 
z
M 52.59375 71.296875 
L 52.59375 62.3125 
Q 48.875 64.0625 45.09375 64.984375 
Q 41.3125 65.921875 37.59375 65.921875 
Q 27.828125 65.921875 22.671875 59.328125 
Q 17.53125 52.734375 16.796875 39.40625 
Q 19.671875 43.65625 24.015625 45.921875 
Q 28.375 48.1875 33.59375 48.1875 
Q 44.578125 48.1875 50.953125 41.515625 
Q 57.328125 34.859375 57.328125 23.390625 
Q 57.328125 12.15625 50.6875 5.359375 
Q 44.046875 -1.421875 33.015625 -1.421875 
Q 20.359375 -1.421875 13.671875 8.265625 
Q 6.984375 17.96875 6.984375 36.375 
Q 6.984375 53.65625 15.1875 63.9375 
Q 23.390625 74.21875 37.203125 74.21875 
Q 40.921875 74.21875 44.703125 73.484375 
Q 48.484375 72.75 52.59375 71.296875 
z
" id="DejaVuSans-36"/>
      </defs>
      <g transform="translate(171.269376 106.228916)scale(0.1 -0.1)">
       <use xlink:href="#DejaVuSans-36"/>
      </g>
     </g>
    </g>
    <g id="ytick_5">
     <g id="line2d_13">
      <path clip-path="url(#pdeea9d535b)" d="M 189.931778 126.5328 
L 189.779143 122.161894 
L 189.32198 117.812282 
L 188.562518 113.505156 
L 187.504455 109.2615 
L 186.152948 105.101987 
L 184.51458 101.046883 
L 182.597332 97.115944 
L 180.410547 93.328321 
L 177.964878 89.702467 
L 175.272239 86.256046 
L 172.345749 83.00585 
L 169.199666 79.967713 
L 165.849316 77.156436 
L 162.311024 74.585716 
L 158.602026 72.268076 
L 154.740392 70.214809 
L 150.744937 68.435918 
L 146.635125 66.940069 
L 142.430979 65.734549 
L 138.152982 64.825233 
L 133.821975 64.21655 
L 129.459058 63.911465 
L 125.085488 63.911465 
L 120.722571 64.21655 
L 116.391564 64.825233 
L 112.113566 65.734549 
L 107.909421 66.940069 
L 103.799609 68.435918 
L 99.804153 70.214809 
L 95.94252 72.268076 
L 92.233522 74.585716 
L 88.695229 77.156436 
L 85.34488 79.967713 
L 82.198796 83.00585 
L 79.272307 86.256046 
L 76.579668 89.702467 
L 74.133998 93.328321 
L 71.947213 97.115944 
L 70.029966 101.046883 
L 68.391598 105.101987 
L 67.04009 109.2615 
L 65.982028 113.505156 
L 65.222565 117.812282 
L 64.765402 122.161894 
L 64.612767 126.5328 
L 64.765402 130.903706 
L 65.222565 135.253318 
L 65.982028 139.560444 
L 67.04009 143.8041 
L 68.391598 147.963613 
L 70.029966 152.018717 
L 71.947213 155.949656 
L 74.133998 159.737279 
L 76.579668 163.363133 
L 79.272307 166.809554 
L 82.198796 170.05975 
L 85.34488 173.097887 
L 88.695229 175.909164 
L 92.233522 178.479884 
L 95.94252 180.797524 
L 99.804153 182.850791 
L 103.799609 184.629682 
L 107.909421 186.125531 
L 112.113566 187.331051 
L 116.391564 188.240367 
L 120.722571 188.84905 
L 125.085488 189.154135 
L 129.459058 189.154135 
L 133.821975 188.84905 
L 138.152982 188.240367 
L 142.430979 187.331051 
L 146.635125 186.125531 
L 150.744937 184.629682 
L 154.740392 182.850791 
L 158.602026 180.797524 
L 162.311024 178.479884 
L 165.849316 175.909164 
L 169.199666 173.097887 
L 172.345749 170.05975 
L 175.272239 166.809554 
L 177.964878 163.363133 
L 180.410547 159.737279 
L 182.597332 155.949656 
L 184.51458 152.018717 
L 186.152948 147.963613 
L 187.504455 143.8041 
L 188.562518 139.560444 
L 189.32198 135.253318 
L 189.779143 130.903706 
L 189.931778 126.5328 
L 189.931778 126.5328 
" style="fill:none;stroke:#b0b0b0;stroke-linecap:square;stroke-width:0.8;"/>
     </g>
     <g id="text_13">
      <!-- 8 -->
      <g transform="translate(185.162108 100.474358)scale(0.1 -0.1)">
       <use xlink:href="#DejaVuSans-38"/>
      </g>
     </g>
    </g>
   </g>
   <g id="line2d_14">
    <path clip-path="url(#pdeea9d535b)" d="M 136.13625 126.06037 
L 135.060711 125.277968 
L 133.910232 124.722557 
L 132.785314 124.377153 
L 131.770763 124.195261 
L 130.900895 124.125661 
L 130.201187 124.104533 
L 129.685372 124.054585 
L 129.361815 123.871314 
L 129.229219 123.40515 
L 129.278274 122.407505 
L 129.436431 120.531649 
L 129.503117 117.40147 
L 129.124522 112.700782 
L 127.809228 106.369211 
L 125.042797 98.678726 
L 120.439607 90.295558 
L 113.906755 82.20721 
L 105.751858 75.540559 
L 96.712273 71.362619 
L 87.872924 70.441459 
L 80.47942 73.056225 
L 75.584652 78.817016 
L 73.699879 86.731674 
L 74.605256 95.499063 
L 77.49205 103.944387 
L 81.320879 111.331305 
L 85.262327 117.447327 
L 88.900571 122.4309 
L 92.197529 126.5328 
L 95.295388 129.9511 
L 98.290978 132.800573 
L 101.190222 135.161181 
L 103.936776 137.12158 
L 106.455431 138.799004 
L 108.763514 140.283715 
L 110.856046 141.687553 
L 112.767773 143.10907 
L 114.594433 144.581753 
L 116.471886 146.030814 
L 118.536018 147.2332 
L 120.819333 147.93342 
L 123.238119 147.928054 
L 125.618871 147.189658 
L 127.788586 145.921227 
L 129.671329 144.448201 
L 131.30626 143.044789 
L 132.79012 141.833643 
L 134.183839 140.746273 
L 135.469727 139.634214 
L 136.565602 138.36987 
L 137.399597 136.933405 
L 137.957517 135.391586 
L 138.267532 133.826786 
L 138.37993 132.304644 
L 138.345404 130.862491 
L 138.135186 129.495233 
L 137.712497 128.214874 
L 137.044391 127.053632 
" style="fill:none;stroke:#1f77b4;stroke-linecap:square;stroke-width:1.5;"/>
   </g>
   <g id="patch_3">
    <path d="M 201.714545 126.5328 
C 201.714545 116.75713 199.788952 107.076517 196.047965 98.044976 
C 192.306978 89.013434 186.823351 80.806606 179.910909 73.894164 
C 172.998466 66.981722 164.791638 61.498095 155.760097 57.757108 
C 146.728556 54.016121 137.047942 52.090527 127.272273 52.090527 
C 117.496603 52.090527 107.815989 54.016121 98.784448 57.757108 
C 89.752907 61.498095 81.546079 66.981722 74.633637 73.894164 
C 67.721195 80.806606 62.237567 89.013434 58.496581 98.044976 
C 54.755594 107.076517 52.83 116.75713 52.83 126.5328 
C 52.83 136.30847 54.755594 145.989083 58.496581 155.020624 
C 62.237567 164.052166 67.721195 172.258994 74.633637 179.171436 
C 81.546079 186.083878 89.752907 191.567505 98.784448 195.308492 
C 107.815989 199.049479 117.496603 200.975073 127.272273 200.975073 
C 137.047942 200.975073 146.728556 199.049479 155.760097 195.308492 
C 164.791638 191.567505 172.998466 186.083878 179.910909 179.171436 
C 186.823351 172.258994 192.306978 164.052166 196.047965 155.020624 
C 199.788952 145.989083 201.714545 136.30847 201.714545 126.5328 
" style="fill:none;stroke:#000000;stroke-linecap:square;stroke-linejoin:miter;stroke-width:0.8;"/>
   </g>
  </g>
  <g id="axes_2">
   <g id="patch_4">
    <path d="M 380.376 126.5328 
C 380.376 116.75713 378.450406 107.076517 374.709419 98.044976 
C 370.968433 89.013434 365.484805 80.806606 358.572363 73.894164 
C 351.659921 66.981722 343.453093 61.498095 334.421552 57.757108 
C 325.390011 54.016121 315.709397 52.090527 305.933727 52.090527 
C 296.158058 52.090527 286.477444 54.016121 277.445903 57.757108 
C 268.414362 61.498095 260.207534 66.981722 253.295091 73.894164 
C 246.382649 80.806606 240.899022 89.013434 237.158035 98.044976 
C 233.417048 107.076517 231.491455 116.75713 231.491455 126.5328 
C 231.491455 136.30847 233.417048 145.989083 237.158035 155.020624 
C 240.899022 164.052166 246.382649 172.258994 253.295091 179.171436 
C 260.207534 186.083878 268.414362 191.567505 277.445903 195.308492 
C 286.477444 199.049479 296.158058 200.975073 305.933727 200.975073 
C 315.709397 200.975073 325.390011 199.049479 334.421552 195.308492 
C 343.453093 191.567505 351.659921 186.083878 358.572363 179.171436 
C 365.484805 172.258994 370.968433 164.052166 374.709419 155.020624 
C 378.450406 145.989083 380.376 136.30847 380.376 126.5328 
M 305.933727 126.5328 
C 305.933727 126.5328 305.933727 126.5328 305.933727 126.5328 
C 305.933727 126.5328 305.933727 126.5328 305.933727 126.5328 
C 305.933727 126.5328 305.933727 126.5328 305.933727 126.5328 
C 305.933727 126.5328 305.933727 126.5328 305.933727 126.5328 
C 305.933727 126.5328 305.933727 126.5328 305.933727 126.5328 
C 305.933727 126.5328 305.933727 126.5328 305.933727 126.5328 
C 305.933727 126.5328 305.933727 126.5328 305.933727 126.5328 
C 305.933727 126.5328 305.933727 126.5328 305.933727 126.5328 
C 305.933727 126.5328 305.933727 126.5328 305.933727 126.5328 
C 305.933727 126.5328 305.933727 126.5328 305.933727 126.5328 
C 305.933727 126.5328 305.933727 126.5328 305.933727 126.5328 
C 305.933727 126.5328 305.933727 126.5328 305.933727 126.5328 
C 305.933727 126.5328 305.933727 126.5328 305.933727 126.5328 
C 305.933727 126.5328 305.933727 126.5328 305.933727 126.5328 
C 305.933727 126.5328 305.933727 126.5328 305.933727 126.5328 
C 305.933727 126.5328 305.933727 126.5328 305.933727 126.5328 
M 380.376 126.5328 
z
" style="fill:#ffffff;"/>
   </g>
   <g id="matplotlib.axis_3">
    <g id="xtick_9">
     <g id="line2d_15">
      <path clip-path="url(#pc16d437a84)" d="M 305.933727 126.5328 
L 380.376 126.5328 
" style="fill:none;stroke:#b0b0b0;stroke-linecap:square;stroke-width:0.8;"/>
     </g>
     <g id="text_14">
      <!-- 0° -->
      <g transform="translate(388.69475 129.292175)scale(0.1 -0.1)">
       <use xlink:href="#DejaVuSans-30"/>
       <use x="63.623047" xlink:href="#DejaVuSans-b0"/>
      </g>
     </g>
    </g>
    <g id="xtick_10">
     <g id="line2d_16">
      <path clip-path="url(#pc16d437a84)" d="M 305.933727 126.5328 
L 358.572363 73.894164 
" style="fill:none;stroke:#b0b0b0;stroke-linecap:square;stroke-width:0.8;"/>
     </g>
     <g id="text_15">
      <!-- 45° -->
      <g transform="translate(359.609358 66.754044)scale(0.1 -0.1)">
       <use xlink:href="#DejaVuSans-34"/>
       <use x="63.623047" xlink:href="#DejaVuSans-35"/>
       <use x="127.246094" xlink:href="#DejaVuSans-b0"/>
      </g>
     </g>
    </g>
    <g id="xtick_11">
     <g id="line2d_17">
      <path clip-path="url(#pc16d437a84)" d="M 305.933727 126.5328 
L 305.933727 52.090527 
" style="fill:none;stroke:#b0b0b0;stroke-linecap:square;stroke-width:0.8;"/>
     </g>
     <g id="text_16">
      <!-- 90° -->
      <g transform="translate(297.071227 40.849902)scale(0.1 -0.1)">
       <use xlink:href="#DejaVuSans-39"/>
       <use x="63.623047" xlink:href="#DejaVuSans-30"/>
       <use x="127.246094" xlink:href="#DejaVuSans-b0"/>
      </g>
     </g>
    </g>
    <g id="xtick_12">
     <g id="line2d_18">
      <path clip-path="url(#pc16d437a84)" d="M 305.933727 126.5328 
L 253.295091 73.894164 
" style="fill:none;stroke:#b0b0b0;stroke-linecap:square;stroke-width:0.8;"/>
     </g>
     <g id="text_17">
      <!-- 135° -->
      <g transform="translate(231.351846 66.754044)scale(0.1 -0.1)">
       <use xlink:href="#DejaVuSans-31"/>
       <use x="63.623047" xlink:href="#DejaVuSans-33"/>
       <use x="127.246094" xlink:href="#DejaVuSans-35"/>
       <use x="190.869141" xlink:href="#DejaVuSans-b0"/>
      </g>
     </g>
    </g>
    <g id="xtick_13">
     <g id="line2d_19">
      <path clip-path="url(#pc16d437a84)" d="M 305.933727 126.5328 
L 231.491455 126.5328 
" style="fill:none;stroke:#b0b0b0;stroke-linecap:square;stroke-width:0.8;"/>
     </g>
     <g id="text_18">
      <!-- 180° -->
      <g transform="translate(205.447705 129.292175)scale(0.1 -0.1)">
       <use xlink:href="#DejaVuSans-31"/>
       <use x="63.623047" xlink:href="#DejaVuSans-38"/>
       <use x="127.246094" xlink:href="#DejaVuSans-30"/>
       <use x="190.869141" xlink:href="#DejaVuSans-b0"/>
      </g>
     </g>
    </g>
    <g id="xtick_14">
     <g id="line2d_20">
      <path clip-path="url(#pc16d437a84)" d="M 305.933727 126.5328 
L 253.295091 179.171436 
" style="fill:none;stroke:#b0b0b0;stroke-linecap:square;stroke-width:0.8;"/>
     </g>
     <g id="text_19">
      <!-- 225° -->
      <g transform="translate(231.351846 191.830306)scale(0.1 -0.1)">
       <use xlink:href="#DejaVuSans-32"/>
       <use x="63.623047" xlink:href="#DejaVuSans-32"/>
       <use x="127.246094" xlink:href="#DejaVuSans-35"/>
       <use x="190.869141" xlink:href="#DejaVuSans-b0"/>
      </g>
     </g>
    </g>
    <g id="xtick_15">
     <g id="line2d_21">
      <path clip-path="url(#pc16d437a84)" d="M 305.933727 126.5328 
L 305.933727 200.975073 
" style="fill:none;stroke:#b0b0b0;stroke-linecap:square;stroke-width:0.8;"/>
     </g>
     <g id="text_20">
      <!-- 270° -->
      <g transform="translate(293.889977 217.734448)scale(0.1 -0.1)">
       <use xlink:href="#DejaVuSans-32"/>
       <use x="63.623047" xlink:href="#DejaVuSans-37"/>
       <use x="127.246094" xlink:href="#DejaVuSans-30"/>
       <use x="190.869141" xlink:href="#DejaVuSans-b0"/>
      </g>
     </g>
    </g>
    <g id="xtick_16">
     <g id="line2d_22">
      <path clip-path="url(#pc16d437a84)" d="M 305.933727 126.5328 
L 358.572363 179.171436 
" style="fill:none;stroke:#b0b0b0;stroke-linecap:square;stroke-width:0.8;"/>
     </g>
     <g id="text_21">
      <!-- 315° -->
      <g transform="translate(356.428108 191.830306)scale(0.1 -0.1)">
       <use xlink:href="#DejaVuSans-33"/>
       <use x="63.623047" xlink:href="#DejaVuSans-31"/>
       <use x="127.246094" xlink:href="#DejaVuSans-35"/>
       <use x="190.869141" xlink:href="#DejaVuSans-b0"/>
      </g>
     </g>
    </g>
   </g>
   <g id="matplotlib.axis_4">
    <g id="ytick_6">
     <g id="line2d_23">
      <path clip-path="url(#pc16d437a84)" d="M 307.042606 126.5328 
L 306.930381 126.0467 
L 306.616421 125.658992 
L 306.164276 125.448153 
L 305.665465 125.45686 
L 305.220954 125.68335 
L 304.920716 126.081778 
L 304.825524 126.571499 
L 304.954645 127.053387 
L 305.281945 127.429902 
L 305.741172 127.624832 
L 306.239376 127.598723 
L 306.675712 127.356858 
L 306.961862 126.948193 
L 307.042606 126.5328 
L 307.042606 126.5328 
" style="fill:none;stroke:#b0b0b0;stroke-linecap:square;stroke-width:0.8;"/>
     </g>
     <g id="text_22">
      <!-- 0 -->
      <g transform="translate(306.958198 124.028763)scale(0.1 -0.1)">
       <use xlink:href="#DejaVuSans-30"/>
      </g>
     </g>
    </g>
    <g id="ytick_7">
     <g id="line2d_24">
      <path clip-path="url(#pc16d437a84)" d="M 318.535108 126.5328 
L 318.412473 124.779027 
L 318.046952 123.059389 
L 317.445662 121.407357 
L 316.620305 119.855085 
L 315.586945 118.432788 
L 314.365697 117.168149 
L 312.98033 116.085782 
L 311.457809 115.206754 
L 309.827768 114.548174 
L 308.121934 114.122862 
L 306.373509 113.939095 
L 304.616524 114.000451 
L 302.885177 114.305734 
L 301.213167 114.849003 
L 299.633037 115.619684 
L 298.175542 116.602776 
L 296.869052 117.779145 
L 295.738996 119.125894 
L 294.807368 120.61681 
L 294.092302 122.222874 
L 293.607717 123.912826 
L 293.363042 125.653772 
L 293.363042 127.411828 
L 293.607717 129.152774 
L 294.092302 130.842726 
L 294.807368 132.44879 
L 295.738996 133.939706 
L 296.869052 135.286455 
L 298.175542 136.462824 
L 299.633037 137.445916 
L 301.213167 138.216597 
L 302.885177 138.759866 
L 304.616524 139.065149 
L 306.373509 139.126505 
L 308.121934 138.942738 
L 309.827768 138.517426 
L 311.457809 137.858846 
L 312.98033 136.979818 
L 314.365697 135.897451 
L 315.586945 134.632812 
L 316.620305 133.210515 
L 317.445662 131.658243 
L 318.046952 130.006211 
L 318.412473 128.286573 
L 318.535108 126.5328 
L 318.535108 126.5328 
" style="fill:none;stroke:#b0b0b0;stroke-linecap:square;stroke-width:0.8;"/>
     </g>
     <g id="text_23">
      <!-- 1 -->
      <g transform="translate(317.575885 119.630773)scale(0.1 -0.1)">
       <use xlink:href="#DejaVuSans-31"/>
      </g>
     </g>
    </g>
    <g id="ytick_8">
     <g id="line2d_25">
      <path clip-path="url(#pc16d437a84)" d="M 330.027611 126.5328 
L 329.895622 124.014303 
L 329.501102 121.5234 
L 328.848372 119.087381 
L 327.944585 116.732935 
L 326.799642 114.485858 
L 325.426088 112.370771 
L 323.838972 110.410845 
L 322.055682 108.627555 
L 320.095757 107.040439 
L 317.980669 105.666885 
L 315.733593 104.521942 
L 313.379147 103.618155 
L 310.943127 102.965426 
L 308.452224 102.570905 
L 305.933727 102.438917 
L 303.415231 102.570905 
L 300.924327 102.965426 
L 298.488308 103.618155 
L 296.133862 104.521942 
L 293.886786 105.666885 
L 291.771698 107.040439 
L 289.811772 108.627555 
L 288.028482 110.410845 
L 286.441366 112.370771 
L 285.067812 114.485858 
L 283.922869 116.732935 
L 283.019082 119.087381 
L 282.366353 121.5234 
L 281.971833 124.014303 
L 281.839844 126.5328 
L 281.971833 129.051297 
L 282.366353 131.5422 
L 283.019082 133.978219 
L 283.922869 136.332665 
L 285.067812 138.579742 
L 286.441366 140.694829 
L 288.028482 142.654755 
L 289.811772 144.438045 
L 291.771698 146.025161 
L 293.886786 147.398715 
L 296.133862 148.543658 
L 298.488308 149.447445 
L 300.924327 150.100174 
L 303.415231 150.494695 
L 305.933727 150.626683 
L 308.452224 150.494695 
L 310.943127 150.100174 
L 313.379147 149.447445 
L 315.733593 148.543658 
L 317.980669 147.398715 
L 320.095757 146.025161 
L 322.055682 144.438045 
L 323.838972 142.654755 
L 325.426088 140.694829 
L 326.799642 138.579742 
L 327.944585 136.332665 
L 328.848372 133.978219 
L 329.501102 131.5422 
L 329.895622 129.051297 
L 330.027611 126.5328 
L 330.027611 126.5328 
" style="fill:none;stroke:#b0b0b0;stroke-linecap:square;stroke-width:0.8;"/>
     </g>
     <g id="text_24">
      <!-- 2 -->
      <g transform="translate(328.193573 115.232782)scale(0.1 -0.1)">
       <use xlink:href="#DejaVuSans-32"/>
      </g>
     </g>
    </g>
    <g id="ytick_9">
     <g id="line2d_26">
      <path clip-path="url(#pc16d437a84)" d="M 341.520113 126.5328 
L 341.433426 124.050419 
L 341.173789 121.580132 
L 340.742465 119.133974 
L 340.141557 116.723863 
L 339.373991 114.361539 
L 338.443508 112.058513 
L 337.354641 109.826004 
L 336.112694 107.674889 
L 334.723718 105.615647 
L 333.19448 103.658312 
L 331.532431 101.812419 
L 329.745667 100.086962 
L 327.842894 98.490345 
L 325.833382 97.030349 
L 323.72692 95.714086 
L 321.533772 94.547968 
L 319.264622 93.537678 
L 316.930525 92.688136 
L 314.542853 92.003482 
L 312.113238 91.487051 
L 309.653517 91.14136 
L 307.175674 90.968092 
L 304.69178 90.968092 
L 302.213937 91.14136 
L 299.754216 91.487051 
L 297.324601 92.003482 
L 294.936929 92.688136 
L 292.602833 93.537678 
L 290.333683 94.547968 
L 288.140534 95.714086 
L 286.034073 97.030349 
L 284.02456 98.490345 
L 282.121787 100.086962 
L 280.335024 101.812419 
L 278.672974 103.658312 
L 277.143736 105.615647 
L 275.754761 107.674889 
L 274.512814 109.826004 
L 273.423946 112.058513 
L 272.493463 114.361539 
L 271.725898 116.723863 
L 271.124989 119.133974 
L 270.693666 121.580132 
L 270.434028 124.050419 
L 270.347341 126.5328 
L 270.434028 129.015181 
L 270.693666 131.485468 
L 271.124989 133.931626 
L 271.725898 136.341737 
L 272.493463 138.704061 
L 273.423946 141.007087 
L 274.512814 143.239596 
L 275.754761 145.390711 
L 277.143736 147.449953 
L 278.672974 149.407288 
L 280.335024 151.253181 
L 282.121787 152.978638 
L 284.02456 154.575255 
L 286.034073 156.035251 
L 288.140534 157.351514 
L 290.333683 158.517632 
L 292.602833 159.527922 
L 294.936929 160.377464 
L 297.324601 161.062118 
L 299.754216 161.578549 
L 302.213937 161.92424 
L 304.69178 162.097508 
L 307.175674 162.097508 
L 309.653517 161.92424 
L 312.113238 161.578549 
L 314.542853 161.062118 
L 316.930525 160.377464 
L 319.264622 159.527922 
L 321.533772 158.517632 
L 323.72692 157.351514 
L 325.833382 156.035251 
L 327.842894 154.575255 
L 329.745667 152.978638 
L 331.532431 151.253181 
L 333.19448 149.407288 
L 334.723718 147.449953 
L 336.112694 145.390711 
L 337.354641 143.239596 
L 338.443508 141.007087 
L 339.373991 138.704061 
L 340.141557 136.341737 
L 340.742465 133.931626 
L 341.173789 131.485468 
L 341.433426 129.015181 
L 341.520113 126.5328 
L 341.520113 126.5328 
" style="fill:none;stroke:#b0b0b0;stroke-linecap:square;stroke-width:0.8;"/>
     </g>
     <g id="text_25">
      <!-- 3 -->
      <g transform="translate(338.811261 110.834792)scale(0.1 -0.1)">
       <use xlink:href="#DejaVuSans-33"/>
      </g>
     </g>
    </g>
    <g id="ytick_10">
     <g id="line2d_27">
      <path clip-path="url(#pc16d437a84)" d="M 353.012615 126.5328 
L 352.897934 123.248743 
L 352.554447 119.980685 
L 351.983829 116.744549 
L 351.188859 113.5561 
L 350.173411 110.430872 
L 348.942432 107.384091 
L 347.501918 104.430601 
L 345.858889 101.58479 
L 344.021348 98.860524 
L 341.998248 96.271074 
L 339.799445 93.829056 
L 337.435652 91.546368 
L 334.918385 89.43413 
L 332.259907 87.502633 
L 329.473171 85.761287 
L 326.571753 84.218576 
L 323.569789 82.882015 
L 320.481904 81.758117 
L 317.323141 80.852356 
L 314.10889 80.169146 
L 310.854811 79.711815 
L 307.576757 79.482591 
L 304.290698 79.482591 
L 301.012643 79.711815 
L 297.758564 80.169146 
L 294.544313 80.852356 
L 291.385551 81.758117 
L 288.297665 82.882015 
L 285.295701 84.218576 
L 282.394283 85.761287 
L 279.607547 87.502633 
L 276.94907 89.43413 
L 274.431802 91.546368 
L 272.068009 93.829056 
L 269.869207 96.271074 
L 267.846107 98.860524 
L 266.008566 101.58479 
L 264.365536 104.430601 
L 262.925023 107.384091 
L 261.694044 110.430872 
L 260.678595 113.5561 
L 259.883626 116.744549 
L 259.313008 119.980685 
L 258.969521 123.248743 
L 258.854839 126.5328 
L 258.969521 129.816857 
L 259.313008 133.084915 
L 259.883626 136.321051 
L 260.678595 139.5095 
L 261.694044 142.634728 
L 262.925023 145.681509 
L 264.365536 148.634999 
L 266.008566 151.48081 
L 267.846107 154.205076 
L 269.869207 156.794526 
L 272.068009 159.236544 
L 274.431802 161.519232 
L 276.94907 163.63147 
L 279.607547 165.562967 
L 282.394283 167.304313 
L 285.295701 168.847024 
L 288.297665 170.183585 
L 291.385551 171.307483 
L 294.544313 172.213244 
L 297.758564 172.896454 
L 301.012643 173.353785 
L 304.290698 173.583009 
L 307.576757 173.583009 
L 310.854811 173.353785 
L 314.10889 172.896454 
L 317.323141 172.213244 
L 320.481904 171.307483 
L 323.569789 170.183585 
L 326.571753 168.847024 
L 329.473171 167.304313 
L 332.259907 165.562967 
L 334.918385 163.63147 
L 337.435652 161.519232 
L 339.799445 159.236544 
L 341.998248 156.794526 
L 344.021348 154.205076 
L 345.858889 151.48081 
L 347.501918 148.634999 
L 348.942432 145.681509 
L 350.173411 142.634728 
L 351.188859 139.5095 
L 351.983829 136.321051 
L 352.554447 133.084915 
L 352.897934 129.816857 
L 353.012615 126.5328 
L 353.012615 126.5328 
" style="fill:none;stroke:#b0b0b0;stroke-linecap:square;stroke-width:0.8;"/>
     </g>
     <g id="text_26">
      <!-- 4 -->
      <g transform="translate(349.428948 106.436802)scale(0.1 -0.1)">
       <use xlink:href="#DejaVuSans-34"/>
      </g>
     </g>
    </g>
    <g id="ytick_11">
     <g id="line2d_28">
      <path clip-path="url(#pc16d437a84)" d="M 364.505118 126.5328 
L 364.362441 122.447066 
L 363.935105 118.381238 
L 363.225192 114.355123 
L 362.236161 110.388337 
L 360.972831 106.500205 
L 359.441355 102.709669 
L 357.649195 99.035198 
L 355.605083 95.494692 
L 353.318978 92.1054 
L 350.802015 88.883836 
L 348.06646 85.845693 
L 345.125637 83.005774 
L 341.993876 80.377914 
L 338.686433 77.974917 
L 335.219422 75.808488 
L 331.609735 73.889183 
L 327.874956 72.226352 
L 324.033282 70.828097 
L 320.103429 69.70123 
L 316.104542 68.851241 
L 312.056105 68.28227 
L 307.977839 67.99709 
L 303.889615 67.99709 
L 299.81135 68.28227 
L 295.762912 68.851241 
L 291.764025 69.70123 
L 287.834172 70.828097 
L 283.992498 72.226352 
L 280.25772 73.889183 
L 276.648032 75.808488 
L 273.181021 77.974917 
L 269.873579 80.377914 
L 266.741817 83.005774 
L 263.800995 85.845693 
L 261.065439 88.883836 
L 258.548477 92.1054 
L 256.262371 95.494692 
L 254.218259 99.035198 
L 252.4261 102.709669 
L 250.894624 106.500205 
L 249.631293 110.388337 
L 248.642262 114.355123 
L 247.93235 118.381238 
L 247.505014 122.447066 
L 247.362337 126.5328 
L 247.505014 130.618534 
L 247.93235 134.684362 
L 248.642262 138.710477 
L 249.631293 142.677263 
L 250.894624 146.565395 
L 252.4261 150.355931 
L 254.218259 154.030402 
L 256.262371 157.570908 
L 258.548477 160.9602 
L 261.065439 164.181764 
L 263.800995 167.219907 
L 266.741817 170.059826 
L 269.873579 172.687686 
L 273.181021 175.090683 
L 276.648032 177.257112 
L 280.25772 179.176417 
L 283.992498 180.839248 
L 287.834172 182.237503 
L 291.764025 183.36437 
L 295.762912 184.214359 
L 299.81135 184.78333 
L 303.889615 185.06851 
L 307.977839 185.06851 
L 312.056105 184.78333 
L 316.104542 184.214359 
L 320.103429 183.36437 
L 324.033282 182.237503 
L 327.874956 180.839248 
L 331.609735 179.176417 
L 335.219422 177.257112 
L 338.686433 175.090683 
L 341.993876 172.687686 
L 345.125637 170.059826 
L 348.06646 167.219907 
L 350.802015 164.181764 
L 353.318978 160.9602 
L 355.605083 157.570908 
L 357.649195 154.030402 
L 359.441355 150.355931 
L 360.972831 146.565395 
L 362.236161 142.677263 
L 363.225192 138.710477 
L 363.935105 134.684362 
L 364.362441 130.618534 
L 364.505118 126.5328 
L 364.505118 126.5328 
" style="fill:none;stroke:#b0b0b0;stroke-linecap:square;stroke-width:0.8;"/>
     </g>
     <g id="text_27">
      <!-- 5 -->
      <g transform="translate(360.046636 102.038812)scale(0.1 -0.1)">
       <use xlink:href="#DejaVuSans-35"/>
      </g>
     </g>
    </g>
    <g id="ytick_12">
     <g id="line2d_29">
      <path clip-path="url(#pc16d437a84)" d="M 375.99762 126.5328 
L 375.826948 121.64539 
L 375.315763 116.781791 
L 374.466556 111.965698 
L 373.283464 107.220574 
L 371.77225 102.569537 
L 369.940278 98.035247 
L 367.796473 93.639795 
L 365.351278 89.404593 
L 362.616607 85.350277 
L 359.605783 81.496598 
L 356.333474 77.86233 
L 352.815622 74.465181 
L 349.069367 71.321699 
L 345.112959 68.4472 
L 340.965674 65.855689 
L 336.647716 63.55979 
L 332.180123 61.57069 
L 327.584661 59.898078 
L 322.883717 58.550104 
L 318.100195 57.533335 
L 313.257398 56.852725 
L 308.378922 56.511588 
L 303.488533 56.511588 
L 298.610056 56.852725 
L 293.76726 57.533335 
L 288.983738 58.550104 
L 284.282794 59.898078 
L 279.687331 61.57069 
L 275.219738 63.55979 
L 270.901781 65.855689 
L 266.754496 68.4472 
L 262.798088 71.321699 
L 259.051832 74.465181 
L 255.533981 77.86233 
L 252.261672 81.496598 
L 249.250847 85.350277 
L 246.516176 89.404593 
L 244.070982 93.639795 
L 241.927176 98.035247 
L 240.095204 102.569537 
L 238.583991 107.220574 
L 237.400899 111.965698 
L 236.551691 116.781791 
L 236.040507 121.64539 
L 235.869835 126.5328 
L 236.040507 131.42021 
L 236.551691 136.283809 
L 237.400899 141.099902 
L 238.583991 145.845026 
L 240.095204 150.496063 
L 241.927176 155.030353 
L 244.070982 159.425805 
L 246.516176 163.661007 
L 249.250847 167.715323 
L 252.261672 171.569002 
L 255.533981 175.20327 
L 259.051832 178.600419 
L 262.798088 181.743901 
L 266.754496 184.6184 
L 270.901781 187.209911 
L 275.219738 189.50581 
L 279.687331 191.49491 
L 284.282794 193.167522 
L 288.983738 194.515496 
L 293.76726 195.532265 
L 298.610056 196.212875 
L 303.488533 196.554012 
L 308.378922 196.554012 
L 313.257398 196.212875 
L 318.100195 195.532265 
L 322.883717 194.515496 
L 327.584661 193.167522 
L 332.180123 191.49491 
L 336.647716 189.50581 
L 340.965674 187.209911 
L 345.112959 184.6184 
L 349.069367 181.743901 
L 352.815622 178.600419 
L 356.333474 175.20327 
L 359.605783 171.569002 
L 362.616607 167.715323 
L 365.351278 163.661007 
L 367.796473 159.425805 
L 369.940278 155.030353 
L 371.77225 150.496063 
L 373.283464 145.845026 
L 374.466556 141.099902 
L 375.315763 136.283809 
L 375.826948 131.42021 
L 375.99762 126.5328 
L 375.99762 126.5328 
" style="fill:none;stroke:#b0b0b0;stroke-linecap:square;stroke-width:0.8;"/>
     </g>
     <g id="text_28">
      <!-- 6 -->
      <g transform="translate(370.664324 97.640822)scale(0.1 -0.1)">
       <use xlink:href="#DejaVuSans-36"/>
      </g>
     </g>
    </g>
   </g>
   <g id="line2d_30">
    <path clip-path="url(#pc16d437a84)" d="M 338.447092 124.799912 
L 338.882385 121.224285 
L 339.156684 117.472543 
L 338.914175 113.637157 
L 337.735004 110.007983 
L 335.32851 107.03302 
L 331.777202 105.10682 
L 327.413441 104.473468 
L 322.711196 105.163054 
L 318.141744 107.021586 
L 314.109297 109.719934 
L 310.855291 112.885436 
L 308.488687 116.074792 
L 306.955361 118.903558 
L 306.079091 121.074162 
L 305.610895 122.499477 
L 305.306758 123.207653 
L 304.954033 123.283728 
L 304.344647 122.767502 
L 303.218956 121.631805 
L 301.268735 119.891429 
L 298.145705 117.632364 
L 293.553762 115.10415 
L 287.341271 112.719702 
L 279.532199 110.975851 
L 270.402931 110.410246 
L 260.50998 111.50586 
L 250.758001 114.599969 
L 242.389073 119.739934 
L 236.812947 126.5328 
L 235.277755 134.085859 
L 238.385914 141.141337 
L 245.777346 146.433544 
L 256.151302 149.122213 
L 267.643916 149.094852 
L 278.442865 146.956888 
L 287.334621 143.702693 
L 293.889592 140.297276 
L 298.313534 137.381376 
L 301.160086 135.150688 
L 302.948548 133.606128 
L 304.075728 132.694695 
L 304.809596 132.494661 
L 305.406203 133.123458 
L 306.150422 134.670045 
L 307.330816 136.965822 
L 309.124959 139.595207 
L 311.516375 142.013332 
L 314.318631 143.776155 
L 317.255274 144.627232 
L 320.161316 144.654721 
L 323.000369 144.059976 
L 325.848724 143.043672 
L 328.719173 141.648107 
L 331.493307 139.814259 
L 333.946975 137.486224 
L 335.858966 134.693734 
L 337.154261 131.562889 
L 337.919841 128.237587 
" style="fill:none;stroke:#1f77b4;stroke-linecap:square;stroke-width:1.5;"/>
   </g>
   <g id="patch_5">
    <path d="M 380.376 126.5328 
C 380.376 116.75713 378.450406 107.076517 374.709419 98.044976 
C 370.968433 89.013434 365.484805 80.806606 358.572363 73.894164 
C 351.659921 66.981722 343.453093 61.498095 334.421552 57.757108 
C 325.390011 54.016121 315.709397 52.090527 305.933727 52.090527 
C 296.158058 52.090527 286.477444 54.016121 277.445903 57.757108 
C 268.414362 61.498095 260.207534 66.981722 253.295091 73.894164 
C 246.382649 80.806606 240.899022 89.013434 237.158035 98.044976 
C 233.417048 107.076517 231.491455 116.75713 231.491455 126.5328 
C 231.491455 136.30847 233.417048 145.989083 237.158035 155.020624 
C 240.899022 164.052166 246.382649 172.258994 253.295091 179.171436 
C 260.207534 186.083878 268.414362 191.567505 277.445903 195.308492 
C 286.477444 199.049479 296.158058 200.975073 305.933727 200.975073 
C 315.709397 200.975073 325.390011 199.049479 334.421552 195.308492 
C 343.453093 191.567505 351.659921 186.083878 358.572363 179.171436 
C 365.484805 172.258994 370.968433 164.052166 374.709419 155.020624 
C 378.450406 145.989083 380.376 136.30847 380.376 126.5328 
" style="fill:none;stroke:#000000;stroke-linecap:square;stroke-linejoin:miter;stroke-width:0.8;"/>
   </g>
  </g>
  <g id="text_29">
   <!-- KA61-200627_90deg_Floor_Rotation -->
   <defs>
    <path d="M 9.8125 72.90625 
L 19.671875 72.90625 
L 19.671875 42.09375 
L 52.390625 72.90625 
L 65.09375 72.90625 
L 28.90625 38.921875 
L 67.671875 0 
L 54.6875 0 
L 19.671875 35.109375 
L 19.671875 0 
L 9.8125 0 
z
" id="DejaVuSans-4b"/>
    <path d="M 34.1875 63.1875 
L 20.796875 26.90625 
L 47.609375 26.90625 
z
M 28.609375 72.90625 
L 39.796875 72.90625 
L 67.578125 0 
L 57.328125 0 
L 50.6875 18.703125 
L 17.828125 18.703125 
L 11.1875 0 
L 0.78125 0 
z
" id="DejaVuSans-41"/>
    <path d="M 4.890625 31.390625 
L 31.203125 31.390625 
L 31.203125 23.390625 
L 4.890625 23.390625 
z
" id="DejaVuSans-2d"/>
    <path d="M 50.984375 -16.609375 
L 50.984375 -23.578125 
L -0.984375 -23.578125 
L -0.984375 -16.609375 
z
" id="DejaVuSans-5f"/>
    <path d="M 45.40625 46.390625 
L 45.40625 75.984375 
L 54.390625 75.984375 
L 54.390625 0 
L 45.40625 0 
L 45.40625 8.203125 
Q 42.578125 3.328125 38.25 0.953125 
Q 33.9375 -1.421875 27.875 -1.421875 
Q 17.96875 -1.421875 11.734375 6.484375 
Q 5.515625 14.40625 5.515625 27.296875 
Q 5.515625 40.1875 11.734375 48.09375 
Q 17.96875 56 27.875 56 
Q 33.9375 56 38.25 53.625 
Q 42.578125 51.265625 45.40625 46.390625 
z
M 14.796875 27.296875 
Q 14.796875 17.390625 18.875 11.75 
Q 22.953125 6.109375 30.078125 6.109375 
Q 37.203125 6.109375 41.296875 11.75 
Q 45.40625 17.390625 45.40625 27.296875 
Q 45.40625 37.203125 41.296875 42.84375 
Q 37.203125 48.484375 30.078125 48.484375 
Q 22.953125 48.484375 18.875 42.84375 
Q 14.796875 37.203125 14.796875 27.296875 
z
" id="DejaVuSans-64"/>
    <path d="M 56.203125 29.59375 
L 56.203125 25.203125 
L 14.890625 25.203125 
Q 15.484375 15.921875 20.484375 11.0625 
Q 25.484375 6.203125 34.421875 6.203125 
Q 39.59375 6.203125 44.453125 7.46875 
Q 49.3125 8.734375 54.109375 11.28125 
L 54.109375 2.78125 
Q 49.265625 0.734375 44.1875 -0.34375 
Q 39.109375 -1.421875 33.890625 -1.421875 
Q 20.796875 -1.421875 13.15625 6.1875 
Q 5.515625 13.8125 5.515625 26.8125 
Q 5.515625 40.234375 12.765625 48.109375 
Q 20.015625 56 32.328125 56 
Q 43.359375 56 49.78125 48.890625 
Q 56.203125 41.796875 56.203125 29.59375 
z
M 47.21875 32.234375 
Q 47.125 39.59375 43.09375 43.984375 
Q 39.0625 48.390625 32.421875 48.390625 
Q 24.90625 48.390625 20.390625 44.140625 
Q 15.875 39.890625 15.1875 32.171875 
z
" id="DejaVuSans-65"/>
    <path d="M 45.40625 27.984375 
Q 45.40625 37.75 41.375 43.109375 
Q 37.359375 48.484375 30.078125 48.484375 
Q 22.859375 48.484375 18.828125 43.109375 
Q 14.796875 37.75 14.796875 27.984375 
Q 14.796875 18.265625 18.828125 12.890625 
Q 22.859375 7.515625 30.078125 7.515625 
Q 37.359375 7.515625 41.375 12.890625 
Q 45.40625 18.265625 45.40625 27.984375 
z
M 54.390625 6.78125 
Q 54.390625 -7.171875 48.1875 -13.984375 
Q 42 -20.796875 29.203125 -20.796875 
Q 24.46875 -20.796875 20.265625 -20.09375 
Q 16.0625 -19.390625 12.109375 -17.921875 
L 12.109375 -9.1875 
Q 16.0625 -11.328125 19.921875 -12.34375 
Q 23.78125 -13.375 27.78125 -13.375 
Q 36.625 -13.375 41.015625 -8.765625 
Q 45.40625 -4.15625 45.40625 5.171875 
L 45.40625 9.625 
Q 42.625 4.78125 38.28125 2.390625 
Q 33.9375 0 27.875 0 
Q 17.828125 0 11.671875 7.65625 
Q 5.515625 15.328125 5.515625 27.984375 
Q 5.515625 40.671875 11.671875 48.328125 
Q 17.828125 56 27.875 56 
Q 33.9375 56 38.28125 53.609375 
Q 42.625 51.21875 45.40625 46.390625 
L 45.40625 54.6875 
L 54.390625 54.6875 
z
" id="DejaVuSans-67"/>
    <path d="M 9.8125 72.90625 
L 51.703125 72.90625 
L 51.703125 64.59375 
L 19.671875 64.59375 
L 19.671875 43.109375 
L 48.578125 43.109375 
L 48.578125 34.8125 
L 19.671875 34.8125 
L 19.671875 0 
L 9.8125 0 
z
" id="DejaVuSans-46"/>
    <path d="M 9.421875 75.984375 
L 18.40625 75.984375 
L 18.40625 0 
L 9.421875 0 
z
" id="DejaVuSans-6c"/>
    <path d="M 30.609375 48.390625 
Q 23.390625 48.390625 19.1875 42.75 
Q 14.984375 37.109375 14.984375 27.296875 
Q 14.984375 17.484375 19.15625 11.84375 
Q 23.34375 6.203125 30.609375 6.203125 
Q 37.796875 6.203125 41.984375 11.859375 
Q 46.1875 17.53125 46.1875 27.296875 
Q 46.1875 37.015625 41.984375 42.703125 
Q 37.796875 48.390625 30.609375 48.390625 
z
M 30.609375 56 
Q 42.328125 56 49.015625 48.375 
Q 55.71875 40.765625 55.71875 27.296875 
Q 55.71875 13.875 49.015625 6.21875 
Q 42.328125 -1.421875 30.609375 -1.421875 
Q 18.84375 -1.421875 12.171875 6.21875 
Q 5.515625 13.875 5.515625 27.296875 
Q 5.515625 40.765625 12.171875 48.375 
Q 18.84375 56 30.609375 56 
z
" id="DejaVuSans-6f"/>
    <path d="M 41.109375 46.296875 
Q 39.59375 47.171875 37.8125 47.578125 
Q 36.03125 48 33.890625 48 
Q 26.265625 48 22.1875 43.046875 
Q 18.109375 38.09375 18.109375 28.8125 
L 18.109375 0 
L 9.078125 0 
L 9.078125 54.6875 
L 18.109375 54.6875 
L 18.109375 46.1875 
Q 20.953125 51.171875 25.484375 53.578125 
Q 30.03125 56 36.53125 56 
Q 37.453125 56 38.578125 55.875 
Q 39.703125 55.765625 41.0625 55.515625 
z
" id="DejaVuSans-72"/>
    <path d="M 44.390625 34.1875 
Q 47.5625 33.109375 50.5625 29.59375 
Q 53.5625 26.078125 56.59375 19.921875 
L 66.609375 0 
L 56 0 
L 46.6875 18.703125 
Q 43.0625 26.03125 39.671875 28.421875 
Q 36.28125 30.8125 30.421875 30.8125 
L 19.671875 30.8125 
L 19.671875 0 
L 9.8125 0 
L 9.8125 72.90625 
L 32.078125 72.90625 
Q 44.578125 72.90625 50.734375 67.671875 
Q 56.890625 62.453125 56.890625 51.90625 
Q 56.890625 45.015625 53.6875 40.46875 
Q 50.484375 35.9375 44.390625 34.1875 
z
M 19.671875 64.796875 
L 19.671875 38.921875 
L 32.078125 38.921875 
Q 39.203125 38.921875 42.84375 42.21875 
Q 46.484375 45.515625 46.484375 51.90625 
Q 46.484375 58.296875 42.84375 61.546875 
Q 39.203125 64.796875 32.078125 64.796875 
z
" id="DejaVuSans-52"/>
    <path d="M 18.3125 70.21875 
L 18.3125 54.6875 
L 36.8125 54.6875 
L 36.8125 47.703125 
L 18.3125 47.703125 
L 18.3125 18.015625 
Q 18.3125 11.328125 20.140625 9.421875 
Q 21.96875 7.515625 27.59375 7.515625 
L 36.8125 7.515625 
L 36.8125 0 
L 27.59375 0 
Q 17.1875 0 13.234375 3.875 
Q 9.28125 7.765625 9.28125 18.015625 
L 9.28125 47.703125 
L 2.6875 47.703125 
L 2.6875 54.6875 
L 9.28125 54.6875 
L 9.28125 70.21875 
z
" id="DejaVuSans-74"/>
    <path d="M 34.28125 27.484375 
Q 23.390625 27.484375 19.1875 25 
Q 14.984375 22.515625 14.984375 16.5 
Q 14.984375 11.71875 18.140625 8.90625 
Q 21.296875 6.109375 26.703125 6.109375 
Q 34.1875 6.109375 38.703125 11.40625 
Q 43.21875 16.703125 43.21875 25.484375 
L 43.21875 27.484375 
z
M 52.203125 31.203125 
L 52.203125 0 
L 43.21875 0 
L 43.21875 8.296875 
Q 40.140625 3.328125 35.546875 0.953125 
Q 30.953125 -1.421875 24.3125 -1.421875 
Q 15.921875 -1.421875 10.953125 3.296875 
Q 6 8.015625 6 15.921875 
Q 6 25.140625 12.171875 29.828125 
Q 18.359375 34.515625 30.609375 34.515625 
L 43.21875 34.515625 
L 43.21875 35.40625 
Q 43.21875 41.609375 39.140625 45 
Q 35.0625 48.390625 27.6875 48.390625 
Q 23 48.390625 18.546875 47.265625 
Q 14.109375 46.140625 10.015625 43.890625 
L 10.015625 52.203125 
Q 14.9375 54.109375 19.578125 55.046875 
Q 24.21875 56 28.609375 56 
Q 40.484375 56 46.34375 49.84375 
Q 52.203125 43.703125 52.203125 31.203125 
z
" id="DejaVuSans-61"/>
    <path d="M 9.421875 54.6875 
L 18.40625 54.6875 
L 18.40625 0 
L 9.421875 0 
z
M 9.421875 75.984375 
L 18.40625 75.984375 
L 18.40625 64.59375 
L 9.421875 64.59375 
z
" id="DejaVuSans-69"/>
    <path d="M 54.890625 33.015625 
L 54.890625 0 
L 45.90625 0 
L 45.90625 32.71875 
Q 45.90625 40.484375 42.875 44.328125 
Q 39.84375 48.1875 33.796875 48.1875 
Q 26.515625 48.1875 22.3125 43.546875 
Q 18.109375 38.921875 18.109375 30.90625 
L 18.109375 0 
L 9.078125 0 
L 9.078125 54.6875 
L 18.109375 54.6875 
L 18.109375 46.1875 
Q 21.34375 51.125 25.703125 53.5625 
Q 30.078125 56 35.796875 56 
Q 45.21875 56 50.046875 50.171875 
Q 54.890625 44.34375 54.890625 33.015625 
z
" id="DejaVuSans-6e"/>
   </defs>
   <g transform="translate(102.346875 14.129325)scale(0.12 -0.12)">
    <use xlink:href="#DejaVuSans-4b"/>
    <use x="65.560547" xlink:href="#DejaVuSans-41"/>
    <use x="133.96875" xlink:href="#DejaVuSans-36"/>
    <use x="197.591797" xlink:href="#DejaVuSans-31"/>
    <use x="261.214844" xlink:href="#DejaVuSans-2d"/>
    <use x="297.298828" xlink:href="#DejaVuSans-32"/>
    <use x="360.921875" xlink:href="#DejaVuSans-30"/>
    <use x="424.544922" xlink:href="#DejaVuSans-30"/>
    <use x="488.167969" xlink:href="#DejaVuSans-36"/>
    <use x="551.791016" xlink:href="#DejaVuSans-32"/>
    <use x="615.414062" xlink:href="#DejaVuSans-37"/>
    <use x="679.037109" xlink:href="#DejaVuSans-5f"/>
    <use x="729.037109" xlink:href="#DejaVuSans-39"/>
    <use x="792.660156" xlink:href="#DejaVuSans-30"/>
    <use x="856.283203" xlink:href="#DejaVuSans-64"/>
    <use x="919.759766" xlink:href="#DejaVuSans-65"/>
    <use x="981.283203" xlink:href="#DejaVuSans-67"/>
    <use x="1044.759766" xlink:href="#DejaVuSans-5f"/>
    <use x="1094.759766" xlink:href="#DejaVuSans-46"/>
    <use x="1152.279297" xlink:href="#DejaVuSans-6c"/>
    <use x="1180.0625" xlink:href="#DejaVuSans-6f"/>
    <use x="1241.244141" xlink:href="#DejaVuSans-6f"/>
    <use x="1302.425781" xlink:href="#DejaVuSans-72"/>
    <use x="1343.539062" xlink:href="#DejaVuSans-5f"/>
    <use x="1393.539062" xlink:href="#DejaVuSans-52"/>
    <use x="1462.958984" xlink:href="#DejaVuSans-6f"/>
    <use x="1524.140625" xlink:href="#DejaVuSans-74"/>
    <use x="1563.349609" xlink:href="#DejaVuSans-61"/>
    <use x="1624.628906" xlink:href="#DejaVuSans-74"/>
    <use x="1663.837891" xlink:href="#DejaVuSans-69"/>
    <use x="1691.621094" xlink:href="#DejaVuSans-6f"/>
    <use x="1752.802734" xlink:href="#DejaVuSans-6e"/>
   </g>
  </g>
 </g>
 <defs>
  <clipPath id="pdeea9d535b">
   <path d="M 201.714545 126.5328 
C 201.714545 116.75713 199.788952 107.076517 196.047965 98.044976 
C 192.306978 89.013434 186.823351 80.806606 179.910909 73.894164 
C 172.998466 66.981722 164.791638 61.498095 155.760097 57.757108 
C 146.728556 54.016121 137.047942 52.090527 127.272273 52.090527 
C 117.496603 52.090527 107.815989 54.016121 98.784448 57.757108 
C 89.752907 61.498095 81.546079 66.981722 74.633637 73.894164 
C 67.721195 80.806606 62.237567 89.013434 58.496581 98.044976 
C 54.755594 107.076517 52.83 116.75713 52.83 126.5328 
C 52.83 136.30847 54.755594 145.989083 58.496581 155.020624 
C 62.237567 164.052166 67.721195 172.258994 74.633637 179.171436 
C 81.546079 186.083878 89.752907 191.567505 98.784448 195.308492 
C 107.815989 199.049479 117.496603 200.975073 127.272273 200.975073 
C 137.047942 200.975073 146.728556 199.049479 155.760097 195.308492 
C 164.791638 191.567505 172.998466 186.083878 179.910909 179.171436 
C 186.823351 172.258994 192.306978 164.052166 196.047965 155.020624 
C 199.788952 145.989083 201.714545 136.30847 201.714545 126.5328 
M 127.272273 126.5328 
C 127.272273 126.5328 127.272273 126.5328 127.272273 126.5328 
C 127.272273 126.5328 127.272273 126.5328 127.272273 126.5328 
C 127.272273 126.5328 127.272273 126.5328 127.272273 126.5328 
C 127.272273 126.5328 127.272273 126.5328 127.272273 126.5328 
C 127.272273 126.5328 127.272273 126.5328 127.272273 126.5328 
C 127.272273 126.5328 127.272273 126.5328 127.272273 126.5328 
C 127.272273 126.5328 127.272273 126.5328 127.272273 126.5328 
C 127.272273 126.5328 127.272273 126.5328 127.272273 126.5328 
C 127.272273 126.5328 127.272273 126.5328 127.272273 126.5328 
C 127.272273 126.5328 127.272273 126.5328 127.272273 126.5328 
C 127.272273 126.5328 127.272273 126.5328 127.272273 126.5328 
C 127.272273 126.5328 127.272273 126.5328 127.272273 126.5328 
C 127.272273 126.5328 127.272273 126.5328 127.272273 126.5328 
C 127.272273 126.5328 127.272273 126.5328 127.272273 126.5328 
C 127.272273 126.5328 127.272273 126.5328 127.272273 126.5328 
C 127.272273 126.5328 127.272273 126.5328 127.272273 126.5328 
M 201.714545 126.5328 
z
"/>
  </clipPath>
  <clipPath id="pc16d437a84">
   <path d="M 380.376 126.5328 
C 380.376 116.75713 378.450406 107.076517 374.709419 98.044976 
C 370.968433 89.013434 365.484805 80.806606 358.572363 73.894164 
C 351.659921 66.981722 343.453093 61.498095 334.421552 57.757108 
C 325.390011 54.016121 315.709397 52.090527 305.933727 52.090527 
C 296.158058 52.090527 286.477444 54.016121 277.445903 57.757108 
C 268.414362 61.498095 260.207534 66.981722 253.295091 73.894164 
C 246.382649 80.806606 240.899022 89.013434 237.158035 98.044976 
C 233.417048 107.076517 231.491455 116.75713 231.491455 126.5328 
C 231.491455 136.30847 233.417048 145.989083 237.158035 155.020624 
C 240.899022 164.052166 246.382649 172.258994 253.295091 179.171436 
C 260.207534 186.083878 268.414362 191.567505 277.445903 195.308492 
C 286.477444 199.049479 296.158058 200.975073 305.933727 200.975073 
C 315.709397 200.975073 325.390011 199.049479 334.421552 195.308492 
C 343.453093 191.567505 351.659921 186.083878 358.572363 179.171436 
C 365.484805 172.258994 370.968433 164.052166 374.709419 155.020624 
C 378.450406 145.989083 380.376 136.30847 380.376 126.5328 
M 305.933727 126.5328 
C 305.933727 126.5328 305.933727 126.5328 305.933727 126.5328 
C 305.933727 126.5328 305.933727 126.5328 305.933727 126.5328 
C 305.933727 126.5328 305.933727 126.5328 305.933727 126.5328 
C 305.933727 126.5328 305.933727 126.5328 305.933727 126.5328 
C 305.933727 126.5328 305.933727 126.5328 305.933727 126.5328 
C 305.933727 126.5328 305.933727 126.5328 305.933727 126.5328 
C 305.933727 126.5328 305.933727 126.5328 305.933727 126.5328 
C 305.933727 126.5328 305.933727 126.5328 305.933727 126.5328 
C 305.933727 126.5328 305.933727 126.5328 305.933727 126.5328 
C 305.933727 126.5328 305.933727 126.5328 305.933727 126.5328 
C 305.933727 126.5328 305.933727 126.5328 305.933727 126.5328 
C 305.933727 126.5328 305.933727 126.5328 305.933727 126.5328 
C 305.933727 126.5328 305.933727 126.5328 305.933727 126.5328 
C 305.933727 126.5328 305.933727 126.5328 305.933727 126.5328 
C 305.933727 126.5328 305.933727 126.5328 305.933727 126.5328 
C 305.933727 126.5328 305.933727 126.5328 305.933727 126.5328 
M 380.376 126.5328 
z
"/>
  </clipPath>
 </defs>
</svg>
